<svg xmlns="http://www.w3.org/2000/svg" xmlns:xlink="http://www.w3.org/1999/xlink" width="500" zoomAndPan="magnify" viewBox="0 0 375 374.999991" height="500" preserveAspectRatio="xMidYMid meet" version="1.0"><defs><clipPath id="8d775535ec"><path d="M 19.636719 43.242188 L 355.363281 43.242188 L 355.363281 331.757812 L 19.636719 331.757812 Z M 19.636719 43.242188 " clip-rule="nonzero"/></clipPath><clipPath id="205219692d"><path d="M 355.363281 187.5 L 271.429688 331.757812 L 103.570312 331.757812 L 19.636719 187.5 L 103.570312 43.242188 L 271.429688 43.242188 L 355.363281 187.5 " clip-rule="nonzero"/></clipPath><clipPath id="d1277a38f2"><path d="M 102.753906 43.242188 L 153.914062 43.242188 L 153.914062 331.757812 L 102.753906 331.757812 Z M 102.753906 43.242188 " clip-rule="nonzero"/></clipPath><clipPath id="c75ddadde8"><path d="M 221.085938 43.242188 L 272.246094 43.242188 L 272.246094 331.757812 L 221.085938 331.757812 Z M 221.085938 43.242188 " clip-rule="nonzero"/></clipPath><clipPath id="c07270559d"><path d="M 102.746094 161.921875 L 272.242188 161.921875 L 272.242188 213.082031 L 102.746094 213.082031 Z M 102.746094 161.921875 " clip-rule="nonzero"/></clipPath><clipPath id="6e5b64166d"><path d="M 115 112 L 251 112 L 251 248 L 115 248 Z M 115 112 " clip-rule="nonzero"/></clipPath><clipPath id="9fbe3e4102"><path d="M 115.015625 132.738281 L 135.902344 111.851562 L 251.316406 227.265625 L 230.429688 248.152344 Z M 115.015625 132.738281 " clip-rule="nonzero"/></clipPath><clipPath id="cd1b49562a"><path d="M 115.015625 132.738281 L 135.433594 112.316406 L 250.585938 227.46875 L 230.167969 247.886719 Z M 115.015625 132.738281 " clip-rule="nonzero"/></clipPath><clipPath id="94a09b2e8b"><path d="M 122 119 L 258 119 L 258 256 L 122 256 Z M 122 119 " clip-rule="nonzero"/></clipPath><clipPath id="3e3187c2d2"><path d="M 237.304688 119.460938 L 258.1875 140.34375 L 142.773438 255.757812 L 121.890625 234.875 Z M 237.304688 119.460938 " clip-rule="nonzero"/></clipPath><clipPath id="935941e695"><path d="M 237.304688 119.460938 L 257.722656 139.878906 L 142.570312 255.03125 L 122.152344 234.609375 Z M 237.304688 119.460938 " clip-rule="nonzero"/></clipPath></defs><g clip-path="url(#8d775535ec)"><g clip-path="url(#205219692d)"><path fill="#8c52ff" d="M 19.636719 43.242188 L 355.363281 43.242188 L 355.363281 331.757812 L 19.636719 331.757812 Z M 19.636719 43.242188 " fill-opacity="1" fill-rule="nonzero"/></g></g><g clip-path="url(#d1277a38f2)"><path fill="#ffffff" d="M 102.753906 43.242188 L 155.078125 43.242188 L 155.078125 332.417969 L 102.753906 332.417969 Z M 102.753906 43.242188 " fill-opacity="1" fill-rule="nonzero"/></g><g clip-path="url(#c75ddadde8)"><path fill="#ffffff" d="M 221.085938 43.242188 L 273.414062 43.242188 L 273.414062 332.417969 L 221.085938 332.417969 Z M 221.085938 43.242188 " fill-opacity="1" fill-rule="nonzero"/></g><g clip-path="url(#c07270559d)"><path fill="#ffffff" d="M 272.242188 161.921875 L 272.242188 214.25 L 101.492188 214.25 L 101.492188 161.921875 Z M 272.242188 161.921875 " fill-opacity="1" fill-rule="nonzero"/></g><g clip-path="url(#6e5b64166d)"><g clip-path="url(#9fbe3e4102)"><g clip-path="url(#cd1b49562a)"><path fill="#ffffff" d="M 115.015625 132.738281 L 135.902344 111.851562 L 251.316406 227.265625 L 230.429688 248.152344 Z M 115.015625 132.738281 " fill-opacity="1" fill-rule="nonzero"/></g></g></g><g clip-path="url(#94a09b2e8b)"><g clip-path="url(#3e3187c2d2)"><g clip-path="url(#935941e695)"><path fill="#ffffff" d="M 237.304688 119.460938 L 258.1875 140.34375 L 142.773438 255.757812 L 121.890625 234.875 Z M 237.304688 119.460938 " fill-opacity="1" fill-rule="nonzero"/></g></g></g></svg>