<svg xmlns="http://www.w3.org/2000/svg" xmlns:xlink="http://www.w3.org/1999/xlink" width="232" zoomAndPan="magnify" viewBox="0 0 174 44.999999" height="60" preserveAspectRatio="xMidYMid meet" version="1.0"><defs><g/><clipPath id="795fb7da66"><path d="M 19.910156 4.671875 L 56.167969 4.671875 L 56.167969 35.828125 L 19.910156 35.828125 Z M 19.910156 4.671875 " clip-rule="nonzero"/></clipPath><clipPath id="88910452a3"><path d="M 56.167969 20.25 L 47.101562 35.828125 L 28.972656 35.828125 L 19.910156 20.25 L 28.972656 4.671875 L 47.101562 4.671875 L 56.167969 20.25 " clip-rule="nonzero"/></clipPath><clipPath id="e0ad2acdab"><path d="M 28.886719 4.671875 L 34.410156 4.671875 L 34.410156 35.828125 L 28.886719 35.828125 Z M 28.886719 4.671875 " clip-rule="nonzero"/></clipPath><clipPath id="c3a06b0c05"><path d="M 41.667969 4.671875 L 47.191406 4.671875 L 47.191406 35.828125 L 41.667969 35.828125 Z M 41.667969 4.671875 " clip-rule="nonzero"/></clipPath><clipPath id="da2170be0c"><path d="M 28.886719 17.488281 L 47.191406 17.488281 L 47.191406 23.011719 L 28.886719 23.011719 Z M 28.886719 17.488281 " clip-rule="nonzero"/></clipPath><clipPath id="6b2ca30684"><path d="M 30.207031 12.097656 L 44.898438 12.097656 L 44.898438 26.785156 L 30.207031 26.785156 Z M 30.207031 12.097656 " clip-rule="nonzero"/></clipPath><clipPath id="65fbcdfac2"><path d="M 30.210938 14.335938 L 32.464844 12.078125 L 44.929688 24.542969 L 42.675781 26.800781 Z M 30.210938 14.335938 " clip-rule="nonzero"/></clipPath><clipPath id="b2f360a5b2"><path d="M 30.210938 14.335938 L 32.414062 12.128906 L 44.851562 24.566406 L 42.648438 26.773438 Z M 30.210938 14.335938 " clip-rule="nonzero"/></clipPath><clipPath id="3f638a15ec"><path d="M 30.964844 12.851562 L 45.652344 12.851562 L 45.652344 27.648438 L 30.964844 27.648438 Z M 30.964844 12.851562 " clip-rule="nonzero"/></clipPath><clipPath id="d255fbe285"><path d="M 43.417969 12.902344 L 45.671875 15.15625 L 33.207031 27.621094 L 30.953125 25.367188 Z M 43.417969 12.902344 " clip-rule="nonzero"/></clipPath><clipPath id="016a9b734b"><path d="M 43.417969 12.902344 L 45.621094 15.105469 L 33.1875 27.542969 L 30.980469 25.335938 Z M 43.417969 12.902344 " clip-rule="nonzero"/></clipPath></defs><g clip-path="url(#795fb7da66)"><g clip-path="url(#88910452a3)"><path fill="#8c52ff" d="M 19.910156 4.671875 L 56.167969 4.671875 L 56.167969 35.828125 L 19.910156 35.828125 Z M 19.910156 4.671875 " fill-opacity="1" fill-rule="nonzero"/></g></g><g clip-path="url(#e0ad2acdab)"><path fill="#ffffff" d="M 28.886719 4.671875 L 34.539062 4.671875 L 34.539062 35.902344 L 28.886719 35.902344 Z M 28.886719 4.671875 " fill-opacity="1" fill-rule="nonzero"/></g><g clip-path="url(#c3a06b0c05)"><path fill="#ffffff" d="M 41.667969 4.671875 L 47.316406 4.671875 L 47.316406 35.902344 L 41.667969 35.902344 Z M 41.667969 4.671875 " fill-opacity="1" fill-rule="nonzero"/></g><g clip-path="url(#da2170be0c)"><path fill="#ffffff" d="M 28.75 17.488281 L 47.191406 17.488281 L 47.191406 23.140625 L 28.75 23.140625 Z M 28.75 17.488281 " fill-opacity="1" fill-rule="nonzero"/></g><g clip-path="url(#6b2ca30684)"><g clip-path="url(#65fbcdfac2)"><g clip-path="url(#b2f360a5b2)"><path fill="#ffffff" d="M 30.210938 14.335938 L 32.464844 12.078125 L 44.929688 24.542969 L 42.675781 26.800781 Z M 30.210938 14.335938 " fill-opacity="1" fill-rule="nonzero"/></g></g></g><g clip-path="url(#3f638a15ec)"><g clip-path="url(#d255fbe285)"><g clip-path="url(#016a9b734b)"><path fill="#ffffff" d="M 43.417969 12.902344 L 45.671875 15.15625 L 33.207031 27.621094 L 30.953125 25.367188 Z M 43.417969 12.902344 " fill-opacity="1" fill-rule="nonzero"/></g></g></g><g fill="#8c52ff" fill-opacity="1"><g transform="translate(60.684099, 27.213731)"><g><path d="M 0.6875 -2.921875 C 0.65625 -3.148438 0.640625 -3.335938 0.640625 -3.484375 C 0.648438 -3.640625 0.695312 -3.769531 0.78125 -3.875 C 0.863281 -3.976562 1 -4.0625 1.1875 -4.125 C 1.375 -4.195312 1.625 -4.265625 1.9375 -4.328125 C 2.269531 -4.378906 2.539062 -4.410156 2.75 -4.421875 C 2.957031 -4.429688 3.125 -4.398438 3.25 -4.328125 C 3.382812 -4.265625 3.484375 -4.15625 3.546875 -4 C 3.617188 -3.84375 3.671875 -3.625 3.703125 -3.34375 C 3.765625 -2.894531 3.832031 -2.484375 3.90625 -2.109375 C 3.988281 -1.734375 4.085938 -1.40625 4.203125 -1.125 C 4.328125 -0.84375 4.472656 -0.625 4.640625 -0.46875 C 4.816406 -0.3125 5.023438 -0.234375 5.265625 -0.234375 C 6.003906 -0.234375 6.519531 -0.519531 6.8125 -1.09375 C 7.101562 -1.664062 7.25 -2.460938 7.25 -3.484375 L 7.25 -12.203125 C 7.25 -12.390625 7.300781 -12.5625 7.40625 -12.71875 C 7.519531 -12.875 7.703125 -12.953125 7.953125 -12.953125 L 9.78125 -12.953125 C 9.988281 -12.953125 10.160156 -12.878906 10.296875 -12.734375 C 10.441406 -12.585938 10.515625 -12.410156 10.515625 -12.203125 L 10.515625 -3.71875 C 10.515625 -2.832031 10.351562 -2.097656 10.03125 -1.515625 C 9.71875 -0.929688 9.304688 -0.460938 8.796875 -0.109375 C 8.296875 0.242188 7.71875 0.492188 7.0625 0.640625 C 6.414062 0.785156 5.765625 0.859375 5.109375 0.859375 C 4.535156 0.859375 4.003906 0.785156 3.515625 0.640625 C 3.035156 0.503906 2.601562 0.285156 2.21875 -0.015625 C 1.84375 -0.316406 1.523438 -0.707031 1.265625 -1.1875 C 1.003906 -1.664062 0.8125 -2.242188 0.6875 -2.921875 Z M 0.6875 -2.921875 "/></g></g></g><g fill="#8c52ff" fill-opacity="1"><g transform="translate(71.578527, 27.213731)"><g><path d="M 1.3125 -12.203125 C 1.3125 -12.390625 1.363281 -12.5625 1.46875 -12.71875 C 1.582031 -12.875 1.765625 -12.953125 2.015625 -12.953125 L 3.84375 -12.953125 C 4.050781 -12.953125 4.222656 -12.878906 4.359375 -12.734375 C 4.503906 -12.585938 4.578125 -12.410156 4.578125 -12.203125 L 4.578125 -0.25 C 4.578125 -0.0507812 4.503906 0.117188 4.359375 0.265625 C 4.222656 0.410156 4.050781 0.484375 3.84375 0.484375 L 2.015625 0.484375 C 1.765625 0.484375 1.582031 0.40625 1.46875 0.25 C 1.363281 0.101562 1.3125 -0.0625 1.3125 -0.25 Z M 1.3125 -12.203125 "/></g></g></g><g fill="#8c52ff" fill-opacity="1"><g transform="translate(77.461516, 27.213731)"><g><path d="M 1.3125 -12.203125 C 1.3125 -12.347656 1.375 -12.507812 1.5 -12.6875 C 1.632812 -12.863281 1.8125 -12.953125 2.03125 -12.953125 L 4.125 -12.953125 C 4.363281 -12.953125 4.585938 -12.828125 4.796875 -12.578125 C 5.015625 -12.328125 5.21875 -12.023438 5.40625 -11.671875 L 10.203125 -2.203125 L 10.203125 -12.203125 C 10.203125 -12.390625 10.253906 -12.5625 10.359375 -12.71875 C 10.472656 -12.875 10.65625 -12.953125 10.90625 -12.953125 L 12.75 -12.953125 C 12.945312 -12.953125 13.113281 -12.878906 13.25 -12.734375 C 13.394531 -12.585938 13.46875 -12.410156 13.46875 -12.203125 L 13.46875 -0.234375 C 13.46875 0.046875 13.394531 0.234375 13.25 0.328125 C 13.101562 0.429688 12.9375 0.484375 12.75 0.484375 L 10.890625 0.484375 C 10.722656 0.484375 10.578125 0.472656 10.453125 0.453125 C 10.335938 0.429688 10.222656 0.375 10.109375 0.28125 C 10.003906 0.1875 9.894531 0.0546875 9.78125 -0.109375 C 9.664062 -0.285156 9.53125 -0.535156 9.375 -0.859375 L 4.578125 -10.53125 L 4.578125 -0.25 C 4.578125 -0.0507812 4.503906 0.117188 4.359375 0.265625 C 4.222656 0.410156 4.050781 0.484375 3.84375 0.484375 L 2.015625 0.484375 C 1.765625 0.484375 1.582031 0.40625 1.46875 0.25 C 1.363281 0.101562 1.3125 -0.0625 1.3125 -0.25 Z M 1.3125 -12.203125 "/></g></g></g><g fill="#8c52ff" fill-opacity="1"><g transform="translate(92.241624, 27.213731)"><g><path d="M 0.828125 -6.25 C 0.828125 -7.300781 0.984375 -8.257812 1.296875 -9.125 C 1.617188 -10 2.078125 -10.742188 2.671875 -11.359375 C 3.273438 -11.984375 4.015625 -12.460938 4.890625 -12.796875 C 5.765625 -13.140625 6.757812 -13.3125 7.875 -13.3125 C 8.65625 -13.3125 9.359375 -13.222656 9.984375 -13.046875 C 10.617188 -12.867188 11.164062 -12.628906 11.625 -12.328125 C 12.082031 -12.023438 12.445312 -11.671875 12.71875 -11.265625 C 13 -10.859375 13.175781 -10.421875 13.25 -9.953125 C 13.289062 -9.710938 13.242188 -9.503906 13.109375 -9.328125 C 12.972656 -9.148438 12.632812 -9 12.09375 -8.875 C 11.4375 -8.726562 10.972656 -8.679688 10.703125 -8.734375 C 10.441406 -8.796875 10.300781 -8.984375 10.28125 -9.296875 C 10.25 -9.691406 10.1875 -10.066406 10.09375 -10.421875 C 10 -10.785156 9.859375 -11.097656 9.671875 -11.359375 C 9.484375 -11.628906 9.238281 -11.835938 8.9375 -11.984375 C 8.632812 -12.140625 8.269531 -12.21875 7.84375 -12.21875 C 7.289062 -12.21875 6.800781 -12.054688 6.375 -11.734375 C 5.957031 -11.410156 5.609375 -10.976562 5.328125 -10.4375 C 5.046875 -9.90625 4.832031 -9.28125 4.6875 -8.5625 C 4.539062 -7.851562 4.46875 -7.101562 4.46875 -6.3125 C 4.46875 -5.476562 4.539062 -4.691406 4.6875 -3.953125 C 4.832031 -3.210938 5.050781 -2.566406 5.34375 -2.015625 C 5.632812 -1.472656 5.992188 -1.039062 6.421875 -0.71875 C 6.847656 -0.394531 7.351562 -0.234375 7.9375 -0.234375 C 8.257812 -0.234375 8.566406 -0.257812 8.859375 -0.3125 C 9.160156 -0.375 9.425781 -0.457031 9.65625 -0.5625 C 9.894531 -0.664062 10.082031 -0.800781 10.21875 -0.96875 C 10.363281 -1.132812 10.4375 -1.332031 10.4375 -1.5625 L 10.4375 -5.046875 L 8.3125 -5.046875 C 8.0625 -5.046875 7.898438 -5.082031 7.828125 -5.15625 C 7.765625 -5.226562 7.734375 -5.375 7.734375 -5.59375 C 7.734375 -5.832031 7.769531 -5.984375 7.84375 -6.046875 C 7.925781 -6.109375 8.085938 -6.140625 8.328125 -6.140625 L 13 -6.140625 C 13.269531 -6.140625 13.453125 -6.109375 13.546875 -6.046875 C 13.648438 -5.984375 13.703125 -5.773438 13.703125 -5.421875 L 13.703125 -1.9375 C 13.703125 -1.539062 13.5625 -1.171875 13.28125 -0.828125 C 13 -0.484375 12.597656 -0.1875 12.078125 0.0625 C 11.566406 0.3125 10.941406 0.503906 10.203125 0.640625 C 9.460938 0.785156 8.640625 0.859375 7.734375 0.859375 C 6.710938 0.859375 5.78125 0.6875 4.9375 0.34375 C 4.09375 0.0078125 3.363281 -0.460938 2.75 -1.078125 C 2.132812 -1.703125 1.660156 -2.445312 1.328125 -3.3125 C 0.992188 -4.1875 0.828125 -5.164062 0.828125 -6.25 Z M 0.828125 -6.25 "/></g></g></g><g fill="#8c52ff" fill-opacity="1"><g transform="translate(106.785688, 27.213731)"><g><path d="M 1.3125 -12.203125 C 1.3125 -12.390625 1.363281 -12.5625 1.46875 -12.71875 C 1.582031 -12.875 1.765625 -12.953125 2.015625 -12.953125 L 3.84375 -12.953125 C 4.050781 -12.953125 4.222656 -12.878906 4.359375 -12.734375 C 4.503906 -12.585938 4.578125 -12.410156 4.578125 -12.203125 L 4.578125 -6.859375 L 9.390625 -6.859375 L 9.390625 -12.203125 C 9.390625 -12.390625 9.441406 -12.5625 9.546875 -12.71875 C 9.660156 -12.875 9.84375 -12.953125 10.09375 -12.953125 L 11.921875 -12.953125 C 12.128906 -12.953125 12.300781 -12.878906 12.4375 -12.734375 C 12.582031 -12.585938 12.65625 -12.410156 12.65625 -12.203125 L 12.65625 -0.25 C 12.65625 -0.0507812 12.582031 0.117188 12.4375 0.265625 C 12.300781 0.410156 12.128906 0.484375 11.921875 0.484375 L 10.09375 0.484375 C 9.84375 0.484375 9.660156 0.40625 9.546875 0.25 C 9.441406 0.101562 9.390625 -0.0625 9.390625 -0.25 L 9.390625 -5.78125 L 4.578125 -5.78125 L 4.578125 -0.25 C 4.578125 -0.0507812 4.503906 0.117188 4.359375 0.265625 C 4.222656 0.410156 4.050781 0.484375 3.84375 0.484375 L 2.015625 0.484375 C 1.765625 0.484375 1.582031 0.40625 1.46875 0.25 C 1.363281 0.101562 1.3125 -0.0625 1.3125 -0.25 Z M 1.3125 -12.203125 "/></g></g></g><g fill="#8c52ff" fill-opacity="1"><g transform="translate(120.748711, 27.213731)"><g><path d="M 7.53125 -6.234375 L 10.78125 -0.4375 C 10.945312 -0.15625 10.988281 0.0664062 10.90625 0.234375 C 10.832031 0.398438 10.640625 0.484375 10.328125 0.484375 L 8.4375 0.484375 C 8.238281 0.484375 8.070312 0.445312 7.9375 0.375 C 7.800781 0.300781 7.6875 0.179688 7.59375 0.015625 L 5.8125 -3.15625 L 4.015625 0.015625 C 3.921875 0.179688 3.804688 0.300781 3.671875 0.375 C 3.535156 0.445312 3.363281 0.484375 3.15625 0.484375 L 1.265625 0.484375 C 0.953125 0.484375 0.753906 0.398438 0.671875 0.234375 C 0.597656 0.0664062 0.644531 -0.15625 0.8125 -0.4375 L 4.0625 -6.234375 L 0.8125 -12.015625 C 0.644531 -12.296875 0.597656 -12.519531 0.671875 -12.6875 C 0.753906 -12.863281 0.953125 -12.953125 1.265625 -12.953125 L 3.15625 -12.953125 C 3.363281 -12.953125 3.535156 -12.914062 3.671875 -12.84375 C 3.804688 -12.769531 3.921875 -12.644531 4.015625 -12.46875 L 5.8125 -9.296875 L 7.59375 -12.46875 C 7.6875 -12.644531 7.800781 -12.769531 7.9375 -12.84375 C 8.070312 -12.914062 8.238281 -12.953125 8.4375 -12.953125 L 10.328125 -12.953125 C 10.640625 -12.953125 10.832031 -12.863281 10.90625 -12.6875 C 10.988281 -12.519531 10.945312 -12.296875 10.78125 -12.015625 Z M 7.53125 -6.234375 "/></g></g></g><g fill="#8c52ff" fill-opacity="1"><g transform="translate(132.351277, 27.213731)"><g><path d="M 1.53125 -1.421875 C 1.53125 -1.546875 1.570312 -1.65625 1.65625 -1.75 C 1.75 -1.84375 1.863281 -1.890625 2 -1.890625 L 3.40625 -1.890625 C 3.539062 -1.890625 3.65625 -1.84375 3.75 -1.75 C 3.84375 -1.65625 3.890625 -1.546875 3.890625 -1.421875 L 3.890625 0 C 3.878906 0.132812 3.828125 0.242188 3.734375 0.328125 C 3.648438 0.421875 3.539062 0.46875 3.40625 0.46875 L 2 0.46875 C 1.863281 0.46875 1.75 0.421875 1.65625 0.328125 C 1.570312 0.242188 1.53125 0.132812 1.53125 0 Z M 1.53125 -1.421875 "/></g></g></g><g fill="#8c52ff" fill-opacity="1"><g transform="translate(137.762174, 27.213731)"><g><path d="M 0.828125 -6.234375 C 0.828125 -7.328125 1 -8.300781 1.34375 -9.15625 C 1.6875 -10.019531 2.148438 -10.742188 2.734375 -11.328125 C 3.316406 -11.921875 4.003906 -12.367188 4.796875 -12.671875 C 5.585938 -12.972656 6.441406 -13.125 7.359375 -13.125 C 8.003906 -13.125 8.644531 -13.046875 9.28125 -12.890625 C 9.914062 -12.734375 10.492188 -12.488281 11.015625 -12.15625 C 11.535156 -11.832031 11.972656 -11.421875 12.328125 -10.921875 C 12.679688 -10.429688 12.90625 -9.847656 13 -9.171875 C 13.050781 -8.804688 12.945312 -8.523438 12.6875 -8.328125 C 12.4375 -8.128906 12.066406 -8.003906 11.578125 -7.953125 C 11.421875 -7.941406 11.253906 -7.929688 11.078125 -7.921875 C 10.910156 -7.921875 10.742188 -7.941406 10.578125 -7.984375 C 10.421875 -8.023438 10.285156 -8.097656 10.171875 -8.203125 C 10.054688 -8.304688 9.976562 -8.460938 9.9375 -8.671875 C 9.8125 -9.234375 9.707031 -9.722656 9.625 -10.140625 C 9.539062 -10.566406 9.414062 -10.921875 9.25 -11.203125 C 9.082031 -11.484375 8.851562 -11.691406 8.5625 -11.828125 C 8.28125 -11.960938 7.878906 -12.03125 7.359375 -12.03125 C 7.003906 -12.03125 6.644531 -11.910156 6.28125 -11.671875 C 5.925781 -11.441406 5.597656 -11.082031 5.296875 -10.59375 C 4.992188 -10.113281 4.75 -9.5 4.5625 -8.75 C 4.375 -8.007812 4.28125 -7.132812 4.28125 -6.125 C 4.28125 -5.320312 4.332031 -4.570312 4.4375 -3.875 C 4.550781 -3.175781 4.734375 -2.570312 4.984375 -2.0625 C 5.234375 -1.550781 5.550781 -1.148438 5.9375 -0.859375 C 6.320312 -0.566406 6.796875 -0.421875 7.359375 -0.421875 C 7.878906 -0.421875 8.289062 -0.546875 8.59375 -0.796875 C 8.90625 -1.054688 9.148438 -1.363281 9.328125 -1.71875 C 9.515625 -2.082031 9.648438 -2.46875 9.734375 -2.875 C 9.816406 -3.28125 9.90625 -3.632812 10 -3.9375 C 10.101562 -4.25 10.300781 -4.445312 10.59375 -4.53125 C 10.882812 -4.625 11.285156 -4.582031 11.796875 -4.40625 C 12.203125 -4.28125 12.53125 -4.132812 12.78125 -3.96875 C 13.03125 -3.800781 13.128906 -3.566406 13.078125 -3.265625 C 12.960938 -2.785156 12.765625 -2.304688 12.484375 -1.828125 C 12.203125 -1.359375 11.820312 -0.9375 11.34375 -0.5625 C 10.875 -0.195312 10.304688 0.0976562 9.640625 0.328125 C 8.972656 0.554688 8.210938 0.671875 7.359375 0.671875 C 6.253906 0.671875 5.289062 0.492188 4.46875 0.140625 C 3.65625 -0.203125 2.976562 -0.679688 2.4375 -1.296875 C 1.90625 -1.921875 1.503906 -2.648438 1.234375 -3.484375 C 0.960938 -4.328125 0.828125 -5.242188 0.828125 -6.234375 Z M 0.828125 -6.234375 "/></g></g></g><g fill="#8c52ff" fill-opacity="1"><g transform="translate(151.707041, 27.213731)"><g><path d="M 1.3125 -12.203125 C 1.3125 -12.347656 1.375 -12.507812 1.5 -12.6875 C 1.632812 -12.863281 1.8125 -12.953125 2.03125 -12.953125 L 4.125 -12.953125 C 4.363281 -12.953125 4.585938 -12.828125 4.796875 -12.578125 C 5.015625 -12.328125 5.21875 -12.023438 5.40625 -11.671875 L 10.203125 -2.203125 L 10.203125 -12.203125 C 10.203125 -12.390625 10.253906 -12.5625 10.359375 -12.71875 C 10.472656 -12.875 10.65625 -12.953125 10.90625 -12.953125 L 12.75 -12.953125 C 12.945312 -12.953125 13.113281 -12.878906 13.25 -12.734375 C 13.394531 -12.585938 13.46875 -12.410156 13.46875 -12.203125 L 13.46875 -0.234375 C 13.46875 0.046875 13.394531 0.234375 13.25 0.328125 C 13.101562 0.429688 12.9375 0.484375 12.75 0.484375 L 10.890625 0.484375 C 10.722656 0.484375 10.578125 0.472656 10.453125 0.453125 C 10.335938 0.429688 10.222656 0.375 10.109375 0.28125 C 10.003906 0.1875 9.894531 0.0546875 9.78125 -0.109375 C 9.664062 -0.285156 9.53125 -0.535156 9.375 -0.859375 L 4.578125 -10.53125 L 4.578125 -0.25 C 4.578125 -0.0507812 4.503906 0.117188 4.359375 0.265625 C 4.222656 0.410156 4.050781 0.484375 3.84375 0.484375 L 2.015625 0.484375 C 1.765625 0.484375 1.582031 0.40625 1.46875 0.25 C 1.363281 0.101562 1.3125 -0.0625 1.3125 -0.25 Z M 1.3125 -12.203125 "/></g></g></g><g fill="#8c52ff" fill-opacity="1"><g transform="translate(13.058467, 44.002416)"><g><path d="M 0.265625 -0.796875 C 0.265625 -1.015625 0.320312 -1.191406 0.4375 -1.328125 C 0.5625 -1.460938 0.710938 -1.570312 0.890625 -1.65625 C 1.078125 -1.738281 1.273438 -1.800781 1.484375 -1.84375 C 1.703125 -1.894531 1.898438 -1.941406 2.078125 -1.984375 C 2.128906 -2.003906 2.210938 -2.03125 2.328125 -2.0625 C 2.441406 -2.09375 2.554688 -2.128906 2.671875 -2.171875 C 2.671875 -2.484375 2.625 -2.722656 2.53125 -2.890625 C 2.445312 -3.066406 2.28125 -3.15625 2.03125 -3.15625 C 1.90625 -3.15625 1.804688 -3.140625 1.734375 -3.109375 C 1.671875 -3.078125 1.617188 -3.03125 1.578125 -2.96875 C 1.535156 -2.90625 1.5 -2.820312 1.46875 -2.71875 C 1.4375 -2.625 1.394531 -2.519531 1.34375 -2.40625 C 1.3125 -2.351562 1.285156 -2.304688 1.265625 -2.265625 C 1.242188 -2.234375 1.210938 -2.207031 1.171875 -2.1875 C 1.140625 -2.164062 1.09375 -2.148438 1.03125 -2.140625 C 0.976562 -2.128906 0.90625 -2.132812 0.8125 -2.15625 C 0.632812 -2.175781 0.519531 -2.207031 0.46875 -2.25 C 0.414062 -2.289062 0.398438 -2.375 0.421875 -2.5 C 0.460938 -2.6875 0.535156 -2.84375 0.640625 -2.96875 C 0.742188 -3.101562 0.867188 -3.207031 1.015625 -3.28125 C 1.160156 -3.351562 1.316406 -3.40625 1.484375 -3.4375 C 1.660156 -3.46875 1.84375 -3.484375 2.03125 -3.484375 C 2.34375 -3.484375 2.597656 -3.457031 2.796875 -3.40625 C 3.003906 -3.351562 3.164062 -3.269531 3.28125 -3.15625 C 3.40625 -3.039062 3.488281 -2.894531 3.53125 -2.71875 C 3.582031 -2.550781 3.609375 -2.359375 3.609375 -2.140625 L 3.59375 -1.03125 C 3.59375 -0.925781 3.597656 -0.832031 3.609375 -0.75 C 3.617188 -0.675781 3.632812 -0.609375 3.65625 -0.546875 C 3.675781 -0.484375 3.691406 -0.421875 3.703125 -0.359375 C 3.722656 -0.304688 3.75 -0.25 3.78125 -0.1875 C 3.800781 -0.09375 3.796875 -0.0234375 3.765625 0.015625 C 3.742188 0.0664062 3.660156 0.125 3.515625 0.1875 C 3.328125 0.257812 3.1875 0.285156 3.09375 0.265625 C 3.007812 0.253906 2.9375 0.207031 2.875 0.125 C 2.84375 0.0703125 2.8125 0.0234375 2.78125 -0.015625 C 2.75 -0.0664062 2.710938 -0.144531 2.671875 -0.25 C 2.503906 -0.101562 2.332031 0.015625 2.15625 0.109375 C 1.976562 0.203125 1.742188 0.25 1.453125 0.25 C 1.285156 0.25 1.128906 0.222656 0.984375 0.171875 C 0.835938 0.117188 0.710938 0.0507812 0.609375 -0.03125 C 0.503906 -0.125 0.421875 -0.234375 0.359375 -0.359375 C 0.296875 -0.484375 0.265625 -0.628906 0.265625 -0.796875 Z M 1.21875 -0.78125 C 1.21875 -0.625 1.226562 -0.5 1.25 -0.40625 C 1.28125 -0.320312 1.320312 -0.253906 1.375 -0.203125 C 1.425781 -0.160156 1.484375 -0.132812 1.546875 -0.125 C 1.617188 -0.113281 1.6875 -0.109375 1.75 -0.109375 C 1.875 -0.117188 1.992188 -0.144531 2.109375 -0.1875 C 2.222656 -0.238281 2.320312 -0.300781 2.40625 -0.375 C 2.488281 -0.457031 2.550781 -0.550781 2.59375 -0.65625 C 2.644531 -0.757812 2.671875 -0.882812 2.671875 -1.03125 L 2.671875 -1.859375 C 2.566406 -1.804688 2.460938 -1.757812 2.359375 -1.71875 C 2.253906 -1.6875 2.132812 -1.648438 2 -1.609375 C 1.84375 -1.554688 1.710938 -1.503906 1.609375 -1.453125 C 1.515625 -1.410156 1.4375 -1.359375 1.375 -1.296875 C 1.3125 -1.234375 1.269531 -1.160156 1.25 -1.078125 C 1.226562 -0.992188 1.21875 -0.894531 1.21875 -0.78125 Z M 1.21875 -0.78125 "/></g></g></g><g fill="#8c52ff" fill-opacity="1"><g transform="translate(17.115341, 44.002416)"><g/></g></g><g fill="#8c52ff" fill-opacity="1"><g transform="translate(21.105711, 44.002416)"><g><path d="M 0.421875 -3.15625 C 0.421875 -3.332031 0.507812 -3.421875 0.6875 -3.421875 L 1.140625 -3.421875 C 1.234375 -3.421875 1.296875 -3.390625 1.328125 -3.328125 C 1.359375 -3.265625 1.375 -3.207031 1.375 -3.15625 L 1.375 -2.828125 C 1.457031 -3.015625 1.585938 -3.171875 1.765625 -3.296875 C 1.941406 -3.421875 2.144531 -3.484375 2.375 -3.484375 C 2.675781 -3.484375 2.9375 -3.410156 3.15625 -3.265625 C 3.375 -3.128906 3.519531 -2.941406 3.59375 -2.703125 C 3.726562 -2.941406 3.890625 -3.128906 4.078125 -3.265625 C 4.265625 -3.410156 4.492188 -3.484375 4.765625 -3.484375 C 5.003906 -3.484375 5.203125 -3.445312 5.359375 -3.375 C 5.515625 -3.3125 5.640625 -3.21875 5.734375 -3.09375 C 5.835938 -2.96875 5.910156 -2.8125 5.953125 -2.625 C 6.003906 -2.445312 6.03125 -2.238281 6.03125 -2 L 6.03125 -0.0625 C 6.03125 0.101562 5.957031 0.1875 5.8125 0.1875 L 5.3125 0.1875 C 5.25 0.1875 5.191406 0.164062 5.140625 0.125 C 5.097656 0.09375 5.078125 0.03125 5.078125 -0.0625 L 5.078125 -2.21875 C 5.078125 -2.519531 5.03125 -2.738281 4.9375 -2.875 C 4.851562 -3.019531 4.722656 -3.09375 4.546875 -3.09375 C 4.453125 -3.09375 4.359375 -3.0625 4.265625 -3 C 4.171875 -2.945312 4.082031 -2.878906 4 -2.796875 C 3.925781 -2.722656 3.859375 -2.640625 3.796875 -2.546875 C 3.742188 -2.453125 3.710938 -2.367188 3.703125 -2.296875 L 3.703125 -0.0625 C 3.703125 0.101562 3.628906 0.1875 3.484375 0.1875 L 2.984375 0.1875 C 2.910156 0.1875 2.851562 0.164062 2.8125 0.125 C 2.769531 0.09375 2.75 0.03125 2.75 -0.0625 L 2.75 -2.21875 C 2.75 -2.519531 2.703125 -2.738281 2.609375 -2.875 C 2.523438 -3.019531 2.375 -3.09375 2.15625 -3.09375 C 2.0625 -3.09375 1.96875 -3.0625 1.875 -3 C 1.789062 -2.945312 1.710938 -2.882812 1.640625 -2.8125 C 1.566406 -2.738281 1.503906 -2.65625 1.453125 -2.5625 C 1.410156 -2.46875 1.382812 -2.378906 1.375 -2.296875 L 1.375 -0.0625 C 1.375 0.101562 1.300781 0.1875 1.15625 0.1875 L 0.65625 0.1875 C 0.582031 0.1875 0.523438 0.164062 0.484375 0.125 C 0.441406 0.09375 0.421875 0.03125 0.421875 -0.0625 Z M 0.421875 -3.15625 "/></g></g></g><g fill="#8c52ff" fill-opacity="1"><g transform="translate(27.556801, 44.002416)"><g><path d="M 0.421875 -3.171875 C 0.421875 -3.335938 0.492188 -3.421875 0.640625 -3.421875 L 1.203125 -3.421875 C 1.273438 -3.421875 1.332031 -3.398438 1.375 -3.359375 C 1.414062 -3.328125 1.4375 -3.265625 1.4375 -3.171875 L 1.4375 -1.03125 C 1.4375 -0.875 1.4375 -0.738281 1.4375 -0.625 C 1.445312 -0.519531 1.46875 -0.429688 1.5 -0.359375 C 1.53125 -0.285156 1.578125 -0.234375 1.640625 -0.203125 C 1.710938 -0.171875 1.8125 -0.15625 1.9375 -0.15625 C 2.019531 -0.15625 2.097656 -0.179688 2.171875 -0.234375 C 2.253906 -0.285156 2.328125 -0.347656 2.390625 -0.421875 C 2.453125 -0.503906 2.507812 -0.597656 2.5625 -0.703125 C 2.613281 -0.804688 2.65625 -0.910156 2.6875 -1.015625 L 2.6875 -3.171875 C 2.6875 -3.335938 2.757812 -3.421875 2.90625 -3.421875 L 3.46875 -3.421875 C 3.539062 -3.421875 3.597656 -3.398438 3.640625 -3.359375 C 3.679688 -3.328125 3.703125 -3.265625 3.703125 -3.171875 L 3.703125 -0.09375 C 3.703125 0.09375 3.613281 0.1875 3.4375 0.1875 L 2.921875 0.1875 C 2.828125 0.1875 2.765625 0.15625 2.734375 0.09375 C 2.703125 0.03125 2.6875 -0.03125 2.6875 -0.09375 L 2.6875 -0.40625 C 2.625 -0.269531 2.550781 -0.160156 2.46875 -0.078125 C 2.382812 0.00390625 2.296875 0.0664062 2.203125 0.109375 C 2.109375 0.160156 2.015625 0.195312 1.921875 0.21875 C 1.835938 0.238281 1.769531 0.25 1.71875 0.25 C 1.46875 0.25 1.257812 0.210938 1.09375 0.140625 C 0.9375 0.078125 0.804688 -0.015625 0.703125 -0.140625 C 0.597656 -0.265625 0.523438 -0.421875 0.484375 -0.609375 C 0.441406 -0.796875 0.421875 -1.007812 0.421875 -1.25 Z M 0.421875 -3.171875 "/></g></g></g><g fill="#8c52ff" fill-opacity="1"><g transform="translate(31.547172, 44.002416)"><g><path d="M 0.25 -1.65625 C 0.25 -1.957031 0.285156 -2.222656 0.359375 -2.453125 C 0.441406 -2.679688 0.550781 -2.867188 0.6875 -3.015625 C 0.832031 -3.171875 0.992188 -3.285156 1.171875 -3.359375 C 1.359375 -3.441406 1.5625 -3.484375 1.78125 -3.484375 C 1.851562 -3.484375 1.9375 -3.476562 2.03125 -3.46875 C 2.132812 -3.457031 2.238281 -3.429688 2.34375 -3.390625 C 2.445312 -3.347656 2.546875 -3.28125 2.640625 -3.1875 C 2.734375 -3.09375 2.820312 -2.96875 2.90625 -2.8125 L 2.90625 -4.546875 C 2.90625 -4.597656 2.914062 -4.65625 2.9375 -4.71875 C 2.96875 -4.78125 3.035156 -4.8125 3.140625 -4.8125 L 3.578125 -4.8125 C 3.753906 -4.8125 3.84375 -4.722656 3.84375 -4.546875 L 3.84375 -0.0625 C 3.84375 0.03125 3.820312 0.09375 3.78125 0.125 C 3.738281 0.164062 3.679688 0.1875 3.609375 0.1875 L 3.125 0.1875 C 2.976562 0.1875 2.90625 0.101562 2.90625 -0.0625 L 2.90625 -0.484375 C 2.820312 -0.328125 2.734375 -0.195312 2.640625 -0.09375 C 2.554688 0 2.460938 0.0703125 2.359375 0.125 C 2.265625 0.175781 2.164062 0.207031 2.0625 0.21875 C 1.96875 0.238281 1.878906 0.25 1.796875 0.25 C 1.554688 0.25 1.34375 0.203125 1.15625 0.109375 C 0.96875 0.015625 0.804688 -0.113281 0.671875 -0.28125 C 0.535156 -0.445312 0.429688 -0.644531 0.359375 -0.875 C 0.285156 -1.113281 0.25 -1.375 0.25 -1.65625 Z M 1.203125 -1.640625 C 1.203125 -1.410156 1.222656 -1.203125 1.265625 -1.015625 C 1.304688 -0.835938 1.363281 -0.679688 1.4375 -0.546875 C 1.507812 -0.410156 1.59375 -0.304688 1.6875 -0.234375 C 1.789062 -0.160156 1.898438 -0.125 2.015625 -0.125 C 2.265625 -0.125 2.46875 -0.253906 2.625 -0.515625 C 2.78125 -0.785156 2.859375 -1.15625 2.859375 -1.625 C 2.859375 -1.882812 2.835938 -2.109375 2.796875 -2.296875 C 2.753906 -2.484375 2.691406 -2.640625 2.609375 -2.765625 C 2.535156 -2.890625 2.445312 -2.984375 2.34375 -3.046875 C 2.238281 -3.109375 2.128906 -3.140625 2.015625 -3.140625 C 1.878906 -3.140625 1.757812 -3.101562 1.65625 -3.03125 C 1.5625 -2.957031 1.476562 -2.851562 1.40625 -2.71875 C 1.332031 -2.582031 1.28125 -2.421875 1.25 -2.234375 C 1.21875 -2.054688 1.203125 -1.859375 1.203125 -1.640625 Z M 1.203125 -1.640625 "/></g></g></g><g fill="#8c52ff" fill-opacity="1"><g transform="translate(35.537542, 44.002416)"><g><path d="M 0.3125 -0.734375 C 0.289062 -0.816406 0.285156 -0.882812 0.296875 -0.9375 C 0.316406 -0.988281 0.34375 -1.023438 0.375 -1.046875 C 0.414062 -1.066406 0.460938 -1.082031 0.515625 -1.09375 C 0.566406 -1.101562 0.625 -1.109375 0.6875 -1.109375 C 0.863281 -1.109375 0.984375 -1.09375 1.046875 -1.0625 C 1.117188 -1.039062 1.164062 -0.976562 1.1875 -0.875 C 1.207031 -0.78125 1.234375 -0.6875 1.265625 -0.59375 C 1.304688 -0.5 1.351562 -0.414062 1.40625 -0.34375 C 1.457031 -0.269531 1.519531 -0.210938 1.59375 -0.171875 C 1.675781 -0.128906 1.773438 -0.109375 1.890625 -0.109375 C 2.003906 -0.109375 2.097656 -0.125 2.171875 -0.15625 C 2.242188 -0.1875 2.300781 -0.226562 2.34375 -0.28125 C 2.382812 -0.332031 2.410156 -0.394531 2.421875 -0.46875 C 2.441406 -0.539062 2.453125 -0.625 2.453125 -0.71875 C 2.453125 -0.875 2.40625 -1 2.3125 -1.09375 C 2.21875 -1.1875 2.046875 -1.273438 1.796875 -1.359375 C 1.597656 -1.429688 1.410156 -1.5 1.234375 -1.5625 C 1.066406 -1.632812 0.914062 -1.710938 0.78125 -1.796875 C 0.644531 -1.878906 0.539062 -1.972656 0.46875 -2.078125 C 0.394531 -2.179688 0.359375 -2.3125 0.359375 -2.46875 C 0.359375 -2.601562 0.390625 -2.734375 0.453125 -2.859375 C 0.515625 -2.984375 0.609375 -3.09375 0.734375 -3.1875 C 0.859375 -3.28125 1.007812 -3.351562 1.1875 -3.40625 C 1.363281 -3.457031 1.5625 -3.484375 1.78125 -3.484375 C 2.007812 -3.484375 2.21875 -3.457031 2.40625 -3.40625 C 2.59375 -3.363281 2.75 -3.300781 2.875 -3.21875 C 3.007812 -3.144531 3.109375 -3.046875 3.171875 -2.921875 C 3.242188 -2.804688 3.28125 -2.675781 3.28125 -2.53125 C 3.28125 -2.4375 3.242188 -2.367188 3.171875 -2.328125 C 3.097656 -2.296875 2.960938 -2.28125 2.765625 -2.28125 C 2.585938 -2.28125 2.460938 -2.300781 2.390625 -2.34375 C 2.328125 -2.394531 2.289062 -2.484375 2.28125 -2.609375 C 2.269531 -2.671875 2.253906 -2.734375 2.234375 -2.796875 C 2.222656 -2.859375 2.195312 -2.914062 2.15625 -2.96875 C 2.125 -3.03125 2.078125 -3.078125 2.015625 -3.109375 C 1.960938 -3.140625 1.882812 -3.15625 1.78125 -3.15625 C 1.65625 -3.15625 1.5625 -3.132812 1.5 -3.09375 C 1.4375 -3.0625 1.390625 -3.019531 1.359375 -2.96875 C 1.328125 -2.914062 1.304688 -2.859375 1.296875 -2.796875 C 1.296875 -2.734375 1.296875 -2.671875 1.296875 -2.609375 C 1.296875 -2.503906 1.316406 -2.414062 1.359375 -2.34375 C 1.398438 -2.28125 1.457031 -2.222656 1.53125 -2.171875 C 1.613281 -2.117188 1.707031 -2.070312 1.8125 -2.03125 C 1.925781 -1.988281 2.050781 -1.941406 2.1875 -1.890625 C 2.414062 -1.816406 2.609375 -1.738281 2.765625 -1.65625 C 2.921875 -1.582031 3.046875 -1.503906 3.140625 -1.421875 C 3.234375 -1.335938 3.296875 -1.242188 3.328125 -1.140625 C 3.367188 -1.046875 3.390625 -0.941406 3.390625 -0.828125 C 3.390625 -0.640625 3.347656 -0.476562 3.265625 -0.34375 C 3.191406 -0.207031 3.085938 -0.09375 2.953125 0 C 2.816406 0.0820312 2.648438 0.144531 2.453125 0.1875 C 2.265625 0.226562 2.0625 0.25 1.84375 0.25 C 1.582031 0.25 1.359375 0.21875 1.171875 0.15625 C 0.992188 0.101562 0.84375 0.03125 0.71875 -0.0625 C 0.601562 -0.15625 0.507812 -0.257812 0.4375 -0.375 C 0.375 -0.5 0.332031 -0.617188 0.3125 -0.734375 Z M 0.3125 -0.734375 "/></g></g></g><g fill="#8c52ff" fill-opacity="1"><g transform="translate(39.221978, 44.002416)"><g><path d="M 0.421875 -4.546875 C 0.421875 -4.722656 0.507812 -4.8125 0.6875 -4.8125 L 1.203125 -4.8125 C 1.296875 -4.8125 1.359375 -4.78125 1.390625 -4.71875 C 1.421875 -4.65625 1.4375 -4.597656 1.4375 -4.546875 L 1.4375 -0.0625 C 1.4375 0.101562 1.363281 0.1875 1.21875 0.1875 L 0.65625 0.1875 C 0.582031 0.1875 0.523438 0.164062 0.484375 0.125 C 0.441406 0.09375 0.421875 0.03125 0.421875 -0.0625 Z M 0.421875 -4.546875 "/></g></g></g><g fill="#8c52ff" fill-opacity="1"><g transform="translate(41.084153, 44.002416)"><g><path d="M 0.40625 -4.40625 C 0.40625 -4.5625 0.441406 -4.664062 0.515625 -4.71875 C 0.585938 -4.78125 0.726562 -4.8125 0.9375 -4.8125 C 1.050781 -4.8125 1.140625 -4.804688 1.203125 -4.796875 C 1.265625 -4.785156 1.316406 -4.765625 1.359375 -4.734375 C 1.398438 -4.703125 1.425781 -4.660156 1.4375 -4.609375 C 1.457031 -4.554688 1.46875 -4.488281 1.46875 -4.40625 C 1.46875 -4.3125 1.457031 -4.234375 1.4375 -4.171875 C 1.425781 -4.117188 1.398438 -4.078125 1.359375 -4.046875 C 1.316406 -4.023438 1.265625 -4.007812 1.203125 -4 C 1.140625 -3.988281 1.050781 -3.984375 0.9375 -3.984375 C 0.832031 -3.984375 0.742188 -3.984375 0.671875 -3.984375 C 0.597656 -3.992188 0.539062 -4.015625 0.5 -4.046875 C 0.46875 -4.078125 0.441406 -4.117188 0.421875 -4.171875 C 0.410156 -4.234375 0.40625 -4.3125 0.40625 -4.40625 Z M 0.421875 -3.15625 C 0.421875 -3.332031 0.507812 -3.421875 0.6875 -3.421875 L 1.203125 -3.421875 C 1.296875 -3.421875 1.359375 -3.390625 1.390625 -3.328125 C 1.421875 -3.265625 1.4375 -3.207031 1.4375 -3.15625 L 1.4375 -0.0625 C 1.4375 0.101562 1.363281 0.1875 1.21875 0.1875 L 0.65625 0.1875 C 0.582031 0.1875 0.523438 0.164062 0.484375 0.125 C 0.441406 0.09375 0.421875 0.03125 0.421875 -0.0625 Z M 0.421875 -3.15625 "/></g></g></g><g fill="#8c52ff" fill-opacity="1"><g transform="translate(42.946328, 44.002416)"><g><path d="M 0.25 -1.65625 C 0.25 -1.957031 0.285156 -2.222656 0.359375 -2.453125 C 0.441406 -2.679688 0.550781 -2.867188 0.6875 -3.015625 C 0.832031 -3.171875 0.992188 -3.285156 1.171875 -3.359375 C 1.359375 -3.441406 1.5625 -3.484375 1.78125 -3.484375 C 1.851562 -3.484375 1.9375 -3.476562 2.03125 -3.46875 C 2.132812 -3.457031 2.238281 -3.429688 2.34375 -3.390625 C 2.445312 -3.347656 2.546875 -3.28125 2.640625 -3.1875 C 2.734375 -3.09375 2.820312 -2.96875 2.90625 -2.8125 L 2.90625 -4.546875 C 2.90625 -4.597656 2.914062 -4.65625 2.9375 -4.71875 C 2.96875 -4.78125 3.035156 -4.8125 3.140625 -4.8125 L 3.578125 -4.8125 C 3.753906 -4.8125 3.84375 -4.722656 3.84375 -4.546875 L 3.84375 -0.0625 C 3.84375 0.03125 3.820312 0.09375 3.78125 0.125 C 3.738281 0.164062 3.679688 0.1875 3.609375 0.1875 L 3.125 0.1875 C 2.976562 0.1875 2.90625 0.101562 2.90625 -0.0625 L 2.90625 -0.484375 C 2.820312 -0.328125 2.734375 -0.195312 2.640625 -0.09375 C 2.554688 0 2.460938 0.0703125 2.359375 0.125 C 2.265625 0.175781 2.164062 0.207031 2.0625 0.21875 C 1.96875 0.238281 1.878906 0.25 1.796875 0.25 C 1.554688 0.25 1.34375 0.203125 1.15625 0.109375 C 0.96875 0.015625 0.804688 -0.113281 0.671875 -0.28125 C 0.535156 -0.445312 0.429688 -0.644531 0.359375 -0.875 C 0.285156 -1.113281 0.25 -1.375 0.25 -1.65625 Z M 1.203125 -1.640625 C 1.203125 -1.410156 1.222656 -1.203125 1.265625 -1.015625 C 1.304688 -0.835938 1.363281 -0.679688 1.4375 -0.546875 C 1.507812 -0.410156 1.59375 -0.304688 1.6875 -0.234375 C 1.789062 -0.160156 1.898438 -0.125 2.015625 -0.125 C 2.265625 -0.125 2.46875 -0.253906 2.625 -0.515625 C 2.78125 -0.785156 2.859375 -1.15625 2.859375 -1.625 C 2.859375 -1.882812 2.835938 -2.109375 2.796875 -2.296875 C 2.753906 -2.484375 2.691406 -2.640625 2.609375 -2.765625 C 2.535156 -2.890625 2.445312 -2.984375 2.34375 -3.046875 C 2.238281 -3.109375 2.128906 -3.140625 2.015625 -3.140625 C 1.878906 -3.140625 1.757812 -3.101562 1.65625 -3.03125 C 1.5625 -2.957031 1.476562 -2.851562 1.40625 -2.71875 C 1.332031 -2.582031 1.28125 -2.421875 1.25 -2.234375 C 1.21875 -2.054688 1.203125 -1.859375 1.203125 -1.640625 Z M 1.203125 -1.640625 "/></g></g></g><g fill="#8c52ff" fill-opacity="1"><g transform="translate(46.936699, 44.002416)"><g><path d="M 0.25 -1.625 C 0.25 -1.945312 0.296875 -2.222656 0.390625 -2.453125 C 0.492188 -2.691406 0.628906 -2.882812 0.796875 -3.03125 C 0.960938 -3.1875 1.15625 -3.300781 1.375 -3.375 C 1.59375 -3.445312 1.820312 -3.484375 2.0625 -3.484375 C 2.332031 -3.484375 2.570312 -3.4375 2.78125 -3.34375 C 2.988281 -3.257812 3.164062 -3.144531 3.3125 -3 C 3.457031 -2.851562 3.566406 -2.6875 3.640625 -2.5 C 3.722656 -2.320312 3.757812 -2.132812 3.75 -1.9375 C 3.75 -1.75 3.703125 -1.625 3.609375 -1.5625 C 3.515625 -1.507812 3.378906 -1.484375 3.203125 -1.484375 L 1.28125 -1.484375 C 1.28125 -1.335938 1.289062 -1.179688 1.3125 -1.015625 C 1.332031 -0.847656 1.375 -0.695312 1.4375 -0.5625 C 1.5 -0.425781 1.582031 -0.3125 1.6875 -0.21875 C 1.789062 -0.132812 1.929688 -0.09375 2.109375 -0.09375 C 2.234375 -0.09375 2.335938 -0.128906 2.421875 -0.203125 C 2.515625 -0.273438 2.59375 -0.359375 2.65625 -0.453125 C 2.726562 -0.546875 2.785156 -0.644531 2.828125 -0.75 C 2.867188 -0.851562 2.910156 -0.929688 2.953125 -0.984375 C 2.992188 -1.046875 3.050781 -1.082031 3.125 -1.09375 C 3.195312 -1.113281 3.296875 -1.09375 3.421875 -1.03125 C 3.585938 -0.945312 3.679688 -0.867188 3.703125 -0.796875 C 3.734375 -0.734375 3.726562 -0.660156 3.6875 -0.578125 C 3.53125 -0.316406 3.3125 -0.113281 3.03125 0.03125 C 2.757812 0.175781 2.457031 0.25 2.125 0.25 C 1.875 0.25 1.632812 0.210938 1.40625 0.140625 C 1.175781 0.0664062 0.972656 -0.046875 0.796875 -0.203125 C 0.628906 -0.359375 0.492188 -0.550781 0.390625 -0.78125 C 0.296875 -1.019531 0.25 -1.300781 0.25 -1.625 Z M 2.75 -1.828125 C 2.75 -1.984375 2.742188 -2.140625 2.734375 -2.296875 C 2.734375 -2.453125 2.707031 -2.59375 2.65625 -2.71875 C 2.613281 -2.851562 2.546875 -2.957031 2.453125 -3.03125 C 2.359375 -3.113281 2.21875 -3.15625 2.03125 -3.15625 C 1.863281 -3.15625 1.726562 -3.113281 1.625 -3.03125 C 1.53125 -2.945312 1.453125 -2.835938 1.390625 -2.703125 C 1.335938 -2.578125 1.304688 -2.4375 1.296875 -2.28125 C 1.285156 -2.125 1.28125 -1.972656 1.28125 -1.828125 Z M 2.75 -1.828125 "/></g></g></g><g fill="#8c52ff" fill-opacity="1"><g transform="translate(50.933717, 44.002416)"><g/></g></g><g fill="#8c52ff" fill-opacity="1"><g transform="translate(54.924087, 44.002416)"><g><path d="M 0.40625 -4.40625 C 0.40625 -4.5625 0.441406 -4.664062 0.515625 -4.71875 C 0.585938 -4.78125 0.726562 -4.8125 0.9375 -4.8125 C 1.050781 -4.8125 1.140625 -4.804688 1.203125 -4.796875 C 1.265625 -4.785156 1.316406 -4.765625 1.359375 -4.734375 C 1.398438 -4.703125 1.425781 -4.660156 1.4375 -4.609375 C 1.457031 -4.554688 1.46875 -4.488281 1.46875 -4.40625 C 1.46875 -4.3125 1.457031 -4.234375 1.4375 -4.171875 C 1.425781 -4.117188 1.398438 -4.078125 1.359375 -4.046875 C 1.316406 -4.023438 1.265625 -4.007812 1.203125 -4 C 1.140625 -3.988281 1.050781 -3.984375 0.9375 -3.984375 C 0.832031 -3.984375 0.742188 -3.984375 0.671875 -3.984375 C 0.597656 -3.992188 0.539062 -4.015625 0.5 -4.046875 C 0.46875 -4.078125 0.441406 -4.117188 0.421875 -4.171875 C 0.410156 -4.234375 0.40625 -4.3125 0.40625 -4.40625 Z M 0.421875 -3.15625 C 0.421875 -3.332031 0.507812 -3.421875 0.6875 -3.421875 L 1.203125 -3.421875 C 1.296875 -3.421875 1.359375 -3.390625 1.390625 -3.328125 C 1.421875 -3.265625 1.4375 -3.207031 1.4375 -3.15625 L 1.4375 -0.0625 C 1.4375 0.101562 1.363281 0.1875 1.21875 0.1875 L 0.65625 0.1875 C 0.582031 0.1875 0.523438 0.164062 0.484375 0.125 C 0.441406 0.09375 0.421875 0.03125 0.421875 -0.0625 Z M 0.421875 -3.15625 "/></g></g></g><g fill="#8c52ff" fill-opacity="1"><g transform="translate(56.786263, 44.002416)"><g><path d="M 0.421875 -3.15625 C 0.421875 -3.332031 0.507812 -3.421875 0.6875 -3.421875 L 1.140625 -3.421875 C 1.234375 -3.421875 1.296875 -3.390625 1.328125 -3.328125 C 1.359375 -3.265625 1.375 -3.207031 1.375 -3.15625 L 1.375 -2.828125 C 1.394531 -2.898438 1.429688 -2.972656 1.484375 -3.046875 C 1.535156 -3.128906 1.597656 -3.203125 1.671875 -3.265625 C 1.753906 -3.328125 1.847656 -3.378906 1.953125 -3.421875 C 2.054688 -3.460938 2.164062 -3.484375 2.28125 -3.484375 C 2.738281 -3.484375 3.085938 -3.351562 3.328125 -3.09375 C 3.578125 -2.84375 3.703125 -2.476562 3.703125 -2 L 3.703125 -0.0625 C 3.703125 0.101562 3.628906 0.1875 3.484375 0.1875 L 2.984375 0.1875 C 2.910156 0.1875 2.851562 0.164062 2.8125 0.125 C 2.769531 0.09375 2.75 0.03125 2.75 -0.0625 L 2.75 -2.21875 C 2.75 -2.363281 2.734375 -2.488281 2.703125 -2.59375 C 2.671875 -2.707031 2.617188 -2.796875 2.546875 -2.859375 C 2.484375 -2.921875 2.410156 -2.96875 2.328125 -3 C 2.242188 -3.03125 2.15625 -3.046875 2.0625 -3.046875 C 1.957031 -3.046875 1.863281 -3.015625 1.78125 -2.953125 C 1.695312 -2.890625 1.625 -2.8125 1.5625 -2.71875 C 1.5 -2.632812 1.453125 -2.539062 1.421875 -2.4375 C 1.390625 -2.34375 1.375 -2.253906 1.375 -2.171875 L 1.375 -0.0625 C 1.375 0.101562 1.300781 0.1875 1.15625 0.1875 L 0.65625 0.1875 C 0.582031 0.1875 0.523438 0.164062 0.484375 0.125 C 0.441406 0.09375 0.421875 0.03125 0.421875 -0.0625 Z M 0.421875 -3.15625 "/></g></g></g><g fill="#8c52ff" fill-opacity="1"><g transform="translate(60.909639, 44.002416)"><g/></g></g><g fill="#8c52ff" fill-opacity="1"><g transform="translate(64.90001, 44.002416)"><g><path d="M 0.046875 -3.265625 C 0.046875 -3.367188 0.09375 -3.421875 0.1875 -3.421875 L 0.5625 -3.421875 L 0.5625 -4.28125 C 0.5625 -4.351562 0.582031 -4.414062 0.625 -4.46875 C 0.664062 -4.53125 0.734375 -4.5625 0.828125 -4.5625 L 1.3125 -4.5625 C 1.382812 -4.5625 1.445312 -4.535156 1.5 -4.484375 C 1.550781 -4.429688 1.578125 -4.363281 1.578125 -4.28125 L 1.578125 -3.421875 L 2.109375 -3.421875 C 2.203125 -3.421875 2.25 -3.367188 2.25 -3.265625 C 2.25 -3.148438 2.203125 -3.09375 2.109375 -3.09375 L 1.578125 -3.09375 L 1.578125 -0.984375 C 1.578125 -0.710938 1.597656 -0.503906 1.640625 -0.359375 C 1.691406 -0.210938 1.773438 -0.140625 1.890625 -0.140625 C 1.960938 -0.140625 2.039062 -0.148438 2.125 -0.171875 C 2.207031 -0.203125 2.269531 -0.21875 2.3125 -0.21875 C 2.375 -0.21875 2.410156 -0.207031 2.421875 -0.1875 C 2.441406 -0.164062 2.453125 -0.128906 2.453125 -0.078125 C 2.453125 0.00390625 2.4375 0.0546875 2.40625 0.078125 C 2.375 0.0976562 2.335938 0.117188 2.296875 0.140625 C 2.242188 0.171875 2.164062 0.195312 2.0625 0.21875 C 1.957031 0.238281 1.863281 0.25 1.78125 0.25 C 1.332031 0.25 1.015625 0.15625 0.828125 -0.03125 C 0.648438 -0.226562 0.5625 -0.523438 0.5625 -0.921875 L 0.5625 -3.09375 L 0.1875 -3.09375 C 0.09375 -3.09375 0.046875 -3.148438 0.046875 -3.265625 Z M 0.046875 -3.265625 "/></g></g></g><g fill="#8c52ff" fill-opacity="1"><g transform="translate(67.400644, 44.002416)"><g><path d="M 0.421875 -4.546875 C 0.421875 -4.722656 0.507812 -4.8125 0.6875 -4.8125 L 1.265625 -4.8125 C 1.367188 -4.8125 1.429688 -4.78125 1.453125 -4.71875 C 1.484375 -4.65625 1.5 -4.597656 1.5 -4.546875 L 1.5 -2.890625 C 1.582031 -3.066406 1.703125 -3.207031 1.859375 -3.3125 C 2.023438 -3.425781 2.207031 -3.484375 2.40625 -3.484375 C 2.820312 -3.484375 3.140625 -3.359375 3.359375 -3.109375 C 3.585938 -2.867188 3.703125 -2.5 3.703125 -2 L 3.703125 -0.0625 C 3.703125 0.101562 3.628906 0.1875 3.484375 0.1875 L 2.921875 0.1875 C 2.847656 0.1875 2.789062 0.164062 2.75 0.125 C 2.707031 0.09375 2.6875 0.03125 2.6875 -0.0625 L 2.6875 -2.21875 C 2.6875 -2.519531 2.644531 -2.738281 2.5625 -2.875 C 2.476562 -3.019531 2.351562 -3.09375 2.1875 -3.09375 C 2.101562 -3.09375 2.015625 -3.054688 1.921875 -2.984375 C 1.835938 -2.910156 1.765625 -2.820312 1.703125 -2.71875 C 1.648438 -2.613281 1.601562 -2.507812 1.5625 -2.40625 C 1.519531 -2.300781 1.5 -2.222656 1.5 -2.171875 L 1.5 -0.0625 C 1.5 0.101562 1.425781 0.1875 1.28125 0.1875 L 0.65625 0.1875 C 0.582031 0.1875 0.523438 0.164062 0.484375 0.125 C 0.441406 0.09375 0.421875 0.03125 0.421875 -0.0625 Z M 0.421875 -4.546875 "/></g></g></g><g fill="#8c52ff" fill-opacity="1"><g transform="translate(71.524021, 44.002416)"><g><path d="M 0.25 -1.625 C 0.25 -1.945312 0.296875 -2.222656 0.390625 -2.453125 C 0.492188 -2.691406 0.628906 -2.882812 0.796875 -3.03125 C 0.960938 -3.1875 1.15625 -3.300781 1.375 -3.375 C 1.59375 -3.445312 1.820312 -3.484375 2.0625 -3.484375 C 2.332031 -3.484375 2.570312 -3.4375 2.78125 -3.34375 C 2.988281 -3.257812 3.164062 -3.144531 3.3125 -3 C 3.457031 -2.851562 3.566406 -2.6875 3.640625 -2.5 C 3.722656 -2.320312 3.757812 -2.132812 3.75 -1.9375 C 3.75 -1.75 3.703125 -1.625 3.609375 -1.5625 C 3.515625 -1.507812 3.378906 -1.484375 3.203125 -1.484375 L 1.28125 -1.484375 C 1.28125 -1.335938 1.289062 -1.179688 1.3125 -1.015625 C 1.332031 -0.847656 1.375 -0.695312 1.4375 -0.5625 C 1.5 -0.425781 1.582031 -0.3125 1.6875 -0.21875 C 1.789062 -0.132812 1.929688 -0.09375 2.109375 -0.09375 C 2.234375 -0.09375 2.335938 -0.128906 2.421875 -0.203125 C 2.515625 -0.273438 2.59375 -0.359375 2.65625 -0.453125 C 2.726562 -0.546875 2.785156 -0.644531 2.828125 -0.75 C 2.867188 -0.851562 2.910156 -0.929688 2.953125 -0.984375 C 2.992188 -1.046875 3.050781 -1.082031 3.125 -1.09375 C 3.195312 -1.113281 3.296875 -1.09375 3.421875 -1.03125 C 3.585938 -0.945312 3.679688 -0.867188 3.703125 -0.796875 C 3.734375 -0.734375 3.726562 -0.660156 3.6875 -0.578125 C 3.53125 -0.316406 3.3125 -0.113281 3.03125 0.03125 C 2.757812 0.175781 2.457031 0.25 2.125 0.25 C 1.875 0.25 1.632812 0.210938 1.40625 0.140625 C 1.175781 0.0664062 0.972656 -0.046875 0.796875 -0.203125 C 0.628906 -0.359375 0.492188 -0.550781 0.390625 -0.78125 C 0.296875 -1.019531 0.25 -1.300781 0.25 -1.625 Z M 2.75 -1.828125 C 2.75 -1.984375 2.742188 -2.140625 2.734375 -2.296875 C 2.734375 -2.453125 2.707031 -2.59375 2.65625 -2.71875 C 2.613281 -2.851562 2.546875 -2.957031 2.453125 -3.03125 C 2.359375 -3.113281 2.21875 -3.15625 2.03125 -3.15625 C 1.863281 -3.15625 1.726562 -3.113281 1.625 -3.03125 C 1.53125 -2.945312 1.453125 -2.835938 1.390625 -2.703125 C 1.335938 -2.578125 1.304688 -2.4375 1.296875 -2.28125 C 1.285156 -2.125 1.28125 -1.972656 1.28125 -1.828125 Z M 2.75 -1.828125 "/></g></g></g><g fill="#8c52ff" fill-opacity="1"><g transform="translate(75.521038, 44.002416)"><g/></g></g><g fill="#8c52ff" fill-opacity="1"><g transform="translate(79.511409, 44.002416)"><g><path d="M 0.421875 -3.15625 C 0.421875 -3.332031 0.507812 -3.421875 0.6875 -3.421875 L 1.140625 -3.421875 C 1.234375 -3.421875 1.296875 -3.390625 1.328125 -3.328125 C 1.359375 -3.265625 1.375 -3.207031 1.375 -3.15625 L 1.375 -2.8125 C 1.445312 -2.945312 1.535156 -3.054688 1.640625 -3.140625 C 1.742188 -3.234375 1.84375 -3.300781 1.9375 -3.34375 C 2.039062 -3.394531 2.140625 -3.429688 2.234375 -3.453125 C 2.335938 -3.472656 2.425781 -3.484375 2.5 -3.484375 C 2.707031 -3.484375 2.90625 -3.441406 3.09375 -3.359375 C 3.28125 -3.285156 3.441406 -3.171875 3.578125 -3.015625 C 3.710938 -2.867188 3.816406 -2.679688 3.890625 -2.453125 C 3.972656 -2.222656 4.015625 -1.957031 4.015625 -1.65625 C 4.015625 -1.375 3.976562 -1.113281 3.90625 -0.875 C 3.832031 -0.644531 3.726562 -0.445312 3.59375 -0.28125 C 3.457031 -0.113281 3.296875 0.015625 3.109375 0.109375 C 2.921875 0.203125 2.707031 0.25 2.46875 0.25 C 2.382812 0.25 2.296875 0.238281 2.203125 0.21875 C 2.109375 0.207031 2.007812 0.175781 1.90625 0.125 C 1.8125 0.0703125 1.71875 0 1.625 -0.09375 C 1.53125 -0.195312 1.445312 -0.328125 1.375 -0.484375 L 1.375 1.328125 C 1.375 1.492188 1.300781 1.578125 1.15625 1.578125 L 0.65625 1.578125 C 0.582031 1.578125 0.523438 1.554688 0.484375 1.515625 C 0.441406 1.484375 0.421875 1.421875 0.421875 1.328125 Z M 1.40625 -1.625 C 1.40625 -1.15625 1.484375 -0.785156 1.640625 -0.515625 C 1.796875 -0.253906 2 -0.125 2.25 -0.125 C 2.363281 -0.125 2.472656 -0.160156 2.578125 -0.234375 C 2.679688 -0.304688 2.769531 -0.410156 2.84375 -0.546875 C 2.914062 -0.679688 2.972656 -0.835938 3.015625 -1.015625 C 3.054688 -1.203125 3.078125 -1.410156 3.078125 -1.640625 C 3.078125 -1.859375 3.054688 -2.054688 3.015625 -2.234375 C 2.984375 -2.421875 2.929688 -2.582031 2.859375 -2.71875 C 2.796875 -2.851562 2.710938 -2.957031 2.609375 -3.03125 C 2.503906 -3.101562 2.382812 -3.140625 2.25 -3.140625 C 2.15625 -3.140625 2.054688 -3.109375 1.953125 -3.046875 C 1.859375 -2.984375 1.769531 -2.890625 1.6875 -2.765625 C 1.613281 -2.640625 1.546875 -2.484375 1.484375 -2.296875 C 1.429688 -2.109375 1.40625 -1.882812 1.40625 -1.625 Z M 1.40625 -1.625 "/></g></g></g><g fill="#8c52ff" fill-opacity="1"><g transform="translate(83.954015, 44.002416)"><g><path d="M 0.421875 -3.171875 C 0.421875 -3.335938 0.492188 -3.421875 0.640625 -3.421875 L 1.203125 -3.421875 C 1.273438 -3.421875 1.332031 -3.398438 1.375 -3.359375 C 1.414062 -3.328125 1.4375 -3.265625 1.4375 -3.171875 L 1.4375 -1.03125 C 1.4375 -0.875 1.4375 -0.738281 1.4375 -0.625 C 1.445312 -0.519531 1.46875 -0.429688 1.5 -0.359375 C 1.53125 -0.285156 1.578125 -0.234375 1.640625 -0.203125 C 1.710938 -0.171875 1.8125 -0.15625 1.9375 -0.15625 C 2.019531 -0.15625 2.097656 -0.179688 2.171875 -0.234375 C 2.253906 -0.285156 2.328125 -0.347656 2.390625 -0.421875 C 2.453125 -0.503906 2.507812 -0.597656 2.5625 -0.703125 C 2.613281 -0.804688 2.65625 -0.910156 2.6875 -1.015625 L 2.6875 -3.171875 C 2.6875 -3.335938 2.757812 -3.421875 2.90625 -3.421875 L 3.46875 -3.421875 C 3.539062 -3.421875 3.597656 -3.398438 3.640625 -3.359375 C 3.679688 -3.328125 3.703125 -3.265625 3.703125 -3.171875 L 3.703125 -0.09375 C 3.703125 0.09375 3.613281 0.1875 3.4375 0.1875 L 2.921875 0.1875 C 2.828125 0.1875 2.765625 0.15625 2.734375 0.09375 C 2.703125 0.03125 2.6875 -0.03125 2.6875 -0.09375 L 2.6875 -0.40625 C 2.625 -0.269531 2.550781 -0.160156 2.46875 -0.078125 C 2.382812 0.00390625 2.296875 0.0664062 2.203125 0.109375 C 2.109375 0.160156 2.015625 0.195312 1.921875 0.21875 C 1.835938 0.238281 1.769531 0.25 1.71875 0.25 C 1.46875 0.25 1.257812 0.210938 1.09375 0.140625 C 0.9375 0.078125 0.804688 -0.015625 0.703125 -0.140625 C 0.597656 -0.265625 0.523438 -0.421875 0.484375 -0.609375 C 0.441406 -0.796875 0.421875 -1.007812 0.421875 -1.25 Z M 0.421875 -3.171875 "/></g></g></g><g fill="#8c52ff" fill-opacity="1"><g transform="translate(87.944386, 44.002416)"><g><path d="M 0.421875 -4.546875 C 0.421875 -4.722656 0.507812 -4.8125 0.6875 -4.8125 L 1.140625 -4.8125 C 1.234375 -4.8125 1.296875 -4.78125 1.328125 -4.71875 C 1.359375 -4.65625 1.375 -4.597656 1.375 -4.546875 L 1.375 -2.8125 C 1.445312 -2.945312 1.53125 -3.054688 1.625 -3.140625 C 1.71875 -3.222656 1.816406 -3.289062 1.921875 -3.34375 C 2.023438 -3.394531 2.128906 -3.429688 2.234375 -3.453125 C 2.335938 -3.472656 2.425781 -3.484375 2.5 -3.484375 C 2.707031 -3.484375 2.90625 -3.441406 3.09375 -3.359375 C 3.28125 -3.285156 3.441406 -3.171875 3.578125 -3.015625 C 3.710938 -2.867188 3.816406 -2.679688 3.890625 -2.453125 C 3.972656 -2.222656 4.015625 -1.957031 4.015625 -1.65625 C 4.015625 -1.375 3.976562 -1.113281 3.90625 -0.875 C 3.832031 -0.644531 3.726562 -0.445312 3.59375 -0.28125 C 3.457031 -0.113281 3.296875 0.015625 3.109375 0.109375 C 2.921875 0.203125 2.707031 0.25 2.46875 0.25 C 2.382812 0.25 2.296875 0.238281 2.203125 0.21875 C 2.109375 0.207031 2.007812 0.175781 1.90625 0.125 C 1.800781 0.0703125 1.703125 0 1.609375 -0.09375 C 1.523438 -0.195312 1.445312 -0.328125 1.375 -0.484375 L 1.375 -0.0625 C 1.375 0.101562 1.300781 0.1875 1.15625 0.1875 L 0.65625 0.1875 C 0.582031 0.1875 0.523438 0.164062 0.484375 0.125 C 0.441406 0.09375 0.421875 0.03125 0.421875 -0.0625 Z M 1.40625 -1.625 C 1.40625 -1.15625 1.484375 -0.785156 1.640625 -0.515625 C 1.796875 -0.253906 2 -0.125 2.25 -0.125 C 2.363281 -0.125 2.472656 -0.160156 2.578125 -0.234375 C 2.679688 -0.304688 2.769531 -0.410156 2.84375 -0.546875 C 2.914062 -0.679688 2.972656 -0.835938 3.015625 -1.015625 C 3.054688 -1.203125 3.078125 -1.410156 3.078125 -1.640625 C 3.078125 -1.859375 3.054688 -2.054688 3.015625 -2.234375 C 2.984375 -2.421875 2.929688 -2.582031 2.859375 -2.71875 C 2.796875 -2.851562 2.710938 -2.957031 2.609375 -3.03125 C 2.503906 -3.101562 2.382812 -3.140625 2.25 -3.140625 C 2.132812 -3.140625 2.023438 -3.109375 1.921875 -3.046875 C 1.816406 -2.984375 1.726562 -2.890625 1.65625 -2.765625 C 1.582031 -2.640625 1.519531 -2.484375 1.46875 -2.296875 C 1.425781 -2.109375 1.40625 -1.882812 1.40625 -1.625 Z M 1.40625 -1.625 "/></g></g></g><g fill="#8c52ff" fill-opacity="1"><g transform="translate(92.386992, 44.002416)"><g><path d="M 0.421875 -4.546875 C 0.421875 -4.722656 0.507812 -4.8125 0.6875 -4.8125 L 1.203125 -4.8125 C 1.296875 -4.8125 1.359375 -4.78125 1.390625 -4.71875 C 1.421875 -4.65625 1.4375 -4.597656 1.4375 -4.546875 L 1.4375 -0.0625 C 1.4375 0.101562 1.363281 0.1875 1.21875 0.1875 L 0.65625 0.1875 C 0.582031 0.1875 0.523438 0.164062 0.484375 0.125 C 0.441406 0.09375 0.421875 0.03125 0.421875 -0.0625 Z M 0.421875 -4.546875 "/></g></g></g><g fill="#8c52ff" fill-opacity="1"><g transform="translate(94.249167, 44.002416)"><g><path d="M 0.40625 -4.40625 C 0.40625 -4.5625 0.441406 -4.664062 0.515625 -4.71875 C 0.585938 -4.78125 0.726562 -4.8125 0.9375 -4.8125 C 1.050781 -4.8125 1.140625 -4.804688 1.203125 -4.796875 C 1.265625 -4.785156 1.316406 -4.765625 1.359375 -4.734375 C 1.398438 -4.703125 1.425781 -4.660156 1.4375 -4.609375 C 1.457031 -4.554688 1.46875 -4.488281 1.46875 -4.40625 C 1.46875 -4.3125 1.457031 -4.234375 1.4375 -4.171875 C 1.425781 -4.117188 1.398438 -4.078125 1.359375 -4.046875 C 1.316406 -4.023438 1.265625 -4.007812 1.203125 -4 C 1.140625 -3.988281 1.050781 -3.984375 0.9375 -3.984375 C 0.832031 -3.984375 0.742188 -3.984375 0.671875 -3.984375 C 0.597656 -3.992188 0.539062 -4.015625 0.5 -4.046875 C 0.46875 -4.078125 0.441406 -4.117188 0.421875 -4.171875 C 0.410156 -4.234375 0.40625 -4.3125 0.40625 -4.40625 Z M 0.421875 -3.15625 C 0.421875 -3.332031 0.507812 -3.421875 0.6875 -3.421875 L 1.203125 -3.421875 C 1.296875 -3.421875 1.359375 -3.390625 1.390625 -3.328125 C 1.421875 -3.265625 1.4375 -3.207031 1.4375 -3.15625 L 1.4375 -0.0625 C 1.4375 0.101562 1.363281 0.1875 1.21875 0.1875 L 0.65625 0.1875 C 0.582031 0.1875 0.523438 0.164062 0.484375 0.125 C 0.441406 0.09375 0.421875 0.03125 0.421875 -0.0625 Z M 0.421875 -3.15625 "/></g></g></g><g fill="#8c52ff" fill-opacity="1"><g transform="translate(96.111342, 44.002416)"><g><path d="M 0.25 -1.546875 C 0.25 -1.804688 0.28125 -2.050781 0.34375 -2.28125 C 0.414062 -2.519531 0.523438 -2.726562 0.671875 -2.90625 C 0.816406 -3.082031 1.003906 -3.222656 1.234375 -3.328125 C 1.472656 -3.429688 1.757812 -3.484375 2.09375 -3.484375 C 2.320312 -3.484375 2.523438 -3.457031 2.703125 -3.40625 C 2.890625 -3.351562 3.046875 -3.28125 3.171875 -3.1875 C 3.304688 -3.101562 3.414062 -3 3.5 -2.875 C 3.59375 -2.757812 3.65625 -2.632812 3.6875 -2.5 C 3.707031 -2.394531 3.6875 -2.320312 3.625 -2.28125 C 3.570312 -2.238281 3.472656 -2.203125 3.328125 -2.171875 C 3.148438 -2.128906 3.019531 -2.117188 2.9375 -2.140625 C 2.863281 -2.160156 2.8125 -2.222656 2.78125 -2.328125 C 2.75 -2.441406 2.710938 -2.546875 2.671875 -2.640625 C 2.640625 -2.742188 2.597656 -2.832031 2.546875 -2.90625 C 2.492188 -2.988281 2.429688 -3.050781 2.359375 -3.09375 C 2.285156 -3.132812 2.191406 -3.15625 2.078125 -3.15625 C 1.921875 -3.15625 1.785156 -3.113281 1.671875 -3.03125 C 1.566406 -2.957031 1.476562 -2.851562 1.40625 -2.71875 C 1.332031 -2.582031 1.28125 -2.414062 1.25 -2.21875 C 1.21875 -2.019531 1.203125 -1.796875 1.203125 -1.546875 C 1.203125 -1.285156 1.222656 -1.0625 1.265625 -0.875 C 1.316406 -0.695312 1.382812 -0.550781 1.46875 -0.4375 C 1.550781 -0.320312 1.644531 -0.234375 1.75 -0.171875 C 1.851562 -0.117188 1.957031 -0.09375 2.0625 -0.09375 C 2.1875 -0.09375 2.285156 -0.117188 2.359375 -0.171875 C 2.441406 -0.222656 2.507812 -0.289062 2.5625 -0.375 C 2.625 -0.457031 2.675781 -0.550781 2.71875 -0.65625 C 2.757812 -0.757812 2.804688 -0.863281 2.859375 -0.96875 C 2.867188 -1.007812 2.882812 -1.046875 2.90625 -1.078125 C 2.9375 -1.117188 2.972656 -1.148438 3.015625 -1.171875 C 3.054688 -1.191406 3.101562 -1.195312 3.15625 -1.1875 C 3.21875 -1.175781 3.296875 -1.15625 3.390625 -1.125 C 3.523438 -1.082031 3.613281 -1.023438 3.65625 -0.953125 C 3.707031 -0.890625 3.71875 -0.8125 3.6875 -0.71875 C 3.625 -0.5625 3.535156 -0.421875 3.421875 -0.296875 C 3.316406 -0.179688 3.195312 -0.0820312 3.0625 0 C 2.925781 0.0820312 2.773438 0.144531 2.609375 0.1875 C 2.441406 0.226562 2.269531 0.25 2.09375 0.25 C 1.820312 0.25 1.570312 0.207031 1.34375 0.125 C 1.125 0.0390625 0.929688 -0.0703125 0.765625 -0.21875 C 0.597656 -0.375 0.46875 -0.5625 0.375 -0.78125 C 0.289062 -1.007812 0.25 -1.265625 0.25 -1.546875 Z M 0.25 -1.546875 "/></g></g></g><g fill="#8c52ff" fill-opacity="1"><g transform="translate(100.101713, 44.002416)"><g/></g></g><g fill="#8c52ff" fill-opacity="1"><g transform="translate(104.092084, 44.002416)"><g><path d="M 0.09375 -3.15625 C 0.0390625 -3.332031 0.0820312 -3.421875 0.21875 -3.421875 L 0.75 -3.421875 C 0.820312 -3.421875 0.867188 -3.40625 0.890625 -3.375 C 0.921875 -3.351562 0.945312 -3.3125 0.96875 -3.25 L 1.546875 -0.875 L 2.234375 -3.25 C 2.242188 -3.3125 2.265625 -3.351562 2.296875 -3.375 C 2.335938 -3.40625 2.394531 -3.421875 2.46875 -3.421875 L 3 -3.421875 C 3.0625 -3.421875 3.109375 -3.410156 3.140625 -3.390625 C 3.171875 -3.367188 3.195312 -3.320312 3.21875 -3.25 L 3.90625 -0.875 L 4.5 -3.25 C 4.519531 -3.300781 4.546875 -3.34375 4.578125 -3.375 C 4.617188 -3.40625 4.675781 -3.421875 4.75 -3.421875 L 5.234375 -3.421875 C 5.304688 -3.421875 5.347656 -3.394531 5.359375 -3.34375 C 5.378906 -3.300781 5.378906 -3.238281 5.359375 -3.15625 L 4.453125 -0.09375 C 4.421875 0 4.378906 0.0664062 4.328125 0.109375 C 4.285156 0.160156 4.207031 0.1875 4.09375 0.1875 L 3.78125 0.1875 C 3.71875 0.1875 3.65625 0.160156 3.59375 0.109375 C 3.53125 0.0664062 3.488281 0 3.46875 -0.09375 L 2.734375 -2.875 L 1.984375 -0.09375 C 1.960938 0 1.921875 0.0664062 1.859375 0.109375 C 1.804688 0.160156 1.75 0.1875 1.6875 0.1875 L 1.34375 0.1875 C 1.226562 0.1875 1.148438 0.160156 1.109375 0.109375 C 1.066406 0.0664062 1.03125 0 1 -0.09375 Z M 0.09375 -3.15625 "/></g></g></g><g fill="#8c52ff" fill-opacity="1"><g transform="translate(109.545587, 44.002416)"><g><path d="M 0.25 -1.625 C 0.25 -1.945312 0.296875 -2.222656 0.390625 -2.453125 C 0.492188 -2.691406 0.628906 -2.882812 0.796875 -3.03125 C 0.960938 -3.1875 1.15625 -3.300781 1.375 -3.375 C 1.59375 -3.445312 1.820312 -3.484375 2.0625 -3.484375 C 2.332031 -3.484375 2.570312 -3.4375 2.78125 -3.34375 C 2.988281 -3.257812 3.164062 -3.144531 3.3125 -3 C 3.457031 -2.851562 3.566406 -2.6875 3.640625 -2.5 C 3.722656 -2.320312 3.757812 -2.132812 3.75 -1.9375 C 3.75 -1.75 3.703125 -1.625 3.609375 -1.5625 C 3.515625 -1.507812 3.378906 -1.484375 3.203125 -1.484375 L 1.28125 -1.484375 C 1.28125 -1.335938 1.289062 -1.179688 1.3125 -1.015625 C 1.332031 -0.847656 1.375 -0.695312 1.4375 -0.5625 C 1.5 -0.425781 1.582031 -0.3125 1.6875 -0.21875 C 1.789062 -0.132812 1.929688 -0.09375 2.109375 -0.09375 C 2.234375 -0.09375 2.335938 -0.128906 2.421875 -0.203125 C 2.515625 -0.273438 2.59375 -0.359375 2.65625 -0.453125 C 2.726562 -0.546875 2.785156 -0.644531 2.828125 -0.75 C 2.867188 -0.851562 2.910156 -0.929688 2.953125 -0.984375 C 2.992188 -1.046875 3.050781 -1.082031 3.125 -1.09375 C 3.195312 -1.113281 3.296875 -1.09375 3.421875 -1.03125 C 3.585938 -0.945312 3.679688 -0.867188 3.703125 -0.796875 C 3.734375 -0.734375 3.726562 -0.660156 3.6875 -0.578125 C 3.53125 -0.316406 3.3125 -0.113281 3.03125 0.03125 C 2.757812 0.175781 2.457031 0.25 2.125 0.25 C 1.875 0.25 1.632812 0.210938 1.40625 0.140625 C 1.175781 0.0664062 0.972656 -0.046875 0.796875 -0.203125 C 0.628906 -0.359375 0.492188 -0.550781 0.390625 -0.78125 C 0.296875 -1.019531 0.25 -1.300781 0.25 -1.625 Z M 2.75 -1.828125 C 2.75 -1.984375 2.742188 -2.140625 2.734375 -2.296875 C 2.734375 -2.453125 2.707031 -2.59375 2.65625 -2.71875 C 2.613281 -2.851562 2.546875 -2.957031 2.453125 -3.03125 C 2.359375 -3.113281 2.21875 -3.15625 2.03125 -3.15625 C 1.863281 -3.15625 1.726562 -3.113281 1.625 -3.03125 C 1.53125 -2.945312 1.453125 -2.835938 1.390625 -2.703125 C 1.335938 -2.578125 1.304688 -2.4375 1.296875 -2.28125 C 1.285156 -2.125 1.28125 -1.972656 1.28125 -1.828125 Z M 2.75 -1.828125 "/></g></g></g><g fill="#8c52ff" fill-opacity="1"><g transform="translate(113.542605, 44.002416)"><g><path d="M 0.421875 -4.546875 C 0.421875 -4.722656 0.507812 -4.8125 0.6875 -4.8125 L 1.203125 -4.8125 C 1.296875 -4.8125 1.359375 -4.78125 1.390625 -4.71875 C 1.421875 -4.65625 1.4375 -4.597656 1.4375 -4.546875 L 1.4375 -0.0625 C 1.4375 0.101562 1.363281 0.1875 1.21875 0.1875 L 0.65625 0.1875 C 0.582031 0.1875 0.523438 0.164062 0.484375 0.125 C 0.441406 0.09375 0.421875 0.03125 0.421875 -0.0625 Z M 0.421875 -4.546875 "/></g></g></g><g fill="#8c52ff" fill-opacity="1"><g transform="translate(115.40478, 44.002416)"><g><path d="M 0.0625 -3.265625 C 0.0625 -3.367188 0.109375 -3.421875 0.203125 -3.421875 L 0.75 -3.421875 L 0.75 -3.640625 C 0.75 -3.859375 0.769531 -4.039062 0.8125 -4.1875 C 0.851562 -4.332031 0.921875 -4.453125 1.015625 -4.546875 C 1.117188 -4.640625 1.242188 -4.707031 1.390625 -4.75 C 1.546875 -4.789062 1.738281 -4.8125 1.96875 -4.8125 C 2.03125 -4.8125 2.113281 -4.800781 2.21875 -4.78125 C 2.332031 -4.769531 2.445312 -4.75 2.5625 -4.71875 C 2.65625 -4.675781 2.679688 -4.609375 2.640625 -4.515625 C 2.617188 -4.460938 2.59375 -4.425781 2.5625 -4.40625 C 2.539062 -4.382812 2.492188 -4.382812 2.421875 -4.40625 C 2.316406 -4.4375 2.226562 -4.457031 2.15625 -4.46875 C 2.082031 -4.476562 2.019531 -4.476562 1.96875 -4.46875 C 1.925781 -4.457031 1.890625 -4.4375 1.859375 -4.40625 C 1.835938 -4.375 1.816406 -4.328125 1.796875 -4.265625 C 1.785156 -4.203125 1.773438 -4.113281 1.765625 -4 C 1.753906 -3.882812 1.75 -3.75 1.75 -3.59375 L 1.75 -3.421875 L 2.296875 -3.421875 C 2.390625 -3.421875 2.4375 -3.367188 2.4375 -3.265625 C 2.4375 -3.148438 2.390625 -3.09375 2.296875 -3.09375 L 1.75 -3.09375 L 1.75 -0.09375 C 1.75 -0.0195312 1.722656 0.0390625 1.671875 0.09375 C 1.628906 0.15625 1.566406 0.1875 1.484375 0.1875 L 1 0.1875 C 0.90625 0.1875 0.835938 0.15625 0.796875 0.09375 C 0.765625 0.0390625 0.75 -0.0195312 0.75 -0.09375 L 0.75 -3.09375 L 0.203125 -3.09375 C 0.109375 -3.09375 0.0625 -3.148438 0.0625 -3.265625 Z M 0.0625 -3.265625 "/></g></g></g><g fill="#8c52ff" fill-opacity="1"><g transform="translate(118.131527, 44.002416)"><g><path d="M 0.265625 -0.796875 C 0.265625 -1.015625 0.320312 -1.191406 0.4375 -1.328125 C 0.5625 -1.460938 0.710938 -1.570312 0.890625 -1.65625 C 1.078125 -1.738281 1.273438 -1.800781 1.484375 -1.84375 C 1.703125 -1.894531 1.898438 -1.941406 2.078125 -1.984375 C 2.128906 -2.003906 2.210938 -2.03125 2.328125 -2.0625 C 2.441406 -2.09375 2.554688 -2.128906 2.671875 -2.171875 C 2.671875 -2.484375 2.625 -2.722656 2.53125 -2.890625 C 2.445312 -3.066406 2.28125 -3.15625 2.03125 -3.15625 C 1.90625 -3.15625 1.804688 -3.140625 1.734375 -3.109375 C 1.671875 -3.078125 1.617188 -3.03125 1.578125 -2.96875 C 1.535156 -2.90625 1.5 -2.820312 1.46875 -2.71875 C 1.4375 -2.625 1.394531 -2.519531 1.34375 -2.40625 C 1.3125 -2.351562 1.285156 -2.304688 1.265625 -2.265625 C 1.242188 -2.234375 1.210938 -2.207031 1.171875 -2.1875 C 1.140625 -2.164062 1.09375 -2.148438 1.03125 -2.140625 C 0.976562 -2.128906 0.90625 -2.132812 0.8125 -2.15625 C 0.632812 -2.175781 0.519531 -2.207031 0.46875 -2.25 C 0.414062 -2.289062 0.398438 -2.375 0.421875 -2.5 C 0.460938 -2.6875 0.535156 -2.84375 0.640625 -2.96875 C 0.742188 -3.101562 0.867188 -3.207031 1.015625 -3.28125 C 1.160156 -3.351562 1.316406 -3.40625 1.484375 -3.4375 C 1.660156 -3.46875 1.84375 -3.484375 2.03125 -3.484375 C 2.34375 -3.484375 2.597656 -3.457031 2.796875 -3.40625 C 3.003906 -3.351562 3.164062 -3.269531 3.28125 -3.15625 C 3.40625 -3.039062 3.488281 -2.894531 3.53125 -2.71875 C 3.582031 -2.550781 3.609375 -2.359375 3.609375 -2.140625 L 3.59375 -1.03125 C 3.59375 -0.925781 3.597656 -0.832031 3.609375 -0.75 C 3.617188 -0.675781 3.632812 -0.609375 3.65625 -0.546875 C 3.675781 -0.484375 3.691406 -0.421875 3.703125 -0.359375 C 3.722656 -0.304688 3.75 -0.25 3.78125 -0.1875 C 3.800781 -0.09375 3.796875 -0.0234375 3.765625 0.015625 C 3.742188 0.0664062 3.660156 0.125 3.515625 0.1875 C 3.328125 0.257812 3.1875 0.285156 3.09375 0.265625 C 3.007812 0.253906 2.9375 0.207031 2.875 0.125 C 2.84375 0.0703125 2.8125 0.0234375 2.78125 -0.015625 C 2.75 -0.0664062 2.710938 -0.144531 2.671875 -0.25 C 2.503906 -0.101562 2.332031 0.015625 2.15625 0.109375 C 1.976562 0.203125 1.742188 0.25 1.453125 0.25 C 1.285156 0.25 1.128906 0.222656 0.984375 0.171875 C 0.835938 0.117188 0.710938 0.0507812 0.609375 -0.03125 C 0.503906 -0.125 0.421875 -0.234375 0.359375 -0.359375 C 0.296875 -0.484375 0.265625 -0.628906 0.265625 -0.796875 Z M 1.21875 -0.78125 C 1.21875 -0.625 1.226562 -0.5 1.25 -0.40625 C 1.28125 -0.320312 1.320312 -0.253906 1.375 -0.203125 C 1.425781 -0.160156 1.484375 -0.132812 1.546875 -0.125 C 1.617188 -0.113281 1.6875 -0.109375 1.75 -0.109375 C 1.875 -0.117188 1.992188 -0.144531 2.109375 -0.1875 C 2.222656 -0.238281 2.320312 -0.300781 2.40625 -0.375 C 2.488281 -0.457031 2.550781 -0.550781 2.59375 -0.65625 C 2.644531 -0.757812 2.671875 -0.882812 2.671875 -1.03125 L 2.671875 -1.859375 C 2.566406 -1.804688 2.460938 -1.757812 2.359375 -1.71875 C 2.253906 -1.6875 2.132812 -1.648438 2 -1.609375 C 1.84375 -1.554688 1.710938 -1.503906 1.609375 -1.453125 C 1.515625 -1.410156 1.4375 -1.359375 1.375 -1.296875 C 1.3125 -1.234375 1.269531 -1.160156 1.25 -1.078125 C 1.226562 -0.992188 1.21875 -0.894531 1.21875 -0.78125 Z M 1.21875 -0.78125 "/></g></g></g><g fill="#8c52ff" fill-opacity="1"><g transform="translate(122.188401, 44.002416)"><g><path d="M 0.421875 -3.15625 C 0.421875 -3.332031 0.507812 -3.421875 0.6875 -3.421875 L 1.203125 -3.421875 C 1.296875 -3.421875 1.359375 -3.390625 1.390625 -3.328125 C 1.421875 -3.265625 1.4375 -3.207031 1.4375 -3.15625 L 1.4375 -2.890625 C 1.46875 -2.972656 1.503906 -3.046875 1.546875 -3.109375 C 1.585938 -3.179688 1.640625 -3.242188 1.703125 -3.296875 C 1.765625 -3.359375 1.832031 -3.40625 1.90625 -3.4375 C 1.988281 -3.46875 2.078125 -3.484375 2.171875 -3.484375 C 2.304688 -3.484375 2.421875 -3.472656 2.515625 -3.453125 C 2.609375 -3.429688 2.695312 -3.382812 2.78125 -3.3125 C 2.84375 -3.257812 2.875 -3.191406 2.875 -3.109375 C 2.882812 -3.035156 2.832031 -2.945312 2.71875 -2.84375 C 2.632812 -2.769531 2.554688 -2.710938 2.484375 -2.671875 C 2.421875 -2.640625 2.367188 -2.648438 2.328125 -2.703125 C 2.265625 -2.804688 2.203125 -2.890625 2.140625 -2.953125 C 2.078125 -3.023438 2.007812 -3.0625 1.9375 -3.0625 C 1.875 -3.0625 1.816406 -3.039062 1.765625 -3 C 1.710938 -2.957031 1.664062 -2.90625 1.625 -2.84375 C 1.582031 -2.78125 1.546875 -2.707031 1.515625 -2.625 C 1.484375 -2.539062 1.457031 -2.460938 1.4375 -2.390625 L 1.4375 -0.0625 C 1.4375 0.101562 1.363281 0.1875 1.21875 0.1875 L 0.65625 0.1875 C 0.582031 0.1875 0.523438 0.164062 0.484375 0.125 C 0.441406 0.09375 0.421875 0.03125 0.421875 -0.0625 Z M 0.421875 -3.15625 "/></g></g></g><g fill="#8c52ff" fill-opacity="1"><g transform="translate(125.500406, 44.002416)"><g><path d="M 0.25 -1.625 C 0.25 -1.945312 0.296875 -2.222656 0.390625 -2.453125 C 0.492188 -2.691406 0.628906 -2.882812 0.796875 -3.03125 C 0.960938 -3.1875 1.15625 -3.300781 1.375 -3.375 C 1.59375 -3.445312 1.820312 -3.484375 2.0625 -3.484375 C 2.332031 -3.484375 2.570312 -3.4375 2.78125 -3.34375 C 2.988281 -3.257812 3.164062 -3.144531 3.3125 -3 C 3.457031 -2.851562 3.566406 -2.6875 3.640625 -2.5 C 3.722656 -2.320312 3.757812 -2.132812 3.75 -1.9375 C 3.75 -1.75 3.703125 -1.625 3.609375 -1.5625 C 3.515625 -1.507812 3.378906 -1.484375 3.203125 -1.484375 L 1.28125 -1.484375 C 1.28125 -1.335938 1.289062 -1.179688 1.3125 -1.015625 C 1.332031 -0.847656 1.375 -0.695312 1.4375 -0.5625 C 1.5 -0.425781 1.582031 -0.3125 1.6875 -0.21875 C 1.789062 -0.132812 1.929688 -0.09375 2.109375 -0.09375 C 2.234375 -0.09375 2.335938 -0.128906 2.421875 -0.203125 C 2.515625 -0.273438 2.59375 -0.359375 2.65625 -0.453125 C 2.726562 -0.546875 2.785156 -0.644531 2.828125 -0.75 C 2.867188 -0.851562 2.910156 -0.929688 2.953125 -0.984375 C 2.992188 -1.046875 3.050781 -1.082031 3.125 -1.09375 C 3.195312 -1.113281 3.296875 -1.09375 3.421875 -1.03125 C 3.585938 -0.945312 3.679688 -0.867188 3.703125 -0.796875 C 3.734375 -0.734375 3.726562 -0.660156 3.6875 -0.578125 C 3.53125 -0.316406 3.3125 -0.113281 3.03125 0.03125 C 2.757812 0.175781 2.457031 0.25 2.125 0.25 C 1.875 0.25 1.632812 0.210938 1.40625 0.140625 C 1.175781 0.0664062 0.972656 -0.046875 0.796875 -0.203125 C 0.628906 -0.359375 0.492188 -0.550781 0.390625 -0.78125 C 0.296875 -1.019531 0.25 -1.300781 0.25 -1.625 Z M 2.75 -1.828125 C 2.75 -1.984375 2.742188 -2.140625 2.734375 -2.296875 C 2.734375 -2.453125 2.707031 -2.59375 2.65625 -2.71875 C 2.613281 -2.851562 2.546875 -2.957031 2.453125 -3.03125 C 2.359375 -3.113281 2.21875 -3.15625 2.03125 -3.15625 C 1.863281 -3.15625 1.726562 -3.113281 1.625 -3.03125 C 1.53125 -2.945312 1.453125 -2.835938 1.390625 -2.703125 C 1.335938 -2.578125 1.304688 -2.4375 1.296875 -2.28125 C 1.285156 -2.125 1.28125 -1.972656 1.28125 -1.828125 Z M 2.75 -1.828125 "/></g></g></g><g fill="#8c52ff" fill-opacity="1"><g transform="translate(129.497424, 44.002416)"><g/></g></g><g fill="#8c52ff" fill-opacity="1"><g transform="translate(133.487795, 44.002416)"><g><path d="M 0.40625 -4.40625 C 0.40625 -4.5625 0.441406 -4.664062 0.515625 -4.71875 C 0.585938 -4.78125 0.726562 -4.8125 0.9375 -4.8125 C 1.050781 -4.8125 1.140625 -4.804688 1.203125 -4.796875 C 1.265625 -4.785156 1.316406 -4.765625 1.359375 -4.734375 C 1.398438 -4.703125 1.425781 -4.660156 1.4375 -4.609375 C 1.457031 -4.554688 1.46875 -4.488281 1.46875 -4.40625 C 1.46875 -4.3125 1.457031 -4.234375 1.4375 -4.171875 C 1.425781 -4.117188 1.398438 -4.078125 1.359375 -4.046875 C 1.316406 -4.023438 1.265625 -4.007812 1.203125 -4 C 1.140625 -3.988281 1.050781 -3.984375 0.9375 -3.984375 C 0.832031 -3.984375 0.742188 -3.984375 0.671875 -3.984375 C 0.597656 -3.992188 0.539062 -4.015625 0.5 -4.046875 C 0.46875 -4.078125 0.441406 -4.117188 0.421875 -4.171875 C 0.410156 -4.234375 0.40625 -4.3125 0.40625 -4.40625 Z M 0.421875 -3.15625 C 0.421875 -3.332031 0.507812 -3.421875 0.6875 -3.421875 L 1.203125 -3.421875 C 1.296875 -3.421875 1.359375 -3.390625 1.390625 -3.328125 C 1.421875 -3.265625 1.4375 -3.207031 1.4375 -3.15625 L 1.4375 -0.0625 C 1.4375 0.101562 1.363281 0.1875 1.21875 0.1875 L 0.65625 0.1875 C 0.582031 0.1875 0.523438 0.164062 0.484375 0.125 C 0.441406 0.09375 0.421875 0.03125 0.421875 -0.0625 Z M 0.421875 -3.15625 "/></g></g></g><g fill="#8c52ff" fill-opacity="1"><g transform="translate(135.34997, 44.002416)"><g><path d="M 0.421875 -3.15625 C 0.421875 -3.332031 0.507812 -3.421875 0.6875 -3.421875 L 1.140625 -3.421875 C 1.234375 -3.421875 1.296875 -3.390625 1.328125 -3.328125 C 1.359375 -3.265625 1.375 -3.207031 1.375 -3.15625 L 1.375 -2.828125 C 1.394531 -2.898438 1.429688 -2.972656 1.484375 -3.046875 C 1.535156 -3.128906 1.597656 -3.203125 1.671875 -3.265625 C 1.753906 -3.328125 1.847656 -3.378906 1.953125 -3.421875 C 2.054688 -3.460938 2.164062 -3.484375 2.28125 -3.484375 C 2.738281 -3.484375 3.085938 -3.351562 3.328125 -3.09375 C 3.578125 -2.84375 3.703125 -2.476562 3.703125 -2 L 3.703125 -0.0625 C 3.703125 0.101562 3.628906 0.1875 3.484375 0.1875 L 2.984375 0.1875 C 2.910156 0.1875 2.851562 0.164062 2.8125 0.125 C 2.769531 0.09375 2.75 0.03125 2.75 -0.0625 L 2.75 -2.21875 C 2.75 -2.363281 2.734375 -2.488281 2.703125 -2.59375 C 2.671875 -2.707031 2.617188 -2.796875 2.546875 -2.859375 C 2.484375 -2.921875 2.410156 -2.96875 2.328125 -3 C 2.242188 -3.03125 2.15625 -3.046875 2.0625 -3.046875 C 1.957031 -3.046875 1.863281 -3.015625 1.78125 -2.953125 C 1.695312 -2.890625 1.625 -2.8125 1.5625 -2.71875 C 1.5 -2.632812 1.453125 -2.539062 1.421875 -2.4375 C 1.390625 -2.34375 1.375 -2.253906 1.375 -2.171875 L 1.375 -0.0625 C 1.375 0.101562 1.300781 0.1875 1.15625 0.1875 L 0.65625 0.1875 C 0.582031 0.1875 0.523438 0.164062 0.484375 0.125 C 0.441406 0.09375 0.421875 0.03125 0.421875 -0.0625 Z M 0.421875 -3.15625 "/></g></g></g><g fill="#8c52ff" fill-opacity="1"><g transform="translate(139.473347, 44.002416)"><g><path d="M 0.25 -1.65625 C 0.25 -1.957031 0.285156 -2.222656 0.359375 -2.453125 C 0.441406 -2.679688 0.550781 -2.867188 0.6875 -3.015625 C 0.832031 -3.171875 0.992188 -3.285156 1.171875 -3.359375 C 1.359375 -3.441406 1.5625 -3.484375 1.78125 -3.484375 C 1.851562 -3.484375 1.9375 -3.476562 2.03125 -3.46875 C 2.132812 -3.457031 2.238281 -3.429688 2.34375 -3.390625 C 2.445312 -3.347656 2.546875 -3.28125 2.640625 -3.1875 C 2.734375 -3.09375 2.820312 -2.96875 2.90625 -2.8125 L 2.90625 -4.546875 C 2.90625 -4.597656 2.914062 -4.65625 2.9375 -4.71875 C 2.96875 -4.78125 3.035156 -4.8125 3.140625 -4.8125 L 3.578125 -4.8125 C 3.753906 -4.8125 3.84375 -4.722656 3.84375 -4.546875 L 3.84375 -0.0625 C 3.84375 0.03125 3.820312 0.09375 3.78125 0.125 C 3.738281 0.164062 3.679688 0.1875 3.609375 0.1875 L 3.125 0.1875 C 2.976562 0.1875 2.90625 0.101562 2.90625 -0.0625 L 2.90625 -0.484375 C 2.820312 -0.328125 2.734375 -0.195312 2.640625 -0.09375 C 2.554688 0 2.460938 0.0703125 2.359375 0.125 C 2.265625 0.175781 2.164062 0.207031 2.0625 0.21875 C 1.96875 0.238281 1.878906 0.25 1.796875 0.25 C 1.554688 0.25 1.34375 0.203125 1.15625 0.109375 C 0.96875 0.015625 0.804688 -0.113281 0.671875 -0.28125 C 0.535156 -0.445312 0.429688 -0.644531 0.359375 -0.875 C 0.285156 -1.113281 0.25 -1.375 0.25 -1.65625 Z M 1.203125 -1.640625 C 1.203125 -1.410156 1.222656 -1.203125 1.265625 -1.015625 C 1.304688 -0.835938 1.363281 -0.679688 1.4375 -0.546875 C 1.507812 -0.410156 1.59375 -0.304688 1.6875 -0.234375 C 1.789062 -0.160156 1.898438 -0.125 2.015625 -0.125 C 2.265625 -0.125 2.46875 -0.253906 2.625 -0.515625 C 2.78125 -0.785156 2.859375 -1.15625 2.859375 -1.625 C 2.859375 -1.882812 2.835938 -2.109375 2.796875 -2.296875 C 2.753906 -2.484375 2.691406 -2.640625 2.609375 -2.765625 C 2.535156 -2.890625 2.445312 -2.984375 2.34375 -3.046875 C 2.238281 -3.109375 2.128906 -3.140625 2.015625 -3.140625 C 1.878906 -3.140625 1.757812 -3.101562 1.65625 -3.03125 C 1.5625 -2.957031 1.476562 -2.851562 1.40625 -2.71875 C 1.332031 -2.582031 1.28125 -2.421875 1.25 -2.234375 C 1.21875 -2.054688 1.203125 -1.859375 1.203125 -1.640625 Z M 1.203125 -1.640625 "/></g></g></g><g fill="#8c52ff" fill-opacity="1"><g transform="translate(143.463718, 44.002416)"><g><path d="M 0.421875 -3.171875 C 0.421875 -3.335938 0.492188 -3.421875 0.640625 -3.421875 L 1.203125 -3.421875 C 1.273438 -3.421875 1.332031 -3.398438 1.375 -3.359375 C 1.414062 -3.328125 1.4375 -3.265625 1.4375 -3.171875 L 1.4375 -1.03125 C 1.4375 -0.875 1.4375 -0.738281 1.4375 -0.625 C 1.445312 -0.519531 1.46875 -0.429688 1.5 -0.359375 C 1.53125 -0.285156 1.578125 -0.234375 1.640625 -0.203125 C 1.710938 -0.171875 1.8125 -0.15625 1.9375 -0.15625 C 2.019531 -0.15625 2.097656 -0.179688 2.171875 -0.234375 C 2.253906 -0.285156 2.328125 -0.347656 2.390625 -0.421875 C 2.453125 -0.503906 2.507812 -0.597656 2.5625 -0.703125 C 2.613281 -0.804688 2.65625 -0.910156 2.6875 -1.015625 L 2.6875 -3.171875 C 2.6875 -3.335938 2.757812 -3.421875 2.90625 -3.421875 L 3.46875 -3.421875 C 3.539062 -3.421875 3.597656 -3.398438 3.640625 -3.359375 C 3.679688 -3.328125 3.703125 -3.265625 3.703125 -3.171875 L 3.703125 -0.09375 C 3.703125 0.09375 3.613281 0.1875 3.4375 0.1875 L 2.921875 0.1875 C 2.828125 0.1875 2.765625 0.15625 2.734375 0.09375 C 2.703125 0.03125 2.6875 -0.03125 2.6875 -0.09375 L 2.6875 -0.40625 C 2.625 -0.269531 2.550781 -0.160156 2.46875 -0.078125 C 2.382812 0.00390625 2.296875 0.0664062 2.203125 0.109375 C 2.109375 0.160156 2.015625 0.195312 1.921875 0.21875 C 1.835938 0.238281 1.769531 0.25 1.71875 0.25 C 1.46875 0.25 1.257812 0.210938 1.09375 0.140625 C 0.9375 0.078125 0.804688 -0.015625 0.703125 -0.140625 C 0.597656 -0.265625 0.523438 -0.421875 0.484375 -0.609375 C 0.441406 -0.796875 0.421875 -1.007812 0.421875 -1.25 Z M 0.421875 -3.171875 "/></g></g></g><g fill="#8c52ff" fill-opacity="1"><g transform="translate(147.454088, 44.002416)"><g><path d="M 0.3125 -0.734375 C 0.289062 -0.816406 0.285156 -0.882812 0.296875 -0.9375 C 0.316406 -0.988281 0.34375 -1.023438 0.375 -1.046875 C 0.414062 -1.066406 0.460938 -1.082031 0.515625 -1.09375 C 0.566406 -1.101562 0.625 -1.109375 0.6875 -1.109375 C 0.863281 -1.109375 0.984375 -1.09375 1.046875 -1.0625 C 1.117188 -1.039062 1.164062 -0.976562 1.1875 -0.875 C 1.207031 -0.78125 1.234375 -0.6875 1.265625 -0.59375 C 1.304688 -0.5 1.351562 -0.414062 1.40625 -0.34375 C 1.457031 -0.269531 1.519531 -0.210938 1.59375 -0.171875 C 1.675781 -0.128906 1.773438 -0.109375 1.890625 -0.109375 C 2.003906 -0.109375 2.097656 -0.125 2.171875 -0.15625 C 2.242188 -0.1875 2.300781 -0.226562 2.34375 -0.28125 C 2.382812 -0.332031 2.410156 -0.394531 2.421875 -0.46875 C 2.441406 -0.539062 2.453125 -0.625 2.453125 -0.71875 C 2.453125 -0.875 2.40625 -1 2.3125 -1.09375 C 2.21875 -1.1875 2.046875 -1.273438 1.796875 -1.359375 C 1.597656 -1.429688 1.410156 -1.5 1.234375 -1.5625 C 1.066406 -1.632812 0.914062 -1.710938 0.78125 -1.796875 C 0.644531 -1.878906 0.539062 -1.972656 0.46875 -2.078125 C 0.394531 -2.179688 0.359375 -2.3125 0.359375 -2.46875 C 0.359375 -2.601562 0.390625 -2.734375 0.453125 -2.859375 C 0.515625 -2.984375 0.609375 -3.09375 0.734375 -3.1875 C 0.859375 -3.28125 1.007812 -3.351562 1.1875 -3.40625 C 1.363281 -3.457031 1.5625 -3.484375 1.78125 -3.484375 C 2.007812 -3.484375 2.21875 -3.457031 2.40625 -3.40625 C 2.59375 -3.363281 2.75 -3.300781 2.875 -3.21875 C 3.007812 -3.144531 3.109375 -3.046875 3.171875 -2.921875 C 3.242188 -2.804688 3.28125 -2.675781 3.28125 -2.53125 C 3.28125 -2.4375 3.242188 -2.367188 3.171875 -2.328125 C 3.097656 -2.296875 2.960938 -2.28125 2.765625 -2.28125 C 2.585938 -2.28125 2.460938 -2.300781 2.390625 -2.34375 C 2.328125 -2.394531 2.289062 -2.484375 2.28125 -2.609375 C 2.269531 -2.671875 2.253906 -2.734375 2.234375 -2.796875 C 2.222656 -2.859375 2.195312 -2.914062 2.15625 -2.96875 C 2.125 -3.03125 2.078125 -3.078125 2.015625 -3.109375 C 1.960938 -3.140625 1.882812 -3.15625 1.78125 -3.15625 C 1.65625 -3.15625 1.5625 -3.132812 1.5 -3.09375 C 1.4375 -3.0625 1.390625 -3.019531 1.359375 -2.96875 C 1.328125 -2.914062 1.304688 -2.859375 1.296875 -2.796875 C 1.296875 -2.734375 1.296875 -2.671875 1.296875 -2.609375 C 1.296875 -2.503906 1.316406 -2.414062 1.359375 -2.34375 C 1.398438 -2.28125 1.457031 -2.222656 1.53125 -2.171875 C 1.613281 -2.117188 1.707031 -2.070312 1.8125 -2.03125 C 1.925781 -1.988281 2.050781 -1.941406 2.1875 -1.890625 C 2.414062 -1.816406 2.609375 -1.738281 2.765625 -1.65625 C 2.921875 -1.582031 3.046875 -1.503906 3.140625 -1.421875 C 3.234375 -1.335938 3.296875 -1.242188 3.328125 -1.140625 C 3.367188 -1.046875 3.390625 -0.941406 3.390625 -0.828125 C 3.390625 -0.640625 3.347656 -0.476562 3.265625 -0.34375 C 3.191406 -0.207031 3.085938 -0.09375 2.953125 0 C 2.816406 0.0820312 2.648438 0.144531 2.453125 0.1875 C 2.265625 0.226562 2.0625 0.25 1.84375 0.25 C 1.582031 0.25 1.359375 0.21875 1.171875 0.15625 C 0.992188 0.101562 0.84375 0.03125 0.71875 -0.0625 C 0.601562 -0.15625 0.507812 -0.257812 0.4375 -0.375 C 0.375 -0.5 0.332031 -0.617188 0.3125 -0.734375 Z M 0.3125 -0.734375 "/></g></g></g><g fill="#8c52ff" fill-opacity="1"><g transform="translate(151.138524, 44.002416)"><g><path d="M 0.046875 -3.265625 C 0.046875 -3.367188 0.09375 -3.421875 0.1875 -3.421875 L 0.5625 -3.421875 L 0.5625 -4.28125 C 0.5625 -4.351562 0.582031 -4.414062 0.625 -4.46875 C 0.664062 -4.53125 0.734375 -4.5625 0.828125 -4.5625 L 1.3125 -4.5625 C 1.382812 -4.5625 1.445312 -4.535156 1.5 -4.484375 C 1.550781 -4.429688 1.578125 -4.363281 1.578125 -4.28125 L 1.578125 -3.421875 L 2.109375 -3.421875 C 2.203125 -3.421875 2.25 -3.367188 2.25 -3.265625 C 2.25 -3.148438 2.203125 -3.09375 2.109375 -3.09375 L 1.578125 -3.09375 L 1.578125 -0.984375 C 1.578125 -0.710938 1.597656 -0.503906 1.640625 -0.359375 C 1.691406 -0.210938 1.773438 -0.140625 1.890625 -0.140625 C 1.960938 -0.140625 2.039062 -0.148438 2.125 -0.171875 C 2.207031 -0.203125 2.269531 -0.21875 2.3125 -0.21875 C 2.375 -0.21875 2.410156 -0.207031 2.421875 -0.1875 C 2.441406 -0.164062 2.453125 -0.128906 2.453125 -0.078125 C 2.453125 0.00390625 2.4375 0.0546875 2.40625 0.078125 C 2.375 0.0976562 2.335938 0.117188 2.296875 0.140625 C 2.242188 0.171875 2.164062 0.195312 2.0625 0.21875 C 1.957031 0.238281 1.863281 0.25 1.78125 0.25 C 1.332031 0.25 1.015625 0.15625 0.828125 -0.03125 C 0.648438 -0.226562 0.5625 -0.523438 0.5625 -0.921875 L 0.5625 -3.09375 L 0.1875 -3.09375 C 0.09375 -3.09375 0.046875 -3.148438 0.046875 -3.265625 Z M 0.046875 -3.265625 "/></g></g></g><g fill="#8c52ff" fill-opacity="1"><g transform="translate(153.639158, 44.002416)"><g><path d="M 0.421875 -3.15625 C 0.421875 -3.332031 0.507812 -3.421875 0.6875 -3.421875 L 1.203125 -3.421875 C 1.296875 -3.421875 1.359375 -3.390625 1.390625 -3.328125 C 1.421875 -3.265625 1.4375 -3.207031 1.4375 -3.15625 L 1.4375 -2.890625 C 1.46875 -2.972656 1.503906 -3.046875 1.546875 -3.109375 C 1.585938 -3.179688 1.640625 -3.242188 1.703125 -3.296875 C 1.765625 -3.359375 1.832031 -3.40625 1.90625 -3.4375 C 1.988281 -3.46875 2.078125 -3.484375 2.171875 -3.484375 C 2.304688 -3.484375 2.421875 -3.472656 2.515625 -3.453125 C 2.609375 -3.429688 2.695312 -3.382812 2.78125 -3.3125 C 2.84375 -3.257812 2.875 -3.191406 2.875 -3.109375 C 2.882812 -3.035156 2.832031 -2.945312 2.71875 -2.84375 C 2.632812 -2.769531 2.554688 -2.710938 2.484375 -2.671875 C 2.421875 -2.640625 2.367188 -2.648438 2.328125 -2.703125 C 2.265625 -2.804688 2.203125 -2.890625 2.140625 -2.953125 C 2.078125 -3.023438 2.007812 -3.0625 1.9375 -3.0625 C 1.875 -3.0625 1.816406 -3.039062 1.765625 -3 C 1.710938 -2.957031 1.664062 -2.90625 1.625 -2.84375 C 1.582031 -2.78125 1.546875 -2.707031 1.515625 -2.625 C 1.484375 -2.539062 1.457031 -2.460938 1.4375 -2.390625 L 1.4375 -0.0625 C 1.4375 0.101562 1.363281 0.1875 1.21875 0.1875 L 0.65625 0.1875 C 0.582031 0.1875 0.523438 0.164062 0.484375 0.125 C 0.441406 0.09375 0.421875 0.03125 0.421875 -0.0625 Z M 0.421875 -3.15625 "/></g></g></g><g fill="#8c52ff" fill-opacity="1"><g transform="translate(156.951171, 44.002416)"><g><path d="M 3.5625 -3.421875 C 3.65625 -3.421875 3.707031 -3.394531 3.71875 -3.34375 C 3.738281 -3.289062 3.738281 -3.226562 3.71875 -3.15625 L 2.140625 0.8125 C 2.097656 0.925781 2.039062 1.03125 1.96875 1.125 C 1.90625 1.226562 1.828125 1.316406 1.734375 1.390625 C 1.640625 1.460938 1.53125 1.519531 1.40625 1.5625 C 1.289062 1.613281 1.15625 1.640625 1 1.640625 C 0.957031 1.640625 0.898438 1.632812 0.828125 1.625 C 0.765625 1.625 0.691406 1.617188 0.609375 1.609375 C 0.535156 1.597656 0.460938 1.582031 0.390625 1.5625 C 0.316406 1.550781 0.253906 1.523438 0.203125 1.484375 C 0.128906 1.441406 0.09375 1.382812 0.09375 1.3125 C 0.09375 1.257812 0.0976562 1.210938 0.109375 1.171875 C 0.128906 1.140625 0.164062 1.128906 0.21875 1.140625 C 0.320312 1.160156 0.421875 1.179688 0.515625 1.203125 C 0.609375 1.234375 0.707031 1.25 0.8125 1.25 C 0.945312 1.25 1.0625 1.195312 1.15625 1.09375 C 1.257812 0.988281 1.359375 0.832031 1.453125 0.625 L 1.5625 0.3125 L 1.15625 -0.671875 L 0.125 -3.15625 C 0.101562 -3.207031 0.09375 -3.265625 0.09375 -3.328125 C 0.101562 -3.390625 0.148438 -3.421875 0.234375 -3.421875 L 0.78125 -3.421875 C 0.925781 -3.421875 1.019531 -3.363281 1.0625 -3.25 L 1.75 -1.28125 L 1.96875 -0.609375 L 2.796875 -3.25 C 2.847656 -3.363281 2.921875 -3.421875 3.015625 -3.421875 Z M 3.5625 -3.421875 "/></g></g></g></svg>