<svg xmlns="http://www.w3.org/2000/svg" xmlns:xlink="http://www.w3.org/1999/xlink" width="232" zoomAndPan="magnify" viewBox="0 0 174 44.999999" height="60" preserveAspectRatio="xMidYMid meet" version="1.0"><defs><g/><clipPath id="596dafeef6"><path d="M 20.144531 5.1875 L 60.433594 5.1875 L 60.433594 39.8125 L 20.144531 39.8125 Z M 20.144531 5.1875 " clip-rule="nonzero"/></clipPath><clipPath id="22e0dee47e"><path d="M 60.433594 22.5 L 50.359375 39.8125 L 30.21875 39.8125 L 20.144531 22.5 L 30.21875 5.1875 L 50.359375 5.1875 L 60.433594 22.5 " clip-rule="nonzero"/></clipPath><clipPath id="24d5fd906f"><path d="M 30.121094 5.1875 L 36.257812 5.1875 L 36.257812 39.8125 L 30.121094 39.8125 Z M 30.121094 5.1875 " clip-rule="nonzero"/></clipPath><clipPath id="99d286eb13"><path d="M 44.320312 5.1875 L 50.457031 5.1875 L 50.457031 39.8125 L 44.320312 39.8125 Z M 44.320312 5.1875 " clip-rule="nonzero"/></clipPath><clipPath id="afc55efb55"><path d="M 30.117188 19.429688 L 50.457031 19.429688 L 50.457031 25.570312 L 30.117188 25.570312 Z M 30.117188 19.429688 " clip-rule="nonzero"/></clipPath><clipPath id="d83eaaedfe"><path d="M 31.589844 13.441406 L 47.910156 13.441406 L 47.910156 29.761719 L 31.589844 29.761719 Z M 31.589844 13.441406 " clip-rule="nonzero"/></clipPath><clipPath id="ed3c4b371b"><path d="M 31.589844 15.929688 L 34.097656 13.421875 L 47.945312 27.273438 L 45.441406 29.777344 Z M 31.589844 15.929688 " clip-rule="nonzero"/></clipPath><clipPath id="1b4accf0ae"><path d="M 31.589844 15.929688 L 34.039062 13.476562 L 47.859375 27.296875 L 45.410156 29.746094 Z M 31.589844 15.929688 " clip-rule="nonzero"/></clipPath><clipPath id="5ffd06f713"><path d="M 32.429688 14.28125 L 48.75 14.28125 L 48.75 30.71875 L 32.429688 30.71875 Z M 32.429688 14.28125 " clip-rule="nonzero"/></clipPath><clipPath id="23dcaf0569"><path d="M 46.265625 14.335938 L 48.769531 16.839844 L 34.921875 30.691406 L 32.414062 28.183594 Z M 46.265625 14.335938 " clip-rule="nonzero"/></clipPath><clipPath id="22465dc027"><path d="M 46.265625 14.335938 L 48.714844 16.785156 L 34.898438 30.605469 L 32.445312 28.152344 Z M 46.265625 14.335938 " clip-rule="nonzero"/></clipPath></defs><g clip-path="url(#596dafeef6)"><g clip-path="url(#22e0dee47e)"><path fill="#8c52ff" d="M 20.144531 5.1875 L 60.433594 5.1875 L 60.433594 39.8125 L 20.144531 39.8125 Z M 20.144531 5.1875 " fill-opacity="1" fill-rule="nonzero"/></g></g><g clip-path="url(#24d5fd906f)"><path fill="#ffffff" d="M 30.121094 5.1875 L 36.398438 5.1875 L 36.398438 39.890625 L 30.121094 39.890625 Z M 30.121094 5.1875 " fill-opacity="1" fill-rule="nonzero"/></g><g clip-path="url(#99d286eb13)"><path fill="#ffffff" d="M 44.320312 5.1875 L 50.597656 5.1875 L 50.597656 39.890625 L 44.320312 39.890625 Z M 44.320312 5.1875 " fill-opacity="1" fill-rule="nonzero"/></g><g clip-path="url(#afc55efb55)"><path fill="#ffffff" d="M 29.96875 19.429688 L 50.457031 19.429688 L 50.457031 25.710938 L 29.96875 25.710938 Z M 29.96875 19.429688 " fill-opacity="1" fill-rule="nonzero"/></g><g clip-path="url(#d83eaaedfe)"><g clip-path="url(#ed3c4b371b)"><g clip-path="url(#1b4accf0ae)"><path fill="#ffffff" d="M 31.589844 15.929688 L 34.097656 13.421875 L 47.945312 27.273438 L 45.441406 29.777344 Z M 31.589844 15.929688 " fill-opacity="1" fill-rule="nonzero"/></g></g></g><g clip-path="url(#5ffd06f713)"><g clip-path="url(#23dcaf0569)"><g clip-path="url(#22465dc027)"><path fill="#ffffff" d="M 46.265625 14.335938 L 48.769531 16.839844 L 34.921875 30.691406 L 32.414062 28.183594 Z M 46.265625 14.335938 " fill-opacity="1" fill-rule="nonzero"/></g></g></g><g fill="#8c52ff" fill-opacity="1"><g transform="translate(74.637459, 26.417957)"><g><path d="M 2.140625 -15.125 C 2.140625 -15.664062 2.234375 -16.203125 2.421875 -16.734375 C 2.617188 -17.265625 2.894531 -17.742188 3.25 -18.171875 C 3.601562 -18.597656 4.039062 -18.9375 4.5625 -19.1875 C 5.082031 -19.445312 5.675781 -19.578125 6.34375 -19.578125 L 20.84375 -19.578125 C 21.289062 -19.578125 21.671875 -19.414062 21.984375 -19.09375 C 22.304688 -18.769531 22.46875 -18.367188 22.46875 -17.890625 L 22.46875 -14.046875 C 22.46875 -13.566406 22.304688 -13.160156 21.984375 -12.828125 C 21.671875 -12.503906 21.289062 -12.34375 20.84375 -12.34375 L 13.703125 -12.34375 C 14.015625 -12.207031 14.285156 -12.019531 14.515625 -11.78125 C 14.753906 -11.550781 14.925781 -11.296875 15.03125 -11.015625 L 23.203125 -11.015625 C 23.453125 -11.015625 23.644531 -10.925781 23.78125 -10.75 C 23.914062 -10.582031 23.984375 -10.390625 23.984375 -10.171875 C 23.984375 -9.953125 23.914062 -9.753906 23.78125 -9.578125 C 23.644531 -9.410156 23.453125 -9.328125 23.203125 -9.328125 L 1.71875 -9.328125 C 1.46875 -9.328125 1.28125 -9.410156 1.15625 -9.578125 C 1.03125 -9.753906 0.96875 -9.953125 0.96875 -10.171875 C 0.96875 -10.390625 1.03125 -10.582031 1.15625 -10.75 C 1.28125 -10.925781 1.46875 -11.015625 1.71875 -11.015625 L 9.90625 -11.015625 C 10 -11.296875 10.160156 -11.550781 10.390625 -11.78125 C 10.628906 -12.019531 10.90625 -12.207031 11.21875 -12.34375 L 2.140625 -12.34375 Z M 2.171875 -5.46875 C 2.171875 -6.332031 2.4375 -7.046875 2.96875 -7.609375 C 3.507812 -8.171875 4.425781 -8.453125 5.71875 -8.453125 L 20.875 -8.453125 C 21.300781 -8.453125 21.664062 -8.320312 21.96875 -8.0625 C 22.28125 -7.8125 22.4375 -7.492188 22.4375 -7.109375 L 22.4375 -4.546875 C 22.4375 -4.140625 22.300781 -3.769531 22.03125 -3.4375 C 21.769531 -3.113281 21.382812 -2.953125 20.875 -2.953125 L 15.078125 -2.953125 L 15.078125 0.546875 C 15.078125 1.304688 14.914062 1.875 14.59375 2.25 C 14.269531 2.632812 13.679688 2.828125 12.828125 2.828125 L 9.359375 2.828125 C 9.171875 2.828125 9.019531 2.8125 8.90625 2.78125 C 8.789062 2.75 8.703125 2.671875 8.640625 2.546875 C 8.585938 2.421875 8.550781 2.242188 8.53125 2.015625 C 8.507812 1.785156 8.5 1.46875 8.5 1.0625 L 10.078125 1.0625 L 10.078125 -2.953125 L 2.171875 -2.953125 Z M 7.09375 -4.578125 L 16.671875 -4.578125 C 16.929688 -4.578125 17.148438 -4.644531 17.328125 -4.78125 C 17.515625 -4.925781 17.609375 -5.113281 17.609375 -5.34375 L 17.609375 -6.125 C 17.609375 -6.351562 17.515625 -6.546875 17.328125 -6.703125 C 17.148438 -6.859375 16.929688 -6.9375 16.671875 -6.9375 L 9.109375 -6.9375 C 8.304688 -6.9375 7.769531 -6.800781 7.5 -6.53125 C 7.226562 -6.257812 7.09375 -5.859375 7.09375 -5.328125 Z M 20.390625 -2.234375 C 20.742188 -2.234375 20.992188 -2.164062 21.140625 -2.03125 C 21.296875 -1.90625 21.40625 -1.726562 21.46875 -1.5 C 21.550781 -1.226562 21.640625 -0.941406 21.734375 -0.640625 C 21.835938 -0.347656 21.941406 -0.0546875 22.046875 0.234375 C 22.160156 0.523438 22.265625 0.800781 22.359375 1.0625 C 22.460938 1.332031 22.554688 1.566406 22.640625 1.765625 C 22.753906 2.046875 22.769531 2.242188 22.6875 2.359375 C 22.601562 2.472656 22.363281 2.53125 21.96875 2.53125 L 18.8125 2.53125 C 18.40625 2.53125 18.125 2.46875 17.96875 2.34375 C 17.8125 2.226562 17.675781 2.046875 17.5625 1.796875 C 17.5 1.660156 17.414062 1.46875 17.3125 1.21875 C 17.207031 0.96875 17.101562 0.691406 17 0.390625 C 16.90625 0.0976562 16.804688 -0.210938 16.703125 -0.546875 C 16.609375 -0.878906 16.53125 -1.195312 16.46875 -1.5 C 16.40625 -1.84375 16.445312 -2.050781 16.59375 -2.125 C 16.738281 -2.195312 16.976562 -2.234375 17.3125 -2.234375 Z M 3.203125 -1.5 C 3.273438 -1.726562 3.378906 -1.90625 3.515625 -2.03125 C 3.660156 -2.164062 3.898438 -2.234375 4.234375 -2.234375 L 7.40625 -2.234375 C 7.738281 -2.234375 7.957031 -2.195312 8.0625 -2.125 C 8.175781 -2.050781 8.191406 -1.84375 8.109375 -1.5 C 8.046875 -1.195312 7.972656 -0.878906 7.890625 -0.546875 C 7.804688 -0.210938 7.710938 0.0976562 7.609375 0.390625 C 7.515625 0.691406 7.425781 0.96875 7.34375 1.21875 C 7.257812 1.46875 7.179688 1.660156 7.109375 1.796875 C 6.992188 2.046875 6.863281 2.226562 6.71875 2.34375 C 6.570312 2.46875 6.289062 2.53125 5.875 2.53125 L 2.734375 2.53125 C 2.316406 2.53125 2.066406 2.460938 1.984375 2.328125 C 1.898438 2.203125 1.921875 2 2.046875 1.71875 C 2.203125 1.320312 2.390625 0.816406 2.609375 0.203125 C 2.835938 -0.398438 3.035156 -0.96875 3.203125 -1.5 Z M 9.84375 -18.0625 C 9.3125 -18.0625 8.859375 -17.921875 8.484375 -17.640625 C 8.117188 -17.367188 7.828125 -17.046875 7.609375 -16.671875 L 17.609375 -16.671875 L 17.609375 -16.921875 C 17.609375 -17.210938 17.515625 -17.472656 17.328125 -17.703125 C 17.140625 -17.941406 16.898438 -18.0625 16.609375 -18.0625 Z M 16.609375 -13.859375 C 16.898438 -13.859375 17.140625 -13.972656 17.328125 -14.203125 C 17.515625 -14.429688 17.609375 -14.6875 17.609375 -14.96875 L 17.609375 -15.046875 L 7.265625 -15.046875 L 7.265625 -13.859375 Z M 16.609375 -13.859375 "/></g></g></g><g fill="#8c52ff" fill-opacity="1"><g transform="translate(99.510602, 26.417957)"><g><path d="M 6.96875 -11.765625 C 6.96875 -12.910156 7.207031 -13.753906 7.6875 -14.296875 C 8.164062 -14.847656 8.851562 -15.125 9.75 -15.125 L 11.59375 -15.125 C 11.59375 -15.175781 11.597656 -15.222656 11.609375 -15.265625 C 11.628906 -15.316406 11.65625 -15.378906 11.6875 -15.453125 L 12.5625 -17.390625 L 11.046875 -17.390625 L 10.703125 -16.3125 C 10.617188 -16.113281 10.515625 -15.976562 10.390625 -15.90625 C 10.273438 -15.832031 10.046875 -15.796875 9.703125 -15.796875 L 7.65625 -15.796875 C 7.34375 -15.796875 7.140625 -15.835938 7.046875 -15.921875 C 6.960938 -16.003906 6.925781 -16.160156 6.9375 -16.390625 L 8.140625 -19.484375 C 8.171875 -19.660156 8.238281 -19.8125 8.34375 -19.9375 C 8.445312 -20.0625 8.644531 -20.125 8.9375 -20.125 L 11.21875 -20.125 C 11.46875 -20.125 11.632812 -20.078125 11.71875 -19.984375 C 11.8125 -19.890625 11.816406 -19.695312 11.734375 -19.40625 L 11.59375 -18.953125 L 14.96875 -18.953125 C 15.664062 -18.953125 16.101562 -18.851562 16.28125 -18.65625 C 16.46875 -18.457031 16.429688 -18 16.171875 -17.28125 L 15.515625 -15.5 C 15.429688 -15.34375 15.359375 -15.21875 15.296875 -15.125 L 16 -15.125 C 16.3125 -15.125 16.582031 -14.976562 16.8125 -14.6875 C 17.039062 -14.394531 17.15625 -14 17.15625 -13.5 L 17.15625 -7.609375 C 17.15625 -7.128906 17.039062 -6.710938 16.8125 -6.359375 C 16.582031 -6.015625 16.3125 -5.84375 16 -5.84375 L 6.96875 -5.84375 Z M 23.328125 -13.109375 C 23.578125 -13.109375 23.769531 -13.019531 23.90625 -12.84375 C 24.039062 -12.675781 24.109375 -12.484375 24.109375 -12.265625 C 24.109375 -12.046875 24.039062 -11.847656 23.90625 -11.671875 C 23.769531 -11.503906 23.578125 -11.421875 23.328125 -11.421875 L 22.609375 -11.421875 L 22.609375 0.59375 C 22.609375 1.269531 22.46875 1.78125 22.1875 2.125 C 21.90625 2.476562 21.375 2.65625 20.59375 2.65625 L 18.53125 2.65625 C 18.164062 2.65625 17.941406 2.53125 17.859375 2.28125 C 17.773438 2.039062 17.734375 1.5625 17.734375 0.84375 L 18.734375 0.84375 L 18.734375 -11.421875 L 18.140625 -11.421875 C 17.890625 -11.421875 17.695312 -11.503906 17.5625 -11.671875 C 17.425781 -11.847656 17.359375 -12.046875 17.359375 -12.265625 C 17.359375 -12.484375 17.425781 -12.675781 17.5625 -12.84375 C 17.695312 -13.019531 17.890625 -13.109375 18.140625 -13.109375 Z M 2.015625 -5.375 L 1.5 -5.375 C 1.113281 -5.375 0.851562 -5.425781 0.71875 -5.53125 C 0.582031 -5.644531 0.578125 -5.84375 0.703125 -6.125 C 1.128906 -7.132812 1.503906 -8.148438 1.828125 -9.171875 C 2.148438 -10.203125 2.421875 -11.195312 2.640625 -12.15625 C 2.671875 -12.375 2.734375 -12.5625 2.828125 -12.71875 C 2.929688 -12.875 3.148438 -12.953125 3.484375 -12.953125 L 5.796875 -12.953125 C 6.109375 -12.953125 6.320312 -12.898438 6.4375 -12.796875 C 6.550781 -12.703125 6.585938 -12.488281 6.546875 -12.15625 C 6.390625 -11.3125 6.1875 -10.410156 5.9375 -9.453125 C 5.695312 -8.503906 5.4375 -7.648438 5.15625 -6.890625 C 5.832031 -6.753906 6.171875 -6.273438 6.171875 -5.453125 L 6.171875 1.1875 C 6.171875 1.601562 6.03125 1.957031 5.75 2.25 C 5.476562 2.539062 5.15625 2.6875 4.78125 2.6875 L 3.390625 2.6875 C 2.472656 2.6875 2.015625 2.1875 2.015625 1.1875 Z M 9.78125 -4.78125 C 9.90625 -5.09375 10.035156 -5.304688 10.171875 -5.421875 C 10.304688 -5.535156 10.503906 -5.59375 10.765625 -5.59375 L 12.90625 -5.59375 C 13.238281 -5.59375 13.4375 -5.503906 13.5 -5.328125 C 13.570312 -5.160156 13.539062 -4.898438 13.40625 -4.546875 L 16.8125 -4.546875 C 17.0625 -4.546875 17.253906 -4.460938 17.390625 -4.296875 C 17.523438 -4.128906 17.59375 -3.945312 17.59375 -3.75 C 17.59375 -3.550781 17.523438 -3.367188 17.390625 -3.203125 C 17.253906 -3.035156 17.0625 -2.953125 16.8125 -2.953125 L 12.859375 -2.953125 L 12.640625 -2.34375 C 12.703125 -2.351562 12.769531 -2.363281 12.84375 -2.375 C 12.914062 -2.382812 13.003906 -2.390625 13.109375 -2.390625 L 14.65625 -2.390625 C 15.0625 -2.390625 15.328125 -2.335938 15.453125 -2.234375 C 15.578125 -2.140625 15.664062 -2.023438 15.71875 -1.890625 C 15.820312 -1.609375 15.9375 -1.296875 16.0625 -0.953125 C 16.195312 -0.617188 16.332031 -0.28125 16.46875 0.0625 C 16.601562 0.414062 16.734375 0.757812 16.859375 1.09375 C 16.992188 1.425781 17.101562 1.71875 17.1875 1.96875 C 17.21875 2.0625 17.25 2.160156 17.28125 2.265625 C 17.320312 2.378906 17.328125 2.484375 17.296875 2.578125 C 17.273438 2.671875 17.207031 2.738281 17.09375 2.78125 C 16.988281 2.832031 16.820312 2.859375 16.59375 2.859375 L 14.75 2.859375 C 14.269531 2.859375 13.957031 2.8125 13.8125 2.71875 C 13.675781 2.632812 13.566406 2.453125 13.484375 2.171875 C 13.316406 1.585938 13.117188 0.988281 12.890625 0.375 C 12.671875 -0.238281 12.476562 -0.84375 12.3125 -1.4375 C 12.050781 -0.757812 11.78125 -0.113281 11.5 0.5 C 11.226562 1.125 10.953125 1.6875 10.671875 2.1875 C 10.585938 2.320312 10.507812 2.429688 10.4375 2.515625 C 10.363281 2.597656 10.265625 2.65625 10.140625 2.6875 C 10.023438 2.71875 9.890625 2.738281 9.734375 2.75 C 9.578125 2.757812 9.382812 2.765625 9.15625 2.765625 L 7.484375 2.765625 C 7.003906 2.765625 6.710938 2.664062 6.609375 2.46875 C 6.515625 2.269531 6.554688 2.007812 6.734375 1.6875 C 7.171875 1.007812 7.585938 0.25 7.984375 -0.59375 C 8.378906 -1.4375 8.726562 -2.222656 9.03125 -2.953125 L 7.359375 -2.953125 C 7.109375 -2.953125 6.914062 -3.035156 6.78125 -3.203125 C 6.65625 -3.367188 6.59375 -3.550781 6.59375 -3.75 C 6.59375 -3.945312 6.65625 -4.128906 6.78125 -4.296875 C 6.914062 -4.460938 7.109375 -4.546875 7.359375 -4.546875 L 9.671875 -4.546875 Z M 2.9375 -19.484375 C 3.019531 -19.765625 3.117188 -19.960938 3.234375 -20.078125 C 3.347656 -20.203125 3.53125 -20.265625 3.78125 -20.265625 L 6.5 -20.265625 C 6.789062 -20.265625 7.003906 -20.210938 7.140625 -20.109375 C 7.273438 -20.015625 7.300781 -19.804688 7.21875 -19.484375 C 7.113281 -19.035156 6.988281 -18.546875 6.84375 -18.015625 C 6.707031 -17.492188 6.5625 -16.984375 6.40625 -16.484375 C 6.25 -15.992188 6.09375 -15.535156 5.9375 -15.109375 C 5.78125 -14.691406 5.640625 -14.359375 5.515625 -14.109375 C 5.421875 -13.867188 5.289062 -13.695312 5.125 -13.59375 C 4.957031 -13.5 4.679688 -13.453125 4.296875 -13.453125 L 1.640625 -13.453125 C 1.253906 -13.453125 1.019531 -13.503906 0.9375 -13.609375 C 0.863281 -13.722656 0.890625 -13.921875 1.015625 -14.203125 C 1.367188 -14.960938 1.707031 -15.796875 2.03125 -16.703125 C 2.351562 -17.609375 2.65625 -18.535156 2.9375 -19.484375 Z M 22.78125 -19.453125 C 23.03125 -19.453125 23.222656 -19.363281 23.359375 -19.1875 C 23.492188 -19.019531 23.5625 -18.828125 23.5625 -18.609375 C 23.5625 -18.390625 23.492188 -18.191406 23.359375 -18.015625 C 23.222656 -17.847656 23.03125 -17.765625 22.78125 -17.765625 L 18.65625 -17.765625 C 18.40625 -17.765625 18.210938 -17.847656 18.078125 -18.015625 C 17.953125 -18.191406 17.890625 -18.390625 17.890625 -18.609375 C 17.890625 -18.828125 17.953125 -19.019531 18.078125 -19.1875 C 18.210938 -19.363281 18.40625 -19.453125 18.65625 -19.453125 Z M 10.828125 -9.875 L 9.796875 -9.875 L 9.796875 -7.3125 L 10.828125 -7.3125 Z M 13.5625 -7.3125 C 13.738281 -7.3125 13.890625 -7.414062 14.015625 -7.625 C 14.140625 -7.832031 14.203125 -8.085938 14.203125 -8.390625 L 14.203125 -9.875 L 13.28125 -9.875 L 13.28125 -7.3125 Z M 9.796875 -11.296875 L 10.828125 -11.296875 L 10.828125 -13.703125 C 10.691406 -13.703125 10.5625 -13.6875 10.4375 -13.65625 C 10.320312 -13.625 10.210938 -13.546875 10.109375 -13.421875 C 10.015625 -13.296875 9.9375 -13.09375 9.875 -12.8125 C 9.820312 -12.539062 9.796875 -12.175781 9.796875 -11.71875 Z M 13.28125 -13.703125 L 13.28125 -11.296875 L 14.203125 -11.296875 L 14.203125 -12.59375 C 14.203125 -12.988281 14.164062 -13.269531 14.09375 -13.4375 C 14.03125 -13.613281 13.914062 -13.703125 13.75 -13.703125 Z M 13.28125 -13.703125 "/></g></g></g><g fill="#8c52ff" fill-opacity="1"><g transform="translate(124.383744, 26.417957)"><g><path d="M 16.171875 -11.546875 C 16.453125 -11.753906 16.6875 -11.90625 16.875 -12 C 17.0625 -12.09375 17.28125 -12.140625 17.53125 -12.140625 L 20.5 -12.140625 C 20.726562 -12.140625 20.847656 -12.039062 20.859375 -11.84375 C 20.878906 -11.65625 20.828125 -11.515625 20.703125 -11.421875 C 20.046875 -10.921875 19.351562 -10.429688 18.625 -9.953125 L 21.09375 -9.953125 C 21.289062 -9.953125 21.4375 -9.890625 21.53125 -9.765625 C 21.625 -9.640625 21.726562 -9.460938 21.84375 -9.234375 L 23.4375 -5.703125 C 23.53125 -5.378906 23.519531 -5.1875 23.40625 -5.125 C 23.289062 -5.0625 23.117188 -5.03125 22.890625 -5.03125 L 20.453125 -5.03125 C 20.265625 -5.03125 20.125 -5.054688 20.03125 -5.109375 C 19.945312 -5.171875 19.851562 -5.332031 19.75 -5.59375 L 19.546875 -6.015625 C 19.484375 -5.640625 19.28125 -5.453125 18.9375 -5.453125 L 7.34375 -5.453125 C 8.15625 -5.984375 9.046875 -6.578125 10.015625 -7.234375 C 10.984375 -7.898438 11.914062 -8.546875 12.8125 -9.171875 L 7.359375 -9.171875 C 8.054688 -9.867188 8.710938 -10.53125 9.328125 -11.15625 C 9.953125 -11.789062 10.441406 -12.289062 10.796875 -12.65625 C 10.960938 -12.84375 11.128906 -12.992188 11.296875 -13.109375 C 11.460938 -13.222656 11.660156 -13.28125 11.890625 -13.28125 L 13.984375 -13.28125 C 14.191406 -13.28125 14.34375 -13.203125 14.4375 -13.046875 C 14.53125 -12.890625 14.519531 -12.742188 14.40625 -12.609375 C 14.019531 -12.234375 13.640625 -11.875 13.265625 -11.53125 C 12.898438 -11.1875 12.59375 -10.910156 12.34375 -10.703125 L 15 -10.703125 Z M 12.140625 -4.359375 C 12.316406 -4.640625 12.484375 -4.84375 12.640625 -4.96875 C 12.804688 -5.101562 13.03125 -5.171875 13.3125 -5.171875 L 16 -5.171875 C 16.363281 -5.171875 16.582031 -5.050781 16.65625 -4.8125 C 16.726562 -4.570312 16.707031 -4.335938 16.59375 -4.109375 L 16.390625 -3.75 L 22.828125 -3.75 C 23.097656 -3.75 23.296875 -3.660156 23.421875 -3.484375 C 23.546875 -3.316406 23.609375 -3.128906 23.609375 -2.921875 C 23.609375 -2.710938 23.546875 -2.519531 23.421875 -2.34375 C 23.296875 -2.175781 23.097656 -2.09375 22.828125 -2.09375 L 19.296875 -2.09375 C 19.546875 -1.8125 19.828125 -1.503906 20.140625 -1.171875 C 20.460938 -0.835938 20.785156 -0.492188 21.109375 -0.140625 C 21.441406 0.203125 21.773438 0.539062 22.109375 0.875 C 22.441406 1.21875 22.757812 1.523438 23.0625 1.796875 C 23.226562 1.941406 23.285156 2.125 23.234375 2.34375 C 23.179688 2.570312 22.914062 2.6875 22.4375 2.6875 L 19.671875 2.6875 C 19.273438 2.6875 18.976562 2.640625 18.78125 2.546875 C 18.59375 2.453125 18.394531 2.265625 18.1875 1.984375 C 18.082031 1.859375 17.914062 1.65625 17.6875 1.375 C 17.457031 1.101562 17.195312 0.804688 16.90625 0.484375 C 16.625 0.160156 16.316406 -0.1875 15.984375 -0.5625 C 15.660156 -0.9375 15.347656 -1.285156 15.046875 -1.609375 C 14.628906 -1.003906 14.191406 -0.40625 13.734375 0.1875 C 13.285156 0.789062 12.78125 1.429688 12.21875 2.109375 C 12.019531 2.359375 11.804688 2.519531 11.578125 2.59375 C 11.359375 2.675781 11 2.71875 10.5 2.71875 L 8.15625 2.71875 C 7.65625 2.71875 7.34375 2.601562 7.21875 2.375 C 7.101562 2.15625 7.164062 1.898438 7.40625 1.609375 C 8.019531 0.921875 8.582031 0.269531 9.09375 -0.34375 C 9.613281 -0.957031 10.085938 -1.539062 10.515625 -2.09375 L 7.765625 -2.09375 C 7.492188 -2.09375 7.289062 -2.175781 7.15625 -2.34375 C 7.03125 -2.519531 6.96875 -2.710938 6.96875 -2.921875 C 6.96875 -3.128906 7.03125 -3.316406 7.15625 -3.484375 C 7.289062 -3.660156 7.492188 -3.75 7.765625 -3.75 L 11.734375 -3.75 C 11.816406 -3.851562 11.890625 -3.953125 11.953125 -4.046875 C 12.015625 -4.148438 12.078125 -4.253906 12.140625 -4.359375 Z M 2.640625 -6.3125 C 2.671875 -6.507812 2.726562 -6.679688 2.8125 -6.828125 C 2.90625 -6.984375 3.113281 -7.0625 3.4375 -7.0625 L 6.140625 -7.0625 C 6.421875 -7.0625 6.609375 -7.015625 6.703125 -6.921875 C 6.804688 -6.835938 6.84375 -6.632812 6.8125 -6.3125 C 6.726562 -5.582031 6.640625 -4.867188 6.546875 -4.171875 C 6.460938 -3.484375 6.359375 -2.796875 6.234375 -2.109375 C 6.117188 -1.429688 5.992188 -0.753906 5.859375 -0.078125 C 5.734375 0.585938 5.585938 1.273438 5.421875 1.984375 C 5.367188 2.222656 5.257812 2.382812 5.09375 2.46875 C 4.925781 2.550781 4.671875 2.59375 4.328125 2.59375 L 1.5625 2.59375 C 1.21875 2.59375 1.019531 2.53125 0.96875 2.40625 C 0.914062 2.289062 0.929688 2.101562 1.015625 1.84375 C 1.367188 0.59375 1.679688 -0.710938 1.953125 -2.078125 C 2.222656 -3.441406 2.453125 -4.851562 2.640625 -6.3125 Z M 7.765625 -19.109375 C 10.085938 -19.117188 12.523438 -19.160156 15.078125 -19.234375 C 17.628906 -19.316406 20.164062 -19.503906 22.6875 -19.796875 C 22.945312 -19.828125 23.113281 -19.785156 23.1875 -19.671875 C 23.269531 -19.554688 23.328125 -19.410156 23.359375 -19.234375 L 23.484375 -18.5 C 23.453125 -18.320312 23.390625 -18.203125 23.296875 -18.140625 C 23.203125 -18.085938 23.003906 -18.046875 22.703125 -18.015625 C 21.410156 -17.878906 20.140625 -17.769531 18.890625 -17.6875 C 17.640625 -17.601562 16.394531 -17.53125 15.15625 -17.46875 C 13.925781 -17.414062 12.691406 -17.367188 11.453125 -17.328125 C 10.222656 -17.296875 8.957031 -17.28125 7.65625 -17.28125 C 7.457031 -17.28125 7.289062 -17.34375 7.15625 -17.46875 C 7.03125 -17.59375 6.984375 -17.734375 7.015625 -17.890625 L 6.984375 -18.609375 C 7.003906 -18.785156 7.078125 -18.90625 7.203125 -18.96875 C 7.335938 -19.039062 7.523438 -19.085938 7.765625 -19.109375 Z M 4.171875 -13.234375 C 4.492188 -13.234375 4.796875 -13.171875 5.078125 -13.046875 C 5.359375 -12.921875 5.601562 -12.753906 5.8125 -12.546875 C 6.019531 -12.335938 6.1875 -12.09375 6.3125 -11.8125 C 6.4375 -11.53125 6.5 -11.234375 6.5 -10.921875 C 6.5 -10.585938 6.4375 -10.285156 6.3125 -10.015625 C 6.1875 -9.742188 6.019531 -9.5 5.8125 -9.28125 C 5.601562 -9.0625 5.359375 -8.894531 5.078125 -8.78125 C 4.796875 -8.664062 4.492188 -8.609375 4.171875 -8.609375 C 3.859375 -8.609375 3.5625 -8.664062 3.28125 -8.78125 C 3 -8.894531 2.753906 -9.0625 2.546875 -9.28125 C 2.335938 -9.5 2.171875 -9.742188 2.046875 -10.015625 C 1.921875 -10.285156 1.859375 -10.585938 1.859375 -10.921875 C 1.859375 -11.234375 1.921875 -11.53125 2.046875 -11.8125 C 2.171875 -12.09375 2.335938 -12.335938 2.546875 -12.546875 C 2.753906 -12.753906 3 -12.921875 3.28125 -13.046875 C 3.5625 -13.171875 3.859375 -13.234375 4.171875 -13.234375 Z M 4.171875 -19.75 C 4.492188 -19.75 4.796875 -19.691406 5.078125 -19.578125 C 5.359375 -19.460938 5.601562 -19.296875 5.8125 -19.078125 C 6.019531 -18.859375 6.1875 -18.609375 6.3125 -18.328125 C 6.4375 -18.046875 6.5 -17.75 6.5 -17.4375 C 6.5 -17.125 6.4375 -16.828125 6.3125 -16.546875 C 6.1875 -16.265625 6.019531 -16.019531 5.8125 -15.8125 C 5.601562 -15.601562 5.359375 -15.441406 5.078125 -15.328125 C 4.796875 -15.210938 4.492188 -15.15625 4.171875 -15.15625 C 3.859375 -15.15625 3.5625 -15.210938 3.28125 -15.328125 C 3 -15.441406 2.753906 -15.601562 2.546875 -15.8125 C 2.335938 -16.019531 2.171875 -16.265625 2.046875 -16.546875 C 1.921875 -16.828125 1.859375 -17.125 1.859375 -17.4375 C 1.859375 -17.75 1.921875 -18.046875 2.046875 -18.328125 C 2.171875 -18.609375 2.335938 -18.859375 2.546875 -19.078125 C 2.753906 -19.296875 3 -19.460938 3.28125 -19.578125 C 3.5625 -19.691406 3.859375 -19.75 4.171875 -19.75 Z M 19.25 -16.4375 C 19.363281 -16.570312 19.488281 -16.664062 19.625 -16.71875 C 19.769531 -16.78125 20.007812 -16.8125 20.34375 -16.8125 L 22.21875 -16.8125 C 22.832031 -16.8125 23.035156 -16.582031 22.828125 -16.125 L 22.21875 -13.828125 C 22.082031 -13.648438 21.9375 -13.523438 21.78125 -13.453125 C 21.625 -13.390625 21.351562 -13.359375 20.96875 -13.359375 L 19.25 -13.359375 C 18.519531 -13.359375 18.226562 -13.566406 18.375 -13.984375 Z M 15.078125 -17.015625 C 15.609375 -17.015625 16.054688 -16.832031 16.421875 -16.46875 C 16.785156 -16.113281 16.96875 -15.691406 16.96875 -15.203125 C 16.96875 -14.679688 16.785156 -14.242188 16.421875 -13.890625 C 16.054688 -13.535156 15.609375 -13.359375 15.078125 -13.359375 C 14.546875 -13.359375 14.097656 -13.535156 13.734375 -13.890625 C 13.367188 -14.242188 13.1875 -14.679688 13.1875 -15.203125 C 13.1875 -15.691406 13.367188 -16.113281 13.734375 -16.46875 C 14.097656 -16.832031 14.546875 -17.015625 15.078125 -17.015625 Z M 9.71875 -16.890625 C 10.25 -16.890625 10.691406 -16.710938 11.046875 -16.359375 C 11.410156 -16.003906 11.59375 -15.578125 11.59375 -15.078125 C 11.59375 -14.578125 11.410156 -14.148438 11.046875 -13.796875 C 10.691406 -13.453125 10.25 -13.28125 9.71875 -13.28125 C 9.195312 -13.28125 8.753906 -13.453125 8.390625 -13.796875 C 8.035156 -14.148438 7.859375 -14.578125 7.859375 -15.078125 C 7.859375 -15.578125 8.035156 -16.003906 8.390625 -16.359375 C 8.753906 -16.710938 9.195312 -16.890625 9.71875 -16.890625 Z M 18.265625 -9 C 18.210938 -9.132812 18.175781 -9.242188 18.15625 -9.328125 C 18.144531 -9.410156 18.140625 -9.492188 18.140625 -9.578125 C 17.367188 -9.066406 16.628906 -8.570312 15.921875 -8.09375 C 15.222656 -7.625 14.632812 -7.25 14.15625 -6.96875 L 19.15625 -6.96875 Z M 18.265625 -9 "/></g></g></g><g fill="#8c52ff" fill-opacity="1"><g transform="translate(62.413917, 39.293768)"><g><path d="M 6.265625 -1.84375 C 6.367188 -1.84375 6.4375 -1.816406 6.46875 -1.765625 C 6.5 -1.710938 6.523438 -1.648438 6.546875 -1.578125 L 7.09375 0.59375 C 7.113281 0.6875 7.097656 0.75 7.046875 0.78125 C 6.992188 0.820312 6.910156 0.84375 6.796875 0.84375 L 5.9375 0.84375 C 5.8125 0.84375 5.71875 0.828125 5.65625 0.796875 C 5.601562 0.765625 5.570312 0.707031 5.5625 0.625 L 5.5 0.390625 C 5.488281 0.492188 5.457031 0.570312 5.40625 0.625 C 5.363281 0.675781 5.285156 0.703125 5.171875 0.703125 L 0.625 0.703125 C 0.769531 0.460938 0.9375 0.1875 1.125 -0.125 C 1.3125 -0.445312 1.5 -0.785156 1.6875 -1.140625 C 1.882812 -1.492188 2.066406 -1.847656 2.234375 -2.203125 C 2.410156 -2.554688 2.5625 -2.890625 2.6875 -3.203125 C 2.707031 -3.265625 2.726562 -3.316406 2.75 -3.359375 C 2.78125 -3.398438 2.8125 -3.425781 2.84375 -3.4375 C 2.882812 -3.457031 2.929688 -3.46875 2.984375 -3.46875 C 3.035156 -3.476562 3.097656 -3.484375 3.171875 -3.484375 L 3.890625 -3.484375 C 4.078125 -3.484375 4.191406 -3.453125 4.234375 -3.390625 C 4.285156 -3.335938 4.285156 -3.234375 4.234375 -3.078125 C 4.128906 -2.796875 4.019531 -2.523438 3.90625 -2.265625 C 3.800781 -2.003906 3.6875 -1.742188 3.5625 -1.484375 C 3.4375 -1.234375 3.300781 -0.972656 3.15625 -0.703125 C 3.007812 -0.441406 2.84375 -0.160156 2.65625 0.140625 L 5.4375 0.140625 L 5.046875 -1.5625 C 5.015625 -1.675781 5.019531 -1.75 5.0625 -1.78125 C 5.113281 -1.820312 5.1875 -1.84375 5.28125 -1.84375 Z M 5.515625 -6.15625 C 5.640625 -6.15625 5.71875 -6.132812 5.75 -6.09375 C 5.78125 -6.0625 5.804688 -6.015625 5.828125 -5.953125 C 6.179688 -4.984375 6.691406 -3.9375 7.359375 -2.8125 C 7.398438 -2.738281 7.40625 -2.675781 7.375 -2.625 C 7.34375 -2.570312 7.265625 -2.546875 7.140625 -2.546875 L 6.125 -2.546875 C 6 -2.546875 5.910156 -2.554688 5.859375 -2.578125 C 5.804688 -2.609375 5.757812 -2.65625 5.71875 -2.71875 C 5.5625 -2.976562 5.414062 -3.226562 5.28125 -3.46875 C 5.144531 -3.71875 5.019531 -3.972656 4.90625 -4.234375 C 4.789062 -4.492188 4.675781 -4.765625 4.5625 -5.046875 C 4.457031 -5.328125 4.347656 -5.628906 4.234375 -5.953125 C 4.210938 -6.046875 4.222656 -6.101562 4.265625 -6.125 C 4.304688 -6.144531 4.382812 -6.15625 4.5 -6.15625 Z M 1.953125 -5.953125 C 1.972656 -6.015625 2 -6.0625 2.03125 -6.09375 C 2.070312 -6.132812 2.148438 -6.15625 2.265625 -6.15625 L 3.296875 -6.15625 C 3.398438 -6.15625 3.472656 -6.144531 3.515625 -6.125 C 3.566406 -6.101562 3.578125 -6.046875 3.546875 -5.953125 C 3.441406 -5.628906 3.332031 -5.328125 3.21875 -5.046875 C 3.113281 -4.765625 3 -4.492188 2.875 -4.234375 C 2.757812 -3.972656 2.632812 -3.71875 2.5 -3.46875 C 2.363281 -3.226562 2.21875 -2.976562 2.0625 -2.71875 C 2.019531 -2.65625 1.972656 -2.609375 1.921875 -2.578125 C 1.867188 -2.554688 1.773438 -2.546875 1.640625 -2.546875 L 0.640625 -2.546875 C 0.503906 -2.546875 0.421875 -2.570312 0.390625 -2.625 C 0.367188 -2.675781 0.378906 -2.738281 0.421875 -2.8125 C 0.753906 -3.375 1.046875 -3.914062 1.296875 -4.4375 C 1.554688 -4.957031 1.773438 -5.460938 1.953125 -5.953125 Z M 1.953125 -5.953125 "/></g></g></g><g fill="#8c52ff" fill-opacity="1"><g transform="translate(70.060306, 39.293768)"><g><path d="M 7.1875 0.265625 C 7.257812 0.265625 7.316406 0.289062 7.359375 0.34375 C 7.398438 0.394531 7.421875 0.453125 7.421875 0.515625 C 7.421875 0.578125 7.398438 0.632812 7.359375 0.6875 C 7.316406 0.738281 7.257812 0.765625 7.1875 0.765625 L 0.46875 0.765625 C 0.394531 0.765625 0.335938 0.738281 0.296875 0.6875 C 0.253906 0.632812 0.234375 0.578125 0.234375 0.515625 C 0.234375 0.453125 0.253906 0.394531 0.296875 0.34375 C 0.335938 0.289062 0.394531 0.265625 0.46875 0.265625 L 0.671875 0.265625 L 0.671875 -1.21875 C 0.671875 -1.539062 0.769531 -1.804688 0.96875 -2.015625 C 1.175781 -2.222656 1.492188 -2.328125 1.921875 -2.328125 L 6.375 -2.328125 C 6.519531 -2.328125 6.640625 -2.28125 6.734375 -2.1875 C 6.835938 -2.09375 6.890625 -1.972656 6.890625 -1.828125 L 6.890625 0.265625 Z M 5.046875 -5.90625 C 5.085938 -5.976562 5.128906 -6.03125 5.171875 -6.0625 C 5.210938 -6.09375 5.28125 -6.109375 5.375 -6.109375 L 6.28125 -6.109375 C 6.363281 -6.109375 6.421875 -6.085938 6.453125 -6.046875 C 6.492188 -6.003906 6.5 -5.925781 6.46875 -5.8125 L 6.0625 -4.96875 L 7.03125 -4.96875 C 7.113281 -4.96875 7.175781 -4.9375 7.21875 -4.875 C 7.257812 -4.820312 7.28125 -4.757812 7.28125 -4.6875 C 7.28125 -4.625 7.257812 -4.566406 7.21875 -4.515625 C 7.175781 -4.460938 7.113281 -4.4375 7.03125 -4.4375 L 0.609375 -4.4375 C 0.523438 -4.4375 0.460938 -4.460938 0.421875 -4.515625 C 0.390625 -4.566406 0.375 -4.625 0.375 -4.6875 C 0.375 -4.757812 0.390625 -4.820312 0.421875 -4.875 C 0.460938 -4.9375 0.523438 -4.96875 0.609375 -4.96875 L 1.609375 -4.96875 L 1.203125 -5.8125 C 1.160156 -5.925781 1.15625 -6.003906 1.1875 -6.046875 C 1.226562 -6.085938 1.296875 -6.109375 1.390625 -6.109375 L 2.296875 -6.109375 C 2.398438 -6.109375 2.472656 -6.09375 2.515625 -6.0625 C 2.554688 -6.03125 2.59375 -5.976562 2.625 -5.90625 L 3.109375 -4.96875 L 4.5625 -4.96875 Z M 6 -4.234375 C 6.09375 -4.234375 6.15625 -4.207031 6.1875 -4.15625 C 6.226562 -4.113281 6.257812 -4.066406 6.28125 -4.015625 C 6.332031 -3.890625 6.378906 -3.773438 6.421875 -3.671875 C 6.472656 -3.578125 6.523438 -3.476562 6.578125 -3.375 C 6.640625 -3.28125 6.703125 -3.175781 6.765625 -3.0625 C 6.828125 -2.957031 6.898438 -2.835938 6.984375 -2.703125 C 7.078125 -2.566406 7.015625 -2.5 6.796875 -2.5 L 5.796875 -2.5 C 5.691406 -2.5 5.617188 -2.515625 5.578125 -2.546875 C 5.535156 -2.578125 5.492188 -2.625 5.453125 -2.6875 C 5.367188 -2.8125 5.296875 -2.921875 5.234375 -3.015625 C 5.179688 -3.109375 5.128906 -3.203125 5.078125 -3.296875 C 5.035156 -3.398438 4.992188 -3.503906 4.953125 -3.609375 C 4.921875 -3.722656 4.875 -3.859375 4.8125 -4.015625 C 4.78125 -4.097656 4.785156 -4.15625 4.828125 -4.1875 C 4.878906 -4.21875 4.945312 -4.234375 5.03125 -4.234375 Z M 1.40625 -4.015625 C 1.425781 -4.066406 1.453125 -4.113281 1.484375 -4.15625 C 1.515625 -4.207031 1.582031 -4.234375 1.6875 -4.234375 L 2.65625 -4.234375 C 2.738281 -4.234375 2.800781 -4.21875 2.84375 -4.1875 C 2.894531 -4.15625 2.90625 -4.097656 2.875 -4.015625 C 2.8125 -3.859375 2.753906 -3.71875 2.703125 -3.59375 C 2.660156 -3.476562 2.609375 -3.367188 2.546875 -3.265625 C 2.492188 -3.160156 2.441406 -3.0625 2.390625 -2.96875 C 2.335938 -2.882812 2.28125 -2.789062 2.21875 -2.6875 C 2.175781 -2.632812 2.132812 -2.59375 2.09375 -2.5625 C 2.050781 -2.53125 1.972656 -2.515625 1.859375 -2.515625 L 0.875 -2.515625 C 0.65625 -2.515625 0.59375 -2.582031 0.6875 -2.71875 C 0.757812 -2.851562 0.832031 -2.972656 0.90625 -3.078125 C 0.976562 -3.179688 1.039062 -3.28125 1.09375 -3.375 C 1.144531 -3.476562 1.195312 -3.578125 1.25 -3.671875 C 1.300781 -3.773438 1.351562 -3.890625 1.40625 -4.015625 Z M 4.03125 -1.890625 L 3.609375 -1.890625 C 3.609375 -1.878906 3.609375 -1.863281 3.609375 -1.84375 C 3.617188 -1.832031 3.625 -1.816406 3.625 -1.796875 L 3.625 0.265625 L 4.03125 0.265625 Z M 2.0625 0.265625 L 2.46875 0.265625 L 2.46875 -1.84375 C 2.332031 -1.800781 2.226562 -1.726562 2.15625 -1.625 C 2.09375 -1.519531 2.0625 -1.390625 2.0625 -1.234375 Z M 5.171875 -1.890625 C 5.171875 -1.878906 5.171875 -1.863281 5.171875 -1.84375 C 5.179688 -1.832031 5.1875 -1.816406 5.1875 -1.796875 L 5.1875 0.265625 L 5.5625 0.265625 L 5.5625 -1.53125 C 5.5625 -1.65625 5.523438 -1.742188 5.453125 -1.796875 C 5.378906 -1.859375 5.300781 -1.890625 5.21875 -1.890625 Z M 5.171875 -1.890625 "/></g></g></g><g fill="#8c52ff" fill-opacity="1"><g transform="translate(77.706695, 39.293768)"><g><path d="M 4.71875 -1.25 C 4.71875 -1.539062 4.859375 -1.6875 5.140625 -1.6875 L 5.359375 -1.6875 C 5.128906 -2.019531 4.921875 -2.351562 4.734375 -2.6875 L 3.109375 -2.6875 C 3.015625 -2.519531 2.910156 -2.347656 2.796875 -2.171875 C 2.691406 -2.003906 2.570312 -1.832031 2.4375 -1.65625 L 2.90625 -1.65625 C 3.007812 -1.65625 3.078125 -1.632812 3.109375 -1.59375 C 3.148438 -1.5625 3.160156 -1.488281 3.140625 -1.375 C 3.085938 -1.007812 3.019531 -0.660156 2.9375 -0.328125 C 2.851562 0.00390625 2.765625 0.304688 2.671875 0.578125 C 2.640625 0.671875 2.59375 0.734375 2.53125 0.765625 C 2.476562 0.796875 2.394531 0.8125 2.28125 0.8125 L 1.28125 0.8125 C 1.164062 0.8125 1.09375 0.789062 1.0625 0.75 C 1.03125 0.71875 1.035156 0.648438 1.078125 0.546875 C 1.203125 0.222656 1.304688 -0.0703125 1.390625 -0.34375 C 1.472656 -0.613281 1.539062 -0.898438 1.59375 -1.203125 L 0.703125 -1.203125 C 0.566406 -1.203125 0.488281 -1.234375 0.46875 -1.296875 C 0.457031 -1.359375 0.484375 -1.425781 0.546875 -1.5 C 0.722656 -1.71875 0.890625 -1.925781 1.046875 -2.125 C 1.203125 -2.320312 1.34375 -2.507812 1.46875 -2.6875 L 0.640625 -2.6875 L 0.640625 -4.78125 C 0.640625 -4.925781 0.664062 -5.070312 0.71875 -5.21875 C 0.769531 -5.375 0.847656 -5.507812 0.953125 -5.625 C 1.054688 -5.75 1.179688 -5.847656 1.328125 -5.921875 C 1.472656 -5.992188 1.644531 -6.03125 1.84375 -6.03125 L 6.5625 -6.03125 C 6.6875 -6.03125 6.789062 -5.984375 6.875 -5.890625 C 6.96875 -5.796875 7.015625 -5.679688 7.015625 -5.546875 L 7.015625 -3.15625 C 7.015625 -3.03125 6.96875 -2.921875 6.875 -2.828125 C 6.789062 -2.734375 6.6875 -2.6875 6.5625 -2.6875 L 6.375 -2.6875 C 6.425781 -2.601562 6.476562 -2.519531 6.53125 -2.4375 C 6.582031 -2.363281 6.644531 -2.28125 6.71875 -2.1875 C 6.789062 -2.101562 6.867188 -2.003906 6.953125 -1.890625 C 7.046875 -1.773438 7.148438 -1.644531 7.265625 -1.5 C 7.316406 -1.425781 7.332031 -1.359375 7.3125 -1.296875 C 7.300781 -1.234375 7.234375 -1.203125 7.109375 -1.203125 L 6.125 -1.203125 L 6.125 0.40625 C 6.125 0.519531 6.082031 0.617188 6 0.703125 C 5.914062 0.785156 5.816406 0.828125 5.703125 0.828125 L 5.140625 0.828125 C 4.859375 0.828125 4.71875 0.6875 4.71875 0.40625 Z M 4.546875 -5.546875 L 4.546875 -4.59375 L 5.59375 -4.59375 L 5.59375 -5.25 C 5.59375 -5.320312 5.5625 -5.390625 5.5 -5.453125 C 5.445312 -5.515625 5.382812 -5.546875 5.3125 -5.546875 Z M 5.3125 -3.15625 C 5.382812 -3.15625 5.445312 -3.179688 5.5 -3.234375 C 5.5625 -3.296875 5.59375 -3.367188 5.59375 -3.453125 L 5.59375 -4.109375 L 4.546875 -4.109375 L 4.546875 -3.15625 Z M 2.109375 -3.15625 L 3.09375 -3.15625 L 3.09375 -4.109375 L 2.109375 -4.109375 Z M 2.109375 -4.59375 L 3.09375 -4.59375 L 3.09375 -5.546875 L 2.84375 -5.546875 C 2.726562 -5.546875 2.625 -5.519531 2.53125 -5.46875 C 2.4375 -5.425781 2.359375 -5.367188 2.296875 -5.296875 C 2.234375 -5.222656 2.1875 -5.140625 2.15625 -5.046875 C 2.125 -4.953125 2.109375 -4.859375 2.109375 -4.765625 Z M 2.109375 -4.59375 "/></g></g></g><g fill="#8c52ff" fill-opacity="1"><g transform="translate(85.353083, 39.293768)"><g><path d="M 4.015625 -5.953125 C 4.023438 -6.015625 4.046875 -6.066406 4.078125 -6.109375 C 4.109375 -6.148438 4.164062 -6.171875 4.25 -6.171875 L 5.109375 -6.171875 C 5.203125 -6.171875 5.265625 -6.15625 5.296875 -6.125 C 5.328125 -6.101562 5.335938 -6.046875 5.328125 -5.953125 L 5.3125 -5.8125 L 6.625 -5.8125 C 6.988281 -5.8125 7.171875 -5.628906 7.171875 -5.265625 L 7.171875 0.140625 C 7.171875 0.359375 7.125 0.519531 7.03125 0.625 C 6.945312 0.738281 6.78125 0.796875 6.53125 0.796875 L 5.171875 0.796875 C 5.109375 0.796875 5.0625 0.789062 5.03125 0.78125 C 5 0.769531 4.972656 0.742188 4.953125 0.703125 C 4.941406 0.671875 4.929688 0.617188 4.921875 0.546875 C 4.921875 0.484375 4.921875 0.394531 4.921875 0.28125 L 5.78125 0.28125 L 5.78125 -4.96875 C 5.78125 -5.082031 5.742188 -5.164062 5.671875 -5.21875 C 5.609375 -5.28125 5.519531 -5.3125 5.40625 -5.3125 L 5.21875 -5.3125 C 5.1875 -5.164062 5.148438 -5.019531 5.109375 -4.875 C 5.066406 -4.738281 5.019531 -4.613281 4.96875 -4.5 C 4.9375 -4.4375 4.894531 -4.390625 4.84375 -4.359375 C 4.800781 -4.335938 4.726562 -4.328125 4.625 -4.328125 L 3.78125 -4.328125 C 3.6875 -4.328125 3.628906 -4.335938 3.609375 -4.359375 L 3.609375 0.296875 C 3.609375 0.429688 3.570312 0.546875 3.5 0.640625 C 3.4375 0.742188 3.359375 0.796875 3.265625 0.796875 L 0.484375 0.796875 L 0.484375 -4.578125 C 0.484375 -4.867188 0.539062 -5.117188 0.65625 -5.328125 C 0.769531 -5.546875 0.945312 -5.675781 1.1875 -5.71875 L 1.375 -6.046875 C 1.40625 -6.097656 1.4375 -6.132812 1.46875 -6.15625 C 1.507812 -6.1875 1.582031 -6.203125 1.6875 -6.203125 L 2.5 -6.203125 C 2.582031 -6.203125 2.640625 -6.1875 2.671875 -6.15625 C 2.710938 -6.125 2.710938 -6.0625 2.671875 -5.96875 L 2.546875 -5.71875 L 3.265625 -5.71875 C 3.359375 -5.71875 3.4375 -5.664062 3.5 -5.5625 C 3.570312 -5.46875 3.609375 -5.351562 3.609375 -5.21875 L 3.609375 -4.546875 C 3.660156 -4.671875 3.707031 -4.789062 3.75 -4.90625 C 3.789062 -5.03125 3.828125 -5.144531 3.859375 -5.25 C 3.890625 -5.363281 3.914062 -5.476562 3.9375 -5.59375 C 3.96875 -5.707031 3.992188 -5.828125 4.015625 -5.953125 Z M 4.9375 -4.015625 C 5.019531 -4.015625 5.078125 -3.988281 5.109375 -3.9375 C 5.140625 -3.894531 5.160156 -3.84375 5.171875 -3.78125 L 5.515625 -0.546875 C 5.535156 -0.460938 5.523438 -0.40625 5.484375 -0.375 C 5.441406 -0.34375 5.367188 -0.328125 5.265625 -0.328125 L 4.546875 -0.328125 C 4.441406 -0.328125 4.363281 -0.335938 4.3125 -0.359375 C 4.257812 -0.390625 4.226562 -0.441406 4.21875 -0.515625 L 3.90625 -3.78125 C 3.882812 -3.875 3.890625 -3.9375 3.921875 -3.96875 C 3.953125 -4 4.015625 -4.015625 4.109375 -4.015625 Z M 2.1875 0.3125 C 2.238281 0.3125 2.285156 0.28125 2.328125 0.21875 C 2.367188 0.164062 2.390625 0.09375 2.390625 0 L 2.390625 -2.453125 L 1.71875 -2.453125 L 1.71875 0.3125 Z M 1.71875 -2.984375 L 2.390625 -2.984375 L 2.390625 -4.90625 C 2.390625 -5.007812 2.378906 -5.085938 2.359375 -5.140625 C 2.347656 -5.191406 2.316406 -5.21875 2.265625 -5.21875 L 1.875 -5.21875 C 1.832031 -5.21875 1.800781 -5.207031 1.78125 -5.1875 C 1.757812 -5.164062 1.742188 -5.128906 1.734375 -5.078125 C 1.722656 -5.035156 1.71875 -4.972656 1.71875 -4.890625 C 1.71875 -4.804688 1.71875 -4.703125 1.71875 -4.578125 Z M 1.71875 -2.984375 "/></g></g></g><g fill="#8c52ff" fill-opacity="1"><g transform="translate(92.999472, 39.293768)"><g><path d="M 3.90625 -3.640625 C 3.882812 -2.972656 3.851562 -2.289062 3.8125 -1.59375 C 3.78125 -0.894531 3.722656 -0.164062 3.640625 0.59375 C 3.628906 0.695312 3.59375 0.757812 3.53125 0.78125 C 3.476562 0.8125 3.382812 0.828125 3.25 0.828125 L 2.421875 0.828125 C 2.304688 0.828125 2.238281 0.8125 2.21875 0.78125 C 2.195312 0.757812 2.191406 0.6875 2.203125 0.5625 C 2.273438 -0.0390625 2.332031 -0.625 2.375 -1.1875 C 2.414062 -1.75 2.445312 -2.273438 2.46875 -2.765625 C 2.5 -3.253906 2.515625 -3.691406 2.515625 -4.078125 C 2.523438 -4.460938 2.53125 -4.78125 2.53125 -5.03125 C 2.53125 -5.21875 2.535156 -5.375 2.546875 -5.5 C 2.566406 -5.625 2.601562 -5.722656 2.65625 -5.796875 C 2.71875 -5.878906 2.800781 -5.9375 2.90625 -5.96875 C 3.007812 -6.007812 3.15625 -6.03125 3.34375 -6.03125 L 6.765625 -6.03125 C 6.890625 -6.03125 7 -5.984375 7.09375 -5.890625 C 7.1875 -5.796875 7.234375 -5.679688 7.234375 -5.546875 L 7.234375 -4.140625 C 7.234375 -4.003906 7.1875 -3.882812 7.09375 -3.78125 C 7 -3.6875 6.890625 -3.640625 6.765625 -3.640625 Z M 4.125 0.78125 L 4.125 -2.796875 C 4.125 -3.117188 4.28125 -3.28125 4.59375 -3.28125 L 5.0625 -3.28125 C 5.195312 -3.28125 5.296875 -3.234375 5.359375 -3.140625 C 5.421875 -3.046875 5.453125 -2.929688 5.453125 -2.796875 L 5.453125 -1.75 C 5.710938 -1.863281 5.957031 -1.984375 6.1875 -2.109375 C 6.414062 -2.234375 6.625 -2.363281 6.8125 -2.5 C 6.863281 -2.539062 6.898438 -2.546875 6.921875 -2.515625 C 6.953125 -2.492188 6.988281 -2.457031 7.03125 -2.40625 L 7.15625 -2.234375 C 7.175781 -2.179688 7.175781 -2.140625 7.15625 -2.109375 C 7.144531 -2.085938 7.113281 -2.050781 7.0625 -2 C 6.875 -1.84375 6.640625 -1.6875 6.359375 -1.53125 C 6.078125 -1.382812 5.773438 -1.238281 5.453125 -1.09375 L 5.453125 0.21875 L 6.171875 0.21875 L 6.171875 -0.03125 C 6.171875 -0.476562 6.332031 -0.703125 6.65625 -0.703125 L 6.875 -0.703125 C 7.0625 -0.703125 7.15625 -0.625 7.15625 -0.46875 L 7.15625 0.40625 C 7.15625 0.519531 7.125 0.609375 7.0625 0.671875 C 7 0.742188 6.921875 0.78125 6.828125 0.78125 Z M 0.859375 -1.9375 C 0.867188 -2 0.882812 -2.050781 0.90625 -2.09375 C 0.9375 -2.144531 1.003906 -2.171875 1.109375 -2.171875 L 1.96875 -2.171875 C 2.050781 -2.171875 2.109375 -2.15625 2.140625 -2.125 C 2.171875 -2.101562 2.179688 -2.039062 2.171875 -1.9375 C 2.148438 -1.71875 2.125 -1.5 2.09375 -1.28125 C 2.0625 -1.070312 2.023438 -0.863281 1.984375 -0.65625 C 1.953125 -0.445312 1.914062 -0.238281 1.875 -0.03125 C 1.84375 0.175781 1.800781 0.390625 1.75 0.609375 C 1.726562 0.679688 1.691406 0.726562 1.640625 0.75 C 1.585938 0.78125 1.507812 0.796875 1.40625 0.796875 L 0.53125 0.796875 C 0.425781 0.796875 0.363281 0.773438 0.34375 0.734375 C 0.332031 0.703125 0.335938 0.644531 0.359375 0.5625 C 0.460938 0.1875 0.554688 -0.207031 0.640625 -0.625 C 0.722656 -1.050781 0.796875 -1.488281 0.859375 -1.9375 Z M 3.921875 -5.53125 C 3.921875 -5.300781 3.921875 -5.066406 3.921875 -4.828125 C 3.921875 -4.597656 3.921875 -4.363281 3.921875 -4.125 L 5.640625 -4.125 C 5.710938 -4.125 5.773438 -4.148438 5.828125 -4.203125 C 5.890625 -4.253906 5.921875 -4.320312 5.921875 -4.40625 L 5.921875 -5.25 C 5.921875 -5.332031 5.890625 -5.398438 5.828125 -5.453125 C 5.773438 -5.503906 5.710938 -5.53125 5.640625 -5.53125 Z M 1.328125 -4.125 C 1.429688 -4.125 1.523438 -4.101562 1.609375 -4.0625 C 1.691406 -4.03125 1.765625 -3.984375 1.828125 -3.921875 C 1.890625 -3.859375 1.941406 -3.78125 1.984375 -3.6875 C 2.023438 -3.601562 2.046875 -3.515625 2.046875 -3.421875 C 2.046875 -3.316406 2.023438 -3.222656 1.984375 -3.140625 C 1.941406 -3.054688 1.890625 -2.976562 1.828125 -2.90625 C 1.765625 -2.84375 1.691406 -2.789062 1.609375 -2.75 C 1.523438 -2.71875 1.429688 -2.703125 1.328125 -2.703125 C 1.234375 -2.703125 1.140625 -2.71875 1.046875 -2.75 C 0.960938 -2.789062 0.890625 -2.84375 0.828125 -2.90625 C 0.765625 -2.976562 0.710938 -3.054688 0.671875 -3.140625 C 0.640625 -3.222656 0.625 -3.316406 0.625 -3.421875 C 0.625 -3.515625 0.640625 -3.601562 0.671875 -3.6875 C 0.710938 -3.78125 0.765625 -3.859375 0.828125 -3.921875 C 0.890625 -3.984375 0.960938 -4.03125 1.046875 -4.0625 C 1.140625 -4.101562 1.234375 -4.125 1.328125 -4.125 Z M 1.328125 -6.125 C 1.429688 -6.125 1.523438 -6.109375 1.609375 -6.078125 C 1.691406 -6.046875 1.765625 -5.992188 1.828125 -5.921875 C 1.890625 -5.859375 1.941406 -5.78125 1.984375 -5.6875 C 2.023438 -5.601562 2.046875 -5.515625 2.046875 -5.421875 C 2.046875 -5.328125 2.023438 -5.234375 1.984375 -5.140625 C 1.941406 -5.054688 1.890625 -4.984375 1.828125 -4.921875 C 1.765625 -4.859375 1.691406 -4.804688 1.609375 -4.765625 C 1.523438 -4.734375 1.429688 -4.71875 1.328125 -4.71875 C 1.234375 -4.71875 1.140625 -4.734375 1.046875 -4.765625 C 0.960938 -4.804688 0.890625 -4.859375 0.828125 -4.921875 C 0.765625 -4.984375 0.710938 -5.054688 0.671875 -5.140625 C 0.640625 -5.234375 0.625 -5.328125 0.625 -5.421875 C 0.625 -5.515625 0.640625 -5.601562 0.671875 -5.6875 C 0.710938 -5.78125 0.765625 -5.859375 0.828125 -5.921875 C 0.890625 -5.992188 0.960938 -6.046875 1.046875 -6.078125 C 1.140625 -6.109375 1.234375 -6.125 1.328125 -6.125 Z M 1.328125 -6.125 "/></g></g></g><g fill="#8c52ff" fill-opacity="1"><g transform="translate(100.645861, 39.293768)"><g><path d="M 7.046875 -5.984375 C 7.117188 -5.984375 7.175781 -5.957031 7.21875 -5.90625 C 7.257812 -5.851562 7.28125 -5.789062 7.28125 -5.71875 C 7.28125 -5.65625 7.257812 -5.597656 7.21875 -5.546875 C 7.175781 -5.492188 7.117188 -5.46875 7.046875 -5.46875 L 3.6875 -5.46875 C 3.570312 -5.226562 3.457031 -4.992188 3.34375 -4.765625 C 3.238281 -4.546875 3.125 -4.328125 3 -4.109375 L 6.4375 -4.109375 C 6.5625 -4.109375 6.671875 -4.050781 6.765625 -3.9375 C 6.859375 -3.832031 6.90625 -3.707031 6.90625 -3.5625 L 6.90625 0.21875 C 6.90625 0.363281 6.859375 0.488281 6.765625 0.59375 C 6.671875 0.707031 6.5625 0.765625 6.4375 0.765625 L 1.125 0.765625 L 1.125 -2.296875 L 0.546875 -2.296875 C 0.421875 -2.296875 0.34375 -2.320312 0.3125 -2.375 C 0.28125 -2.425781 0.300781 -2.503906 0.375 -2.609375 C 0.675781 -3.054688 0.960938 -3.507812 1.234375 -3.96875 C 1.515625 -4.425781 1.789062 -4.925781 2.0625 -5.46875 L 0.625 -5.46875 C 0.550781 -5.46875 0.492188 -5.492188 0.453125 -5.546875 C 0.410156 -5.597656 0.390625 -5.65625 0.390625 -5.71875 C 0.390625 -5.789062 0.410156 -5.851562 0.453125 -5.90625 C 0.492188 -5.957031 0.550781 -5.984375 0.625 -5.984375 Z M 2.671875 0.234375 L 5.109375 0.234375 C 5.203125 0.234375 5.273438 0.195312 5.328125 0.125 C 5.378906 0.0625 5.40625 -0.0078125 5.40625 -0.09375 L 5.40625 -3.21875 C 5.40625 -3.3125 5.378906 -3.390625 5.328125 -3.453125 C 5.273438 -3.515625 5.203125 -3.546875 5.109375 -3.546875 L 3.4375 -3.546875 C 3.3125 -3.546875 3.203125 -3.519531 3.109375 -3.46875 C 3.015625 -3.414062 2.929688 -3.347656 2.859375 -3.265625 C 2.796875 -3.179688 2.75 -3.085938 2.71875 -2.984375 C 2.6875 -2.890625 2.671875 -2.789062 2.671875 -2.6875 Z M 2.671875 0.234375 "/></g></g></g><g fill="#8c52ff" fill-opacity="1"><g transform="translate(108.29225, 39.293768)"><g><path d="M 6.484375 -4.796875 C 6.585938 -4.796875 6.664062 -4.765625 6.71875 -4.703125 C 6.769531 -4.648438 6.804688 -4.59375 6.828125 -4.53125 L 7.390625 -3.09375 C 7.410156 -3 7.394531 -2.929688 7.34375 -2.890625 C 7.300781 -2.859375 7.21875 -2.84375 7.09375 -2.84375 L 6.234375 -2.84375 C 6.117188 -2.84375 6.035156 -2.859375 5.984375 -2.890625 C 5.929688 -2.929688 5.890625 -2.988281 5.859375 -3.0625 L 5.75 -3.328125 C 5.75 -3.171875 5.722656 -3.054688 5.671875 -2.984375 C 5.628906 -2.921875 5.539062 -2.890625 5.40625 -2.890625 L 2.234375 -2.890625 C 2.328125 -3.085938 2.414062 -3.273438 2.5 -3.453125 C 2.582031 -3.640625 2.65625 -3.816406 2.71875 -3.984375 C 2.789062 -4.160156 2.859375 -4.335938 2.921875 -4.515625 C 2.992188 -4.691406 3.054688 -4.878906 3.109375 -5.078125 L 2.46875 -5.078125 C 2.394531 -5.078125 2.335938 -5.101562 2.296875 -5.15625 C 2.253906 -5.21875 2.234375 -5.28125 2.234375 -5.34375 C 2.234375 -5.40625 2.253906 -5.460938 2.296875 -5.515625 C 2.335938 -5.578125 2.394531 -5.609375 2.46875 -5.609375 L 4.03125 -5.609375 C 4.03125 -5.703125 4.050781 -5.785156 4.09375 -5.859375 C 4.132812 -5.941406 4.1875 -6.007812 4.25 -6.0625 C 4.3125 -6.125 4.382812 -6.171875 4.46875 -6.203125 C 4.550781 -6.242188 4.640625 -6.265625 4.734375 -6.265625 C 4.921875 -6.265625 5.082031 -6.195312 5.21875 -6.0625 C 5.351562 -5.9375 5.425781 -5.785156 5.4375 -5.609375 L 7.046875 -5.609375 C 7.128906 -5.609375 7.1875 -5.578125 7.21875 -5.515625 C 7.257812 -5.460938 7.28125 -5.40625 7.28125 -5.34375 C 7.28125 -5.28125 7.257812 -5.21875 7.21875 -5.15625 C 7.1875 -5.101562 7.128906 -5.078125 7.046875 -5.078125 L 4.71875 -5.078125 C 4.664062 -4.910156 4.617188 -4.753906 4.578125 -4.609375 C 4.546875 -4.472656 4.503906 -4.335938 4.453125 -4.203125 C 4.410156 -4.078125 4.363281 -3.953125 4.3125 -3.828125 C 4.269531 -3.710938 4.21875 -3.585938 4.15625 -3.453125 L 5.71875 -3.453125 L 5.328125 -4.515625 C 5.304688 -4.628906 5.316406 -4.703125 5.359375 -4.734375 C 5.398438 -4.773438 5.46875 -4.796875 5.5625 -4.796875 Z M 5.484375 0.828125 L 5.484375 -2.3125 C 5.484375 -2.414062 5.503906 -2.492188 5.546875 -2.546875 C 5.597656 -2.609375 5.675781 -2.640625 5.78125 -2.640625 L 6.53125 -2.640625 C 6.613281 -2.640625 6.675781 -2.609375 6.71875 -2.546875 C 6.769531 -2.484375 6.796875 -2.40625 6.796875 -2.3125 L 6.796875 0.46875 L 6.9375 0.46875 L 6.9375 0.203125 C 6.9375 0.0234375 6.953125 -0.109375 6.984375 -0.203125 C 7.015625 -0.296875 7.078125 -0.34375 7.171875 -0.34375 L 7.25 -0.34375 C 7.363281 -0.34375 7.421875 -0.273438 7.421875 -0.140625 L 7.421875 0.59375 C 7.421875 0.65625 7.398438 0.707031 7.359375 0.75 C 7.328125 0.800781 7.28125 0.828125 7.21875 0.828125 Z M 2.4375 -2.359375 C 2.445312 -2.429688 2.46875 -2.492188 2.5 -2.546875 C 2.539062 -2.597656 2.613281 -2.625 2.71875 -2.625 L 3.484375 -2.625 C 3.585938 -2.625 3.65625 -2.609375 3.6875 -2.578125 C 3.71875 -2.546875 3.734375 -2.472656 3.734375 -2.359375 C 3.722656 -2.117188 3.707031 -1.863281 3.6875 -1.59375 C 3.675781 -1.320312 3.660156 -1.050781 3.640625 -0.78125 C 3.617188 -0.519531 3.585938 -0.269531 3.546875 -0.03125 C 3.515625 0.207031 3.484375 0.414062 3.453125 0.59375 C 3.429688 0.6875 3.390625 0.742188 3.328125 0.765625 C 3.273438 0.796875 3.1875 0.8125 3.0625 0.8125 L 2.296875 0.8125 C 2.179688 0.8125 2.113281 0.796875 2.09375 0.765625 C 2.070312 0.734375 2.070312 0.664062 2.09375 0.5625 C 2.15625 0.289062 2.207031 0.0351562 2.25 -0.203125 C 2.289062 -0.441406 2.320312 -0.679688 2.34375 -0.921875 C 2.375 -1.160156 2.394531 -1.394531 2.40625 -1.625 C 2.414062 -1.863281 2.425781 -2.109375 2.4375 -2.359375 Z M 3.984375 -2.3125 C 3.984375 -2.4375 4.007812 -2.519531 4.0625 -2.5625 C 4.125 -2.613281 4.21875 -2.640625 4.34375 -2.640625 L 4.84375 -2.640625 C 4.957031 -2.640625 5.046875 -2.613281 5.109375 -2.5625 C 5.179688 -2.519531 5.21875 -2.4375 5.21875 -2.3125 L 5.21875 0.453125 C 5.21875 0.554688 5.175781 0.644531 5.09375 0.71875 C 5.019531 0.789062 4.9375 0.828125 4.84375 0.828125 L 4.34375 0.828125 C 4.101562 0.828125 3.984375 0.703125 3.984375 0.453125 Z M 0.828125 -2.03125 C 0.835938 -2.09375 0.851562 -2.144531 0.875 -2.1875 C 0.90625 -2.238281 0.96875 -2.265625 1.0625 -2.265625 L 1.90625 -2.265625 C 1.976562 -2.265625 2.03125 -2.25 2.0625 -2.21875 C 2.09375 -2.1875 2.101562 -2.117188 2.09375 -2.015625 C 2.070312 -1.773438 2.046875 -1.546875 2.015625 -1.328125 C 1.984375 -1.117188 1.953125 -0.910156 1.921875 -0.703125 C 1.890625 -0.492188 1.851562 -0.28125 1.8125 -0.0625 C 1.769531 0.144531 1.726562 0.367188 1.6875 0.609375 C 1.664062 0.679688 1.628906 0.726562 1.578125 0.75 C 1.535156 0.78125 1.460938 0.796875 1.359375 0.796875 L 0.5 0.796875 C 0.40625 0.796875 0.347656 0.773438 0.328125 0.734375 C 0.316406 0.703125 0.320312 0.640625 0.34375 0.546875 C 0.445312 0.140625 0.539062 -0.269531 0.625 -0.6875 C 0.707031 -1.101562 0.773438 -1.550781 0.828125 -2.03125 Z M 1.328125 -4.203125 C 1.429688 -4.203125 1.523438 -4.179688 1.609375 -4.140625 C 1.691406 -4.109375 1.765625 -4.054688 1.828125 -3.984375 C 1.890625 -3.921875 1.941406 -3.847656 1.984375 -3.765625 C 2.023438 -3.679688 2.046875 -3.585938 2.046875 -3.484375 C 2.046875 -3.390625 2.023438 -3.296875 1.984375 -3.203125 C 1.941406 -3.117188 1.890625 -3.046875 1.828125 -2.984375 C 1.765625 -2.921875 1.691406 -2.867188 1.609375 -2.828125 C 1.523438 -2.796875 1.429688 -2.78125 1.328125 -2.78125 C 1.234375 -2.78125 1.140625 -2.796875 1.046875 -2.828125 C 0.960938 -2.867188 0.890625 -2.921875 0.828125 -2.984375 C 0.765625 -3.046875 0.710938 -3.117188 0.671875 -3.203125 C 0.640625 -3.296875 0.625 -3.390625 0.625 -3.484375 C 0.625 -3.585938 0.640625 -3.679688 0.671875 -3.765625 C 0.710938 -3.847656 0.765625 -3.921875 0.828125 -3.984375 C 0.890625 -4.054688 0.960938 -4.109375 1.046875 -4.140625 C 1.140625 -4.179688 1.234375 -4.203125 1.328125 -4.203125 Z M 1.375 -6.046875 C 1.476562 -6.046875 1.570312 -6.023438 1.65625 -5.984375 C 1.738281 -5.941406 1.8125 -5.890625 1.875 -5.828125 C 1.9375 -5.765625 1.988281 -5.6875 2.03125 -5.59375 C 2.070312 -5.507812 2.09375 -5.421875 2.09375 -5.328125 C 2.09375 -5.222656 2.070312 -5.128906 2.03125 -5.046875 C 1.988281 -4.960938 1.9375 -4.882812 1.875 -4.8125 C 1.8125 -4.75 1.738281 -4.695312 1.65625 -4.65625 C 1.570312 -4.625 1.476562 -4.609375 1.375 -4.609375 C 1.28125 -4.609375 1.1875 -4.625 1.09375 -4.65625 C 1.007812 -4.695312 0.9375 -4.75 0.875 -4.8125 C 0.8125 -4.882812 0.757812 -4.960938 0.71875 -5.046875 C 0.6875 -5.128906 0.671875 -5.222656 0.671875 -5.328125 C 0.671875 -5.421875 0.6875 -5.507812 0.71875 -5.59375 C 0.757812 -5.6875 0.8125 -5.765625 0.875 -5.828125 C 0.9375 -5.890625 1.007812 -5.941406 1.09375 -5.984375 C 1.1875 -6.023438 1.28125 -6.046875 1.375 -6.046875 Z M 1.375 -6.046875 "/></g></g></g><g fill="#8c52ff" fill-opacity="1"><g transform="translate(115.938639, 39.293768)"><g><path d="M 3.03125 -5.75 C 3.03125 -5.90625 3.066406 -6.023438 3.140625 -6.109375 C 3.222656 -6.191406 3.34375 -6.234375 3.5 -6.234375 L 4.140625 -6.234375 C 4.453125 -6.234375 4.609375 -6.070312 4.609375 -5.75 L 4.609375 0.34375 C 4.609375 0.46875 4.5625 0.578125 4.46875 0.671875 C 4.375 0.765625 4.265625 0.8125 4.140625 0.8125 L 3.5 0.8125 C 3.1875 0.8125 3.03125 0.65625 3.03125 0.34375 Z M 3.03125 -5.75 "/></g></g></g><g fill="#8c52ff" fill-opacity="1"><g transform="translate(123.585028, 39.293768)"><g><path d="M 0.296875 -1.234375 C 0.273438 -1.328125 0.265625 -1.40625 0.265625 -1.46875 C 0.273438 -1.53125 0.296875 -1.582031 0.328125 -1.625 C 0.367188 -1.675781 0.425781 -1.710938 0.5 -1.734375 C 0.582031 -1.765625 0.6875 -1.796875 0.8125 -1.828125 C 0.957031 -1.847656 1.070312 -1.859375 1.15625 -1.859375 C 1.25 -1.867188 1.320312 -1.859375 1.375 -1.828125 C 1.425781 -1.796875 1.460938 -1.742188 1.484375 -1.671875 C 1.515625 -1.609375 1.539062 -1.519531 1.5625 -1.40625 C 1.582031 -1.21875 1.609375 -1.046875 1.640625 -0.890625 C 1.679688 -0.734375 1.726562 -0.59375 1.78125 -0.46875 C 1.832031 -0.351562 1.890625 -0.257812 1.953125 -0.1875 C 2.023438 -0.125 2.113281 -0.09375 2.21875 -0.09375 C 2.53125 -0.09375 2.75 -0.210938 2.875 -0.453125 C 3 -0.703125 3.0625 -1.039062 3.0625 -1.46875 L 3.0625 -5.140625 C 3.0625 -5.222656 3.082031 -5.296875 3.125 -5.359375 C 3.164062 -5.421875 3.242188 -5.453125 3.359375 -5.453125 L 4.125 -5.453125 C 4.207031 -5.453125 4.28125 -5.421875 4.34375 -5.359375 C 4.40625 -5.304688 4.4375 -5.234375 4.4375 -5.140625 L 4.4375 -1.5625 C 4.4375 -1.195312 4.367188 -0.890625 4.234375 -0.640625 C 4.097656 -0.390625 3.921875 -0.191406 3.703125 -0.046875 C 3.492188 0.0976562 3.253906 0.203125 2.984375 0.265625 C 2.710938 0.328125 2.4375 0.359375 2.15625 0.359375 C 1.914062 0.359375 1.691406 0.328125 1.484375 0.265625 C 1.273438 0.210938 1.09375 0.125 0.9375 0 C 0.78125 -0.132812 0.644531 -0.300781 0.53125 -0.5 C 0.425781 -0.695312 0.347656 -0.941406 0.296875 -1.234375 Z M 0.296875 -1.234375 "/></g></g></g><g fill="#8c52ff" fill-opacity="1"><g transform="translate(128.172862, 39.293768)"><g><path d="M 0.546875 -5.140625 C 0.546875 -5.222656 0.566406 -5.296875 0.609375 -5.359375 C 0.660156 -5.421875 0.738281 -5.453125 0.84375 -5.453125 L 1.625 -5.453125 C 1.707031 -5.453125 1.773438 -5.421875 1.828125 -5.359375 C 1.890625 -5.304688 1.921875 -5.234375 1.921875 -5.140625 L 1.921875 -0.109375 C 1.921875 -0.0234375 1.890625 0.046875 1.828125 0.109375 C 1.773438 0.171875 1.707031 0.203125 1.625 0.203125 L 0.84375 0.203125 C 0.738281 0.203125 0.660156 0.171875 0.609375 0.109375 C 0.566406 0.046875 0.546875 -0.0234375 0.546875 -0.109375 Z M 0.546875 -5.140625 "/></g></g></g><g fill="#8c52ff" fill-opacity="1"><g transform="translate(130.65029, 39.293768)"><g><path d="M 0.546875 -5.140625 C 0.546875 -5.203125 0.570312 -5.269531 0.625 -5.34375 C 0.6875 -5.414062 0.765625 -5.453125 0.859375 -5.453125 L 1.734375 -5.453125 C 1.835938 -5.453125 1.929688 -5.398438 2.015625 -5.296875 C 2.109375 -5.191406 2.195312 -5.066406 2.28125 -4.921875 L 4.296875 -0.921875 L 4.296875 -5.140625 C 4.296875 -5.222656 4.316406 -5.296875 4.359375 -5.359375 C 4.410156 -5.421875 4.488281 -5.453125 4.59375 -5.453125 L 5.375 -5.453125 C 5.457031 -5.453125 5.53125 -5.421875 5.59375 -5.359375 C 5.65625 -5.304688 5.6875 -5.234375 5.6875 -5.140625 L 5.6875 -0.09375 C 5.6875 0.0195312 5.65625 0.0976562 5.59375 0.140625 C 5.53125 0.179688 5.457031 0.203125 5.375 0.203125 L 4.59375 0.203125 C 4.519531 0.203125 4.457031 0.195312 4.40625 0.1875 C 4.351562 0.175781 4.304688 0.148438 4.265625 0.109375 C 4.222656 0.078125 4.175781 0.0234375 4.125 -0.046875 C 4.070312 -0.117188 4.015625 -0.222656 3.953125 -0.359375 L 1.921875 -4.4375 L 1.921875 -0.109375 C 1.921875 -0.0234375 1.890625 0.046875 1.828125 0.109375 C 1.773438 0.171875 1.707031 0.203125 1.625 0.203125 L 0.84375 0.203125 C 0.738281 0.203125 0.660156 0.171875 0.609375 0.109375 C 0.566406 0.046875 0.546875 -0.0234375 0.546875 -0.109375 Z M 0.546875 -5.140625 "/></g></g></g><g fill="#8c52ff" fill-opacity="1"><g transform="translate(136.874451, 39.293768)"><g><path d="M 0.359375 -2.640625 C 0.359375 -3.078125 0.421875 -3.476562 0.546875 -3.84375 C 0.679688 -4.21875 0.875 -4.535156 1.125 -4.796875 C 1.382812 -5.054688 1.695312 -5.253906 2.0625 -5.390625 C 2.4375 -5.535156 2.859375 -5.609375 3.328125 -5.609375 C 3.648438 -5.609375 3.941406 -5.570312 4.203125 -5.5 C 4.472656 -5.425781 4.703125 -5.320312 4.890625 -5.1875 C 5.085938 -5.0625 5.242188 -4.914062 5.359375 -4.75 C 5.484375 -4.582031 5.5625 -4.398438 5.59375 -4.203125 C 5.601562 -4.097656 5.578125 -4.007812 5.515625 -3.9375 C 5.460938 -3.863281 5.320312 -3.800781 5.09375 -3.75 C 4.820312 -3.6875 4.628906 -3.664062 4.515625 -3.6875 C 4.398438 -3.707031 4.335938 -3.785156 4.328125 -3.921875 C 4.316406 -4.085938 4.289062 -4.242188 4.25 -4.390625 C 4.21875 -4.546875 4.160156 -4.679688 4.078125 -4.796875 C 3.992188 -4.910156 3.890625 -5 3.765625 -5.0625 C 3.640625 -5.125 3.488281 -5.15625 3.3125 -5.15625 C 3.070312 -5.15625 2.863281 -5.085938 2.6875 -4.953125 C 2.507812 -4.816406 2.359375 -4.632812 2.234375 -4.40625 C 2.117188 -4.175781 2.03125 -3.910156 1.96875 -3.609375 C 1.914062 -3.304688 1.890625 -2.992188 1.890625 -2.671875 C 1.890625 -2.316406 1.914062 -1.984375 1.96875 -1.671875 C 2.03125 -1.359375 2.125 -1.082031 2.25 -0.84375 C 2.375 -0.613281 2.523438 -0.429688 2.703125 -0.296875 C 2.890625 -0.160156 3.101562 -0.09375 3.34375 -0.09375 C 3.476562 -0.09375 3.609375 -0.101562 3.734375 -0.125 C 3.859375 -0.15625 3.96875 -0.191406 4.0625 -0.234375 C 4.164062 -0.285156 4.25 -0.34375 4.3125 -0.40625 C 4.375 -0.476562 4.40625 -0.5625 4.40625 -0.65625 L 4.40625 -2.125 L 3.5 -2.125 C 3.394531 -2.125 3.328125 -2.140625 3.296875 -2.171875 C 3.273438 -2.203125 3.265625 -2.265625 3.265625 -2.359375 C 3.265625 -2.460938 3.28125 -2.523438 3.3125 -2.546875 C 3.34375 -2.578125 3.410156 -2.59375 3.515625 -2.59375 L 5.484375 -2.59375 C 5.597656 -2.59375 5.675781 -2.578125 5.71875 -2.546875 C 5.757812 -2.523438 5.78125 -2.441406 5.78125 -2.296875 L 5.78125 -0.8125 C 5.78125 -0.644531 5.71875 -0.488281 5.59375 -0.34375 C 5.476562 -0.195312 5.3125 -0.0703125 5.09375 0.03125 C 4.875 0.132812 4.609375 0.210938 4.296875 0.265625 C 3.984375 0.328125 3.640625 0.359375 3.265625 0.359375 C 2.835938 0.359375 2.441406 0.285156 2.078125 0.140625 C 1.722656 0.00390625 1.414062 -0.191406 1.15625 -0.453125 C 0.894531 -0.710938 0.695312 -1.023438 0.5625 -1.390625 C 0.425781 -1.765625 0.359375 -2.179688 0.359375 -2.640625 Z M 0.359375 -2.640625 "/></g></g></g><g fill="#8c52ff" fill-opacity="1"><g transform="translate(142.999207, 39.293768)"><g><path d="M 0.546875 -5.140625 C 0.546875 -5.222656 0.566406 -5.296875 0.609375 -5.359375 C 0.660156 -5.421875 0.738281 -5.453125 0.84375 -5.453125 L 1.625 -5.453125 C 1.707031 -5.453125 1.773438 -5.421875 1.828125 -5.359375 C 1.890625 -5.304688 1.921875 -5.234375 1.921875 -5.140625 L 1.921875 -2.890625 L 3.953125 -2.890625 L 3.953125 -5.140625 C 3.953125 -5.222656 3.972656 -5.296875 4.015625 -5.359375 C 4.066406 -5.421875 4.144531 -5.453125 4.25 -5.453125 L 5.03125 -5.453125 C 5.113281 -5.453125 5.1875 -5.421875 5.25 -5.359375 C 5.3125 -5.304688 5.34375 -5.234375 5.34375 -5.140625 L 5.34375 -0.109375 C 5.34375 -0.0234375 5.3125 0.046875 5.25 0.109375 C 5.1875 0.171875 5.113281 0.203125 5.03125 0.203125 L 4.25 0.203125 C 4.144531 0.203125 4.066406 0.171875 4.015625 0.109375 C 3.972656 0.046875 3.953125 -0.0234375 3.953125 -0.109375 L 3.953125 -2.4375 L 1.921875 -2.4375 L 1.921875 -0.109375 C 1.921875 -0.0234375 1.890625 0.046875 1.828125 0.109375 C 1.773438 0.171875 1.707031 0.203125 1.625 0.203125 L 0.84375 0.203125 C 0.738281 0.203125 0.660156 0.171875 0.609375 0.109375 C 0.566406 0.046875 0.546875 -0.0234375 0.546875 -0.109375 Z M 0.546875 -5.140625 "/></g></g></g><g fill="#8c52ff" fill-opacity="1"><g transform="translate(148.879282, 39.293768)"><g><path d="M 3.171875 -2.625 L 4.546875 -0.1875 C 4.617188 -0.0625 4.640625 0.03125 4.609375 0.09375 C 4.578125 0.164062 4.492188 0.203125 4.359375 0.203125 L 3.5625 0.203125 C 3.476562 0.203125 3.40625 0.1875 3.34375 0.15625 C 3.289062 0.125 3.242188 0.0703125 3.203125 0 L 2.453125 -1.328125 L 1.6875 0 C 1.644531 0.0703125 1.597656 0.125 1.546875 0.15625 C 1.492188 0.1875 1.421875 0.203125 1.328125 0.203125 L 0.53125 0.203125 C 0.40625 0.203125 0.320312 0.164062 0.28125 0.09375 C 0.25 0.03125 0.269531 -0.0625 0.34375 -0.1875 L 1.71875 -2.625 L 0.34375 -5.0625 C 0.269531 -5.1875 0.25 -5.28125 0.28125 -5.34375 C 0.320312 -5.414062 0.40625 -5.453125 0.53125 -5.453125 L 1.328125 -5.453125 C 1.421875 -5.453125 1.492188 -5.4375 1.546875 -5.40625 C 1.597656 -5.375 1.644531 -5.328125 1.6875 -5.265625 L 2.453125 -3.921875 L 3.203125 -5.265625 C 3.242188 -5.328125 3.289062 -5.375 3.34375 -5.40625 C 3.40625 -5.4375 3.476562 -5.453125 3.5625 -5.453125 L 4.359375 -5.453125 C 4.492188 -5.453125 4.578125 -5.414062 4.609375 -5.34375 C 4.640625 -5.28125 4.617188 -5.1875 4.546875 -5.0625 Z M 3.171875 -2.625 "/></g></g></g><g fill="#8c52ff" fill-opacity="1"><g transform="translate(153.765323, 39.293768)"><g><path d="M 0.640625 -0.59375 C 0.640625 -0.65625 0.660156 -0.703125 0.703125 -0.734375 C 0.742188 -0.773438 0.789062 -0.796875 0.84375 -0.796875 L 1.4375 -0.796875 C 1.5 -0.796875 1.546875 -0.773438 1.578125 -0.734375 C 1.617188 -0.703125 1.640625 -0.65625 1.640625 -0.59375 L 1.640625 0 C 1.628906 0.0507812 1.609375 0.0976562 1.578125 0.140625 C 1.546875 0.179688 1.5 0.203125 1.4375 0.203125 L 0.84375 0.203125 C 0.789062 0.203125 0.742188 0.179688 0.703125 0.140625 C 0.660156 0.0976562 0.640625 0.0507812 0.640625 0 Z M 0.640625 -0.59375 "/></g></g></g><g fill="#8c52ff" fill-opacity="1"><g transform="translate(156.043949, 39.293768)"><g><path d="M 0.359375 -2.625 C 0.359375 -3.09375 0.425781 -3.503906 0.5625 -3.859375 C 0.707031 -4.222656 0.90625 -4.53125 1.15625 -4.78125 C 1.40625 -5.03125 1.695312 -5.21875 2.03125 -5.34375 C 2.363281 -5.46875 2.71875 -5.53125 3.09375 -5.53125 C 3.375 -5.53125 3.644531 -5.5 3.90625 -5.4375 C 4.175781 -5.375 4.421875 -5.269531 4.640625 -5.125 C 4.867188 -4.988281 5.054688 -4.816406 5.203125 -4.609375 C 5.347656 -4.398438 5.441406 -4.148438 5.484375 -3.859375 C 5.503906 -3.710938 5.457031 -3.597656 5.34375 -3.515625 C 5.238281 -3.429688 5.085938 -3.378906 4.890625 -3.359375 C 4.816406 -3.347656 4.742188 -3.34375 4.671875 -3.34375 C 4.597656 -3.34375 4.523438 -3.347656 4.453125 -3.359375 C 4.390625 -3.378906 4.332031 -3.410156 4.28125 -3.453125 C 4.238281 -3.492188 4.207031 -3.5625 4.1875 -3.65625 C 4.132812 -3.894531 4.085938 -4.101562 4.046875 -4.28125 C 4.015625 -4.457031 3.960938 -4.601562 3.890625 -4.71875 C 3.828125 -4.84375 3.734375 -4.929688 3.609375 -4.984375 C 3.492188 -5.046875 3.320312 -5.078125 3.09375 -5.078125 C 2.945312 -5.078125 2.796875 -5.023438 2.640625 -4.921875 C 2.492188 -4.828125 2.359375 -4.675781 2.234375 -4.46875 C 2.109375 -4.269531 2.003906 -4.007812 1.921875 -3.6875 C 1.847656 -3.375 1.8125 -3.003906 1.8125 -2.578125 C 1.8125 -2.242188 1.832031 -1.925781 1.875 -1.625 C 1.914062 -1.332031 1.988281 -1.078125 2.09375 -0.859375 C 2.207031 -0.648438 2.34375 -0.484375 2.5 -0.359375 C 2.664062 -0.234375 2.863281 -0.171875 3.09375 -0.171875 C 3.320312 -0.171875 3.5 -0.222656 3.625 -0.328125 C 3.757812 -0.441406 3.863281 -0.570312 3.9375 -0.71875 C 4.007812 -0.875 4.0625 -1.035156 4.09375 -1.203125 C 4.132812 -1.378906 4.175781 -1.53125 4.21875 -1.65625 C 4.257812 -1.789062 4.34375 -1.875 4.46875 -1.90625 C 4.59375 -1.945312 4.765625 -1.929688 4.984375 -1.859375 C 5.148438 -1.804688 5.285156 -1.742188 5.390625 -1.671875 C 5.492188 -1.597656 5.535156 -1.5 5.515625 -1.375 C 5.460938 -1.175781 5.375 -0.972656 5.25 -0.765625 C 5.132812 -0.566406 4.976562 -0.390625 4.78125 -0.234375 C 4.582031 -0.078125 4.34375 0.046875 4.0625 0.140625 C 3.78125 0.234375 3.457031 0.28125 3.09375 0.28125 C 2.632812 0.28125 2.234375 0.207031 1.890625 0.0625 C 1.546875 -0.0820312 1.257812 -0.285156 1.03125 -0.546875 C 0.800781 -0.804688 0.628906 -1.113281 0.515625 -1.46875 C 0.410156 -1.820312 0.359375 -2.207031 0.359375 -2.625 Z M 0.359375 -2.625 "/></g></g></g><g fill="#8c52ff" fill-opacity="1"><g transform="translate(161.916376, 39.293768)"><g><path d="M 0.546875 -5.140625 C 0.546875 -5.203125 0.570312 -5.269531 0.625 -5.34375 C 0.6875 -5.414062 0.765625 -5.453125 0.859375 -5.453125 L 1.734375 -5.453125 C 1.835938 -5.453125 1.929688 -5.398438 2.015625 -5.296875 C 2.109375 -5.191406 2.195312 -5.066406 2.28125 -4.921875 L 4.296875 -0.921875 L 4.296875 -5.140625 C 4.296875 -5.222656 4.316406 -5.296875 4.359375 -5.359375 C 4.410156 -5.421875 4.488281 -5.453125 4.59375 -5.453125 L 5.375 -5.453125 C 5.457031 -5.453125 5.53125 -5.421875 5.59375 -5.359375 C 5.65625 -5.304688 5.6875 -5.234375 5.6875 -5.140625 L 5.6875 -0.09375 C 5.6875 0.0195312 5.65625 0.0976562 5.59375 0.140625 C 5.53125 0.179688 5.457031 0.203125 5.375 0.203125 L 4.59375 0.203125 C 4.519531 0.203125 4.457031 0.195312 4.40625 0.1875 C 4.351562 0.175781 4.304688 0.148438 4.265625 0.109375 C 4.222656 0.078125 4.175781 0.0234375 4.125 -0.046875 C 4.070312 -0.117188 4.015625 -0.222656 3.953125 -0.359375 L 1.921875 -4.4375 L 1.921875 -0.109375 C 1.921875 -0.0234375 1.890625 0.046875 1.828125 0.109375 C 1.773438 0.171875 1.707031 0.203125 1.625 0.203125 L 0.84375 0.203125 C 0.738281 0.203125 0.660156 0.171875 0.609375 0.109375 C 0.566406 0.046875 0.546875 -0.0234375 0.546875 -0.109375 Z M 0.546875 -5.140625 "/></g></g></g></svg>